SplineFontDB: 3.0
FontName: BenchNine-Regular
FullName: BenchNine Regular
FamilyName: BenchNine
Weight: Book
Copyright: Copyright (c) 2012, vernon adams (vern@newtypography.co.uk), with Reserved Font Name 'BenchNine'
Version: 1
ItalicAngle: 0
UnderlinePosition: 0
UnderlineWidth: 0
Ascent: 1638
Descent: 410
sfntRevision: 0x00010000
LayerCount: 2
Layer: 0 1 "Back"  1
Layer: 1 1 "Fore"  0
XUID: [1021 332 1330122705 2365021]
FSType: 0
OS2Version: 4
OS2_WeightWidthSlopeOnly: 0
OS2_UseTypoMetrics: 1
CreationTime: 1348007947
ModificationTime: 1348522296
PfmFamily: 17
TTFWeight: 400
TTFWidth: 5
LineGap: 0
VLineGap: 0
Panose: 2 0 5 3 0 0 0 0 0 0
OS2TypoAscent: 2020
OS2TypoAOffset: 0
OS2TypoDescent: -720
OS2TypoDOffset: 0
OS2TypoLinegap: 0
OS2WinAscent: 2020
OS2WinAOffset: 0
OS2WinDescent: 720
OS2WinDOffset: 0
HheadAscent: 2020
HheadAOffset: 0
HheadDescent: -720
HheadDOffset: 0
OS2SubXSize: 1331
OS2SubYSize: 1433
OS2SubXOff: 0
OS2SubYOff: 286
OS2SupXSize: 1331
OS2SupYSize: 1433
OS2SupXOff: 0
OS2SupYOff: 983
OS2StrikeYSize: 102
OS2StrikeYPos: 530
OS2Vendor: 'newt'
OS2CodePages: 00000093.00000000
OS2UnicodeRanges: a00000ef.4000204a.00000000.00000000
Lookup: 4 0 1 "'liga' Standard Ligatures lookup 0"  {"'liga' Standard Ligatures lookup 0 subtable"  } ['liga' ('DFLT' <'dflt' > 'grek' <'dflt' > 'latn' <'dflt' > ) ]
Lookup: 258 0 0 "'kern' Horizontal Kerning in Latin lookup 0"  {"'kern' Horizontal Kerning in Latin lookup 0 per glyph data 0"  "'kern' Horizontal Kerning in Latin lookup 0 kerning class 1"  } ['kern' ('DFLT' <'dflt' > 'latn' <'dflt' > ) ]
MarkAttachClasses: 1
DEI: 91125
KernClass2: 30 28 "'kern' Horizontal Kerning in Latin lookup 0 kerning class 1" 
 89 A Agrave Aacute Acircumflex Atilde Adieresis Aring Amacron Abreve Aogonek uni0200 uni0202
 1 C
 16 D Dcaron uni1E0A
 9 F uni1E1E
 1 G
 14 K Kcommaaccent
 28 L Lacute Lcommaaccent Lcaron
 89 O Ograve Oacute Ocircumflex Otilde Odieresis Omacron Obreve Ohungarumlaut uni020C uni020E
 9 P uni1E56

StartChar: .notdef
Encoding: 65536 -1 0
Width: 349
Flags: W
LayerCount: 2
Fore
SplineSet
35 -299 m 1,0,-1
 35 1475 l 1,1,-1
 314 1475 l 1,2,-1
 314 -299 l 1,3,-1
 35 -299 l 1,0,-1
70 -197 m 1,4,-1
 280 -197 l 1,5,-1
 280 1373 l 1,6,-1
 70 1373 l 1,7,-1
 70 -197 l 1,4,-1
EndSplineSet
EndChar

StartChar: exclam
Encoding: 33 33 4
Width: 366
GlyphClass: 2
Flags: W
LayerCount: 2
Fore
SplineSet
170 432 m 2,0,1
 153 432 153 432 150 504 c 2,2,-1
 108 1411 l 1,3,4
 108 1420 l 0,5,6
 108 1448 108 1448 115.5 1465 c 128,-1,7
 123 1482 123 1482 135 1482 c 2,8,-1
 232 1482 l 2,9,10
 242 1482 242 1482 250.5 1464.5 c 128,-1,11
 259 1447 259 1447 259 1419 c 2,12,-1
 259 1411 l 1,13,-1
 218 504 l 2,14,15
 215 432 215 432 197 432 c 2,16,-1
 170 432 l 2,0,1
125 0 m 2,17,18
 98 0 98 0 98 53 c 2,19,-1
 98 186 l 2,20,21
 98 238 98 238 125 238 c 2,22,-1
 242 238 l 2,23,24
 268 238 268 238 268 186 c 2,25,-1
 268 53 l 2,26,27
 268 0 268 0 242 0 c 2,28,-1
 125 0 l 2,17,18
EndSplineSet
EndChar

StartChar: quotedbl
Encoding: 34 34 5
Width: 478
GlyphClass: 2
Flags: W
LayerCount: 2
Fore
SplineSet
122 908 m 2,0,1
 104 908 104 908 101 974 c 1,2,-1
 67 1367 l 1,3,4
 67 1375 l 0,5,6
 67 1401 67 1401 74.5 1419.5 c 128,-1,7
 82 1438 82 1438 92 1438 c 2,8,-1
 174 1438 l 2,9,10
 184 1438 184 1438 191 1418.5 c 128,-1,11
 198 1399 198 1399 198 1371 c 2,12,-1
 198 1366 l 1,13,-1
 166 974 l 2,14,15
 161 908 161 908 145 908 c 2,16,-1
 122 908 l 2,0,1
335 908 m 2,17,18
 317 908 317 908 314 974 c 1,19,-1
 280 1367 l 1,20,-1
 280 1375 l 2,21,22
 280 1401 280 1401 287.5 1419.5 c 128,-1,23
 295 1438 295 1438 305 1438 c 2,24,-1
 387 1438 l 2,25,26
 397 1438 397 1438 404 1418.5 c 128,-1,27
 411 1399 411 1399 411 1371 c 2,28,-1
 411 1366 l 1,29,-1
 379 974 l 2,30,31
 374 908 374 908 358 908 c 2,32,-1
 335 908 l 2,17,18
EndSplineSet
EndChar

StartChar: numbersign
Encoding: 35 35 6
Width: 713
GlyphClass: 2
Flags: W
LayerCount: 2
Fore
SplineSet
277 447 m 1,0,-1
 421 447 l 1,1,-1
 453 866 l 1,2,-1
 310 866 l 1,3,-1
 277 447 l 1,0,-1
147 -173 m 2,4,5
 143 -173 143 -173 140 -162 c 128,-1,6
 137 -151 137 -151 139 -138 c 2,7,-1
 175 328 l 1,8,-1
 115 328 l 2,9,10
 92 328 92 328 92 374 c 2,11,-1
 92 401 l 2,12,13
 92 429 92 429 96 438 c 128,-1,14
 100 447 100 447 112 447 c 2,15,-1
 187 447 l 1,16,-1
 220 866 l 1,17,-1
 152 866 l 2,18,19
 128 866 128 866 128 912 c 2,20,-1
 128 942 l 2,21,22
 128 988 128 988 151 988 c 2,23,-1
 233 988 l 1,24,-1
 278 1504 l 2,25,26
 279 1519 279 1519 284 1529 c 128,-1,27
 289 1539 289 1539 294 1539 c 2,28,-1
 359 1539 l 2,29,30
 369 1539 369 1539 367 1504 c 2,31,-1
 323 988 l 1,32,-1
 467 988 l 1,33,-1
 512 1504 l 2,34,35
 515 1539 515 1539 528 1539 c 2,36,-1
 591 1539 l 2,37,38
 602 1539 602 1539 598 1504 c 1,39,-1
 554 988 l 1,40,-1
 616 988 l 2,41,42
 638 988 638 988 638 942 c 2,43,-1
 638 912 l 2,44,45
 638 885 638 885 633.5 875.5 c 128,-1,46
 629 866 629 866 618 866 c 2,47,-1
 541 866 l 1,48,-1
 509 447 l 1,49,-1
 576 447 l 2,50,51
 603 447 603 447 603 401 c 2,52,-1
 603 374 l 2,53,54
 603 347 603 347 597.5 337.5 c 128,-1,55
 592 328 592 328 579 328 c 2,56,-1
 496 328 l 1,57,-1
 459 -138 l 2,58,59
 456 -173 456 -173 443 -173 c 2,60,-1
 380 -173 l 2,61,62
 370 -173 370 -173 372 -138 c 2,63,-1
 409 328 l 1,64,-1
 265 328 l 1,65,-1
 228 -138 l 2,66,67
 225 -173 225 -173 211 -173 c 2,68,-1
 147 -173 l 2,4,5
EndSplineSet
EndChar

StartChar: percent
Encoding: 37 37 8
Width: 1017
GlyphClass: 2
Flags: W
LayerCount: 2
Fore
SplineSet
808 -1 m 0,0,1
 724 -1 724 -1 680 101.5 c 128,-1,2
 636 204 636 204 636 402 c 128,-1,3
 636 600 636 600 679.5 703 c 128,-1,4
 723 806 723 806 808 806 c 0,5,6
 891 806 891 806 934.5 702.5 c 128,-1,7
 978 599 978 599 978 402 c 0,8,9
 978 204 978 204 934 101.5 c 128,-1,10
 890 -1 890 -1 808 -1 c 0,0,1
808 101 m 0,11,12
 892 101 892 101 892 400 c 0,13,14
 892 704 892 704 808 704 c 0,15,16
 722 704 722 704 722 400 c 0,17,18
 722 259 722 259 743.5 180 c 128,-1,19
 765 101 765 101 808 101 c 0,11,12
198 642 m 0,20,21
 114 642 114 642 70 744 c 128,-1,22
 26 846 26 846 26 1044 c 128,-1,23
 26 1242 26 1242 69.5 1345 c 128,-1,24
 113 1448 113 1448 198 1448 c 0,25,26
 282 1448 282 1448 325.5 1345 c 128,-1,27
 369 1242 369 1242 369 1044 c 128,-1,28
 369 846 369 846 325 744 c 128,-1,29
 281 642 281 642 198 642 c 0,20,21
198 743 m 0,30,31
 283 743 283 743 283 1042 c 0,32,33
 283 1346 283 1346 198 1346 c 0,34,35
 112 1346 112 1346 112 1042 c 0,36,37
 112 901 112 901 133.5 822 c 128,-1,38
 155 743 155 743 198 743 c 0,30,31
364 -82 m 2,39,40
 357 -82 357 -82 351.5 -67 c 128,-1,41
 346 -52 346 -52 346 -32 c 0,42,43
 346 -26 346 -26 348 -12 c 2,44,-1
 571 1466 l 1,45,46
 583 1536 583 1536 608 1536 c 2,47,-1
 640 1536 l 2,48,49
 647 1536 647 1536 651.5 1522 c 128,-1,50
 656 1508 656 1508 656 1489 c 0,51,52
 656 1482 656 1482 654 1466 c 2,53,-1
 432 -12 l 1,54,55
 420 -82 420 -82 395 -82 c 2,56,-1
 364 -82 l 2,39,40
EndSplineSet
EndChar

StartChar: ampersand
Encoding: 38 38 9
Width: 1134
GlyphClass: 2
Flags: W
LayerCount: 2
Fore
SplineSet
492 115 m 0,0,1
 669 115 669 115 714 264 c 0,2,3
 715 268 715 268 715 269 c 2,4,-1
 711 660 l 2,5,6
 711 688 711 688 696 688 c 2,7,-1
 458 688 l 1,8,9
 385 687 385 687 332.5 611 c 128,-1,10
 280 535 280 535 280 407 c 0,11,12
 280 323 280 323 301 262.5 c 128,-1,13
 322 202 322 202 356 172 c 128,-1,14
 390 142 390 142 424 128.5 c 128,-1,15
 458 115 458 115 492 115 c 0,0,1
472 -16 m 0,16,17
 395 -16 395 -16 334 6 c 128,-1,18
 273 28 273 28 223 76 c 128,-1,19
 173 124 173 124 146 209 c 128,-1,20
 119 294 119 294 119 411 c 0,21,22
 119 541 119 541 177 634.5 c 128,-1,23
 235 728 235 728 306 750 c 1,24,25
 233 769 233 769 175 850 c 128,-1,26
 117 931 117 931 117 1071 c 0,27,28
 117 1268 117 1268 200 1363.5 c 128,-1,29
 283 1459 283 1459 422 1459 c 0,30,31
 514 1459 514 1459 564 1433 c 0,32,33
 594 1418 594 1418 589 1386 c 1,34,-1
 585 1325 l 2,35,36
 584 1305 584 1305 577 1298.5 c 128,-1,37
 570 1292 570 1292 558 1298 c 0,38,39
 557 1298 557 1298 547.5 1302 c 128,-1,40
 538 1306 538 1306 528.5 1309.5 c 128,-1,41
 519 1313 519 1313 499 1316 c 128,-1,42
 479 1319 479 1319 456 1319 c 0,43,44
 383 1319 383 1319 331 1263.5 c 128,-1,45
 279 1208 279 1208 278 1079 c 0,46,47
 278 970 278 970 322.5 898 c 128,-1,48
 367 826 367 826 448 826 c 2,49,-1
 696 826 l 2,50,51
 711 826 711 826 711 856 c 2,52,-1
 716 1354 l 2,53,54
 717 1408 717 1408 747 1408 c 2,55,-1
 843 1408 l 2,56,57
 872 1408 872 1408 872 1354 c 2,58,-1
 872 856 l 2,59,60
 872 826 872 826 886 826 c 2,61,-1
 1035 826 l 2,62,63
 1066 826 1066 826 1066 775 c 2,64,-1
 1066 741 l 2,65,66
 1066 688 1066 688 1035 688 c 2,67,-1
 886 688 l 2,68,69
 872 688 872 688 872 659 c 2,70,-1
 872 349 l 2,71,72
 872 124 872 124 979 124 c 0,73,74
 1021 124 1021 124 1065 156 c 0,75,76
 1076 164 1076 164 1085 155.5 c 128,-1,77
 1094 147 1094 147 1096 125 c 2,78,-1
 1099 81 l 1,79,-1
 1099 72 l 2,80,81
 1099 36 1099 36 1078 21 c 1,82,83
 1015 -17 1015 -17 954 -17 c 0,84,85
 889 -17 889 -17 830.5 20 c 128,-1,86
 772 57 772 57 751 127 c 1,87,88
 735 106 735 106 726 94.5 c 128,-1,89
 717 83 717 83 690.5 58.5 c 128,-1,90
 664 34 664 34 637.5 20.5 c 128,-1,91
 611 7 611 7 567 -4.5 c 128,-1,92
 523 -16 523 -16 472 -16 c 0,16,17
EndSplineSet
EndChar

StartChar: quotesingle
Encoding: 39 39 10
Width: 265
GlyphClass: 2
Flags: W
LayerCount: 2
Fore
SplineSet
122 908 m 2,0,1
 104 908 104 908 101 974 c 1,2,-1
 67 1367 l 1,3,4
 67 1375 l 0,5,6
 67 1401 67 1401 74.5 1419.5 c 128,-1,7
 82 1438 82 1438 92 1438 c 2,8,-1
 174 1438 l 2,9,10
 184 1438 184 1438 191 1418.5 c 128,-1,11
 198 1399 198 1399 198 1371 c 2,12,-1
 198 1366 l 1,13,-1
 166 974 l 2,14,15
 161 908 161 908 145 908 c 2,16,-1
 122 908 l 2,0,1
EndSplineSet
EndChar

StartChar: parenleft
Encoding: 40 40 11
Width: 425
GlyphClass: 2
Flags: W
LayerCount: 2
Fore
SplineSet
302 -143 m 1,0,1
 233 -113 233 -113 186.5 15 c 128,-1,2
 140 143 140 143 120.5 315.5 c 128,-1,3
 101 488 101 488 101 699 c 0,4,5
 101 1027 101 1027 150.5 1261.5 c 128,-1,6
 200 1496 200 1496 302 1540 c 1,7,-1
 303 1540 l 1,8,9
 304 1541 304 1541 305 1541 c 0,10,11
 314 1541 314 1541 321 1519 c 128,-1,12
 328 1497 328 1497 328 1470 c 2,13,-1
 328 1415 l 2,14,15
 328 1382 328 1382 323.5 1361.5 c 128,-1,16
 319 1341 319 1341 315 1333.5 c 128,-1,17
 311 1326 311 1326 297 1305 c 0,18,19
 218 1186 218 1186 218 699 c 0,20,21
 218 208 218 208 298 91 c 0,22,23
 311 72 311 72 315.5 63.5 c 128,-1,24
 320 55 320 55 324 35 c 128,-1,25
 328 15 328 15 328 -18 c 2,26,-1
 328 -73 l 2,27,28
 328 -100 328 -100 321 -122 c 128,-1,29
 314 -144 314 -144 305 -144 c 0,30,31
 304 -144 l 1,32,-1
 302 -143 l 1,0,1
EndSplineSet
EndChar

StartChar: parenright
Encoding: 41 41 12
Width: 429
GlyphClass: 2
Flags: W
LayerCount: 2
Fore
SplineSet
124 -143 m 1,0,1
 123 -144 l 0,2,3
 122 -144 122 -144 121 -144 c 0,4,5
 112 -144 112 -144 105 -122 c 128,-1,6
 98 -100 98 -100 98 -73 c 2,7,-1
 98 -17 l 2,8,9
 98 16 98 16 102.5 36.5 c 128,-1,10
 107 57 107 57 110.5 64 c 128,-1,11
 114 71 114 71 129 92 c 0,12,13
 209 209 209 209 209 698 c 0,14,15
 209 1189 209 1189 129 1306 c 0,16,17
 127 1309 127 1309 123 1315 c 128,-1,18
 119 1321 119 1321 118 1323 c 128,-1,19
 117 1325 117 1325 113.5 1330.5 c 128,-1,20
 110 1336 110 1336 109 1338.5 c 128,-1,21
 108 1341 108 1341 106 1346.5 c 128,-1,22
 104 1352 104 1352 103 1356.5 c 128,-1,23
 102 1361 102 1361 101 1367.5 c 128,-1,24
 100 1374 100 1374 99.5 1381 c 128,-1,25
 99 1388 99 1388 98.5 1397 c 128,-1,26
 98 1406 98 1406 98 1416 c 2,27,-1
 98 1470 l 2,28,29
 98 1497 98 1497 105 1519 c 128,-1,30
 112 1541 112 1541 121 1541 c 0,31,32
 122 1541 122 1541 124 1540 c 0,33,34
 193 1510 193 1510 240 1382 c 128,-1,35
 287 1254 287 1254 306.5 1081 c 128,-1,36
 326 908 326 908 326 698 c 0,37,38
 326 370 326 370 276 135.5 c 128,-1,39
 226 -99 226 -99 124 -143 c 1,0,1
EndSplineSet
EndChar

StartChar: asterisk
Encoding: 42 42 13
Width: 709
GlyphClass: 2
Flags: W
LayerCount: 2
Fore
SplineSet
247 422 m 0,0,1
 225 422 225 422 204.5 432.5 c 128,-1,2
 184 443 184 443 184 460 c 0,3,4
 184 478 184 478 203 515.5 c 128,-1,5
 222 553 222 553 242 583.5 c 128,-1,6
 262 614 262 614 290 654 c 128,-1,7
 318 694 318 694 321 698 c 1,8,-1
 135 753 l 2,9,10
 119 758 119 758 109 774.5 c 128,-1,11
 99 791 99 791 99 813 c 0,12,13
 99 839 99 839 110.5 858.5 c 128,-1,14
 122 878 122 878 141 878 c 0,15,16
 154 878 154 878 194 850 c 128,-1,17
 234 822 234 822 280 786 c 128,-1,18
 326 750 326 750 336 743 c 1,19,20
 333 768 333 768 325 822.5 c 128,-1,21
 317 877 317 877 313 917.5 c 128,-1,22
 309 958 309 958 309 997 c 0,23,24
 309 1021 309 1021 322 1033.5 c 128,-1,25
 335 1046 335 1046 355 1046 c 0,26,27
 400 1046 400 1046 400 1001 c 1,28,-1
 379 743 l 1,29,-1
 537 843 l 1,30,31
 547 848 547 848 555 848 c 0,32,33
 575 848 575 848 589.5 830 c 128,-1,34
 604 812 604 812 604 790 c 0,35,36
 604 753 604 753 564 743 c 2,37,-1
 388 698 l 1,38,39
 524 548 524 548 549 517 c 0,40,41
 558 506 558 506 558 494 c 0,42,43
 558 476 558 476 541.5 461.5 c 128,-1,44
 525 447 525 447 506 447 c 0,45,46
 485 447 485 447 472 467 c 2,47,-1
 353 667 l 1,48,-1
 269 431 l 2,49,50
 266 422 266 422 247 422 c 0,0,1
EndSplineSet
EndChar

StartChar: plus
Encoding: 43 43 14
Width: 801
GlyphClass: 2
Flags: W
LayerCount: 2
Fore
SplineSet
380 283 m 2,0,1
 363 283 363 283 355 291.5 c 128,-1,2
 347 300 347 300 347 328 c 2,3,-1
 347 531 l 2,4,5
 347 545 347 545 343.5 549 c 128,-1,6
 340 553 340 553 332 553 c 2,7,-1
 149 553 l 2,8,9
 134 553 134 553 126 560.5 c 128,-1,10
 118 568 118 568 118 593 c 2,11,-1
 118 618 l 2,12,13
 118 635 118 635 122.5 644 c 128,-1,14
 127 653 127 653 133 655 c 128,-1,15
 139 657 139 657 149 657 c 2,16,-1
 332 657 l 2,17,18
 340 657 340 657 343.5 661 c 128,-1,19
 347 665 347 665 347 679 c 2,20,-1
 347 875 l 2,21,22
 347 903 347 903 355 911.5 c 128,-1,23
 363 920 363 920 380 920 c 2,24,-1
 435 920 l 2,25,26
 451 920 451 920 458.5 911.5 c 128,-1,27
 466 903 466 903 466 875 c 2,28,-1
 466 679 l 2,29,30
 466 665 466 665 470 661 c 128,-1,31
 474 657 474 657 483 657 c 2,32,-1
 663 657 l 2,33,34
 673 657 673 657 678.5 655 c 128,-1,35
 684 653 684 653 689 644 c 128,-1,36
 694 635 694 635 694 618 c 2,37,-1
 694 593 l 2,38,39
 694 569 694 569 686 561 c 128,-1,40
 678 553 678 553 663 553 c 2,41,-1
 483 553 l 2,42,43
 474 553 474 553 470 549 c 128,-1,44
 466 545 466 545 466 531 c 2,45,-1
 466 328 l 2,46,47
 466 300 466 300 458.5 291.5 c 128,-1,48
 451 283 451 283 435 283 c 2,49,-1
 380 283 l 2,0,1
EndSplineSet
EndChar

StartChar: comma
Encoding: 44 44 15
Width: 366
GlyphClass: 2
Flags: W
LayerCount: 2
Fore
SplineSet
108 -301 m 0,0,1
 104 -303 104 -303 101 -303 c 0,2,3
 85 -303 85 -303 85 -262 c 2,4,-1
 85 -247 l 2,5,6
 85 -237 85 -237 85.5 -230 c 128,-1,7
 86 -223 86 -223 86.5 -219 c 128,-1,8
 87 -215 87 -215 89.5 -210 c 128,-1,9
 92 -205 92 -205 93 -203.5 c 128,-1,10
 94 -202 94 -202 99.5 -195 c 128,-1,11
 105 -188 105 -188 107 -185 c 0,12,13
 127 -157 127 -157 138.5 -109.5 c 128,-1,14
 150 -62 150 -62 150 -27 c 0,15,16
 150 0 150 0 144 0 c 2,17,-1
 102 0 l 2,18,19
 81 0 81 0 81 55 c 2,20,-1
 81 181 l 2,21,22
 81 211 81 211 90 226.5 c 128,-1,23
 99 242 99 242 111 242 c 2,24,-1
 209 242 l 2,25,26
 221 242 221 242 228.5 223.5 c 128,-1,27
 236 205 236 205 236 174 c 2,28,-1
 236 64 l 2,29,30
 236 -95 236 -95 195.5 -187 c 128,-1,31
 155 -279 155 -279 108 -301 c 0,0,1
EndSplineSet
EndChar

StartChar: hyphen
Encoding: 45 45 16
Width: 474
GlyphClass: 2
Flags: W
LayerCount: 2
Fore
SplineSet
112 503 m 2,0,1
 87 503 87 503 87 555 c 2,2,-1
 87 633 l 2,3,4
 87 686 87 686 112 686 c 2,5,-1
 358 686 l 2,6,7
 383 686 383 686 383 633 c 2,8,-1
 383 555 l 2,9,10
 383 503 383 503 358 503 c 2,11,-1
 112 503 l 2,0,1
EndSplineSet
EndChar

StartChar: period
Encoding: 46 46 17
Width: 344
GlyphClass: 2
Flags: W
LayerCount: 2
Fore
SplineSet
115 0 m 2,0,1
 88 0 88 0 88 53 c 2,2,-1
 88 186 l 2,3,4
 88 238 88 238 115 238 c 2,5,-1
 232 238 l 2,6,7
 258 238 258 238 258 186 c 2,8,-1
 258 53 l 2,9,10
 258 0 258 0 232 0 c 2,11,-1
 115 0 l 2,0,1
EndSplineSet
EndChar

StartChar: slash
Encoding: 47 47 18
Width: 531
GlyphClass: 2
Flags: W
LayerCount: 2
Fore
SplineSet
89 -205 m 2,0,1
 81 -205 81 -205 81 -178 c 2,2,-1
 81 -170 l 1,3,-1
 316 1612 l 1,4,5
 319 1647 319 1647 333 1647 c 2,6,-1
 445 1647 l 2,7,8
 454 1647 454 1647 454 1620 c 2,9,-1
 454 1612 l 1,10,-1
 219 -171 l 2,11,12
 214 -206 214 -206 203 -206 c 2,13,-1
 89 -205 l 2,0,1
EndSplineSet
EndChar

StartChar: zero
Encoding: 48 48 19
Width: 860
GlyphClass: 2
Flags: W
LayerCount: 2
Fore
SplineSet
428 -14 m 0,0,1
 381 -14 381 -14 341.5 0.5 c 128,-1,2
 302 15 302 15 264 47 c 128,-1,3
 226 79 226 79 196.5 135.5 c 128,-1,4
 167 192 167 192 145 272 c 128,-1,5
 123 352 123 352 111 467 c 128,-1,6
 99 582 99 582 99 726 c 0,7,8
 99 901 99 901 116.5 1032 c 128,-1,9
 134 1163 134 1163 163 1242.5 c 128,-1,10
 192 1322 192 1322 235.5 1370 c 128,-1,11
 279 1418 279 1418 325 1435.5 c 128,-1,12
 371 1453 371 1453 428 1453 c 0,13,14
 486 1453 486 1453 531.5 1436 c 128,-1,15
 577 1419 577 1419 621 1371 c 128,-1,16
 665 1323 665 1323 694.5 1244 c 128,-1,17
 724 1165 724 1165 741.5 1033.5 c 128,-1,18
 759 902 759 902 759 726 c 0,19,20
 759 554 759 554 741.5 423 c 128,-1,21
 724 292 724 292 694.5 210.5 c 128,-1,22
 665 129 665 129 621.5 77.5 c 128,-1,23
 578 26 578 26 531.5 6 c 128,-1,24
 485 -14 485 -14 428 -14 c 0,0,1
429 114 m 128,-1,26
 524 114 524 114 564.5 253 c 128,-1,27
 605 392 605 392 605 726 c 0,28,29
 605 1051 605 1051 564.5 1187.5 c 128,-1,30
 524 1324 524 1324 428 1324 c 128,-1,31
 332 1324 332 1324 292 1187.5 c 128,-1,32
 252 1051 252 1051 252 726 c 0,33,34
 252 394 252 394 293 254 c 128,-1,25
 334 114 334 114 429 114 c 128,-1,26
EndSplineSet
EndChar

StartChar: one
Encoding: 49 49 20
Width: 499
GlyphClass: 2
Flags: W
LayerCount: 2
Fore
SplineSet
220 0 m 2,0,1
 197 0 197 0 197 67 c 2,2,-1
 197 1217 l 2,3,4
 197 1232 197 1232 193 1239 c 128,-1,5
 189 1246 189 1246 183 1244 c 0,6,7
 97 1222 97 1222 96 1222 c 0,8,9
 85 1220 85 1220 79.5 1228.5 c 128,-1,10
 74 1237 74 1237 74 1260 c 2,11,-1
 74 1337 l 2,12,13
 74 1369 74 1369 97 1374 c 1,14,-1
 325 1434 l 2,15,16
 335 1436 335 1436 338 1436 c 0,17,18
 358 1436 358 1436 358 1394 c 2,19,-1
 358 67 l 2,20,21
 358 0 358 0 334 0 c 2,22,-1
 220 0 l 2,0,1
EndSplineSet
EndChar

StartChar: two
Encoding: 50 50 21
Width: 739
GlyphClass: 2
Flags: W
LayerCount: 2
Fore
SplineSet
625 0 m 2,0,-1
 119 0 l 2,1,2
 94 0 94 0 94 58 c 0,3,4
 94 114 94 114 95 119 c 0,5,6
 99 223 99 223 126 319.5 c 128,-1,7
 153 416 153 416 191.5 489.5 c 128,-1,8
 230 563 230 563 276.5 631 c 128,-1,9
 323 699 323 699 368 758.5 c 128,-1,10
 413 818 413 818 450 874 c 128,-1,11
 487 930 487 930 510 992 c 128,-1,12
 533 1054 533 1054 533 1115 c 0,13,14
 533 1212 533 1212 487.5 1266 c 128,-1,15
 442 1320 442 1320 365 1320 c 0,16,17
 323 1320 323 1320 281.5 1312.5 c 128,-1,18
 240 1305 240 1305 220 1298.5 c 128,-1,19
 200 1292 200 1292 159 1276 c 128,-1,20
 118 1260 118 1260 112 1258 c 1,21,22
 99 1245 99 1245 97 1267 c 1,23,24
 77 1320 77 1320 77 1348 c 0,25,26
 77 1375 77 1375 85 1385 c 1,27,28
 210 1453 210 1453 368 1453 c 0,29,30
 418 1453 418 1453 462 1444 c 128,-1,31
 506 1435 506 1435 549 1412 c 128,-1,32
 592 1389 592 1389 622.5 1353 c 128,-1,33
 653 1317 653 1317 671.5 1258.5 c 128,-1,34
 690 1200 690 1200 690 1125 c 0,35,36
 690 1054 690 1054 670 987 c 128,-1,37
 650 920 650 920 616.5 863.5 c 128,-1,38
 583 807 583 807 542.5 750 c 128,-1,39
 502 693 502 693 458.5 631 c 128,-1,40
 415 569 415 569 376.5 503.5 c 128,-1,41
 338 438 338 438 307.5 353 c 128,-1,42
 277 268 277 268 264 175 c 1,43,44
 261 168 261 168 264.5 144 c 128,-1,45
 268 120 268 120 273 120 c 2,46,-1
 626 120 l 2,47,48
 644 120 644 120 644 77 c 2,49,-1
 644 41 l 2,50,51
 644 17 644 17 639.5 8.5 c 128,-1,52
 635 0 635 0 625 0 c 2,0,-1
EndSplineSet
EndChar

StartChar: three
Encoding: 51 51 22
Width: 675
GlyphClass: 2
Flags: W
LayerCount: 2
Fore
SplineSet
278 -14 m 0,0,1
 140 -14 140 -14 74 33 c 0,2,3
 68 38 68 38 64.5 55.5 c 128,-1,4
 61 73 61 73 61 82 c 0,5,6
 61 94 61 94 64 120.5 c 128,-1,7
 67 147 67 147 70 147 c 1,8,9
 71 159 71 159 73 164 c 128,-1,10
 75 169 75 169 81 164 c 1,11,12
 161 117 161 117 261 117 c 0,13,14
 367 117 367 117 416.5 184.5 c 128,-1,15
 466 252 466 252 466 395 c 0,16,17
 465 658 465 658 275 663 c 0,18,19
 268 664 268 664 239 664 c 0,20,21
 224 664 224 664 219 670.5 c 128,-1,22
 214 677 214 677 214 695 c 2,23,-1
 214 778 l 2,24,25
 214 802 214 802 239 802 c 0,26,27
 267 802 267 802 273 803 c 0,28,29
 367 806 367 806 410.5 868.5 c 128,-1,30
 454 931 454 931 454 1055 c 0,31,32
 454 1199 454 1199 409.5 1260 c 128,-1,33
 365 1321 365 1321 276 1321 c 0,34,35
 162 1321 162 1321 76 1271 c 1,36,37
 69 1265 69 1265 67 1280 c 2,38,-1
 66 1288 l 1,39,40
 63 1288 63 1288 59.5 1314 c 128,-1,41
 56 1340 56 1340 56 1349 c 0,42,43
 56 1359 56 1359 60.5 1376.5 c 128,-1,44
 65 1394 65 1394 72 1399 c 0,45,46
 160 1453 160 1453 294 1453 c 0,47,48
 361 1453 361 1453 414.5 1432.5 c 128,-1,49
 468 1412 468 1412 511 1368 c 128,-1,50
 554 1324 554 1324 577 1246.5 c 128,-1,51
 600 1169 600 1169 600 1062 c 0,52,53
 600 784 600 784 403 732 c 1,54,55
 609 690 609 690 609 366 c 0,56,57
 609 258 609 258 582 181 c 128,-1,58
 555 104 555 104 506.5 63 c 128,-1,59
 458 22 458 22 402 4 c 128,-1,60
 346 -14 346 -14 278 -14 c 0,0,1
EndSplineSet
EndChar

StartChar: four
Encoding: 52 52 23
Width: 853
GlyphClass: 2
Flags: W
LayerCount: 2
Fore
SplineSet
574 0 m 2,0,1
 555 0 555 0 546 12.5 c 128,-1,2
 537 25 537 25 537 56 c 2,3,-1
 537 283 l 1,4,-1
 150 283 l 2,5,6
 127 283 127 283 111 297.5 c 128,-1,7
 95 312 95 312 95 337 c 0,8,9
 95 345 95 345 96 350 c 2,10,-1
 236 1371 l 1,11,12
 242 1407 242 1407 249.5 1422.5 c 128,-1,13
 257 1438 257 1438 274 1438 c 2,14,-1
 336 1438 l 2,15,16
 368 1438 368 1438 368 1388 c 0,17,18
 368 1377 368 1377 367 1371 c 2,19,-1
 249 432 l 2,20,21
 248 423 248 423 252.5 414.5 c 128,-1,22
 257 406 257 406 268 406 c 2,23,-1
 537 406 l 1,24,-1
 537 1380 l 2,25,26
 537 1438 537 1438 574 1438 c 2,27,-1
 644 1438 l 2,28,29
 680 1438 680 1438 680 1380 c 2,30,-1
 680 406 l 1,31,-1
 805 406 l 2,32,33
 831 406 831 406 842 394 c 128,-1,34
 853 382 853 382 853 354 c 2,35,-1
 853 332 l 2,36,37
 853 305 853 305 842 294 c 128,-1,38
 831 283 831 283 805 283 c 2,39,-1
 680 283 l 1,40,-1
 680 56 l 2,41,42
 680 25 680 25 671.5 12.5 c 128,-1,43
 663 0 663 0 644 0 c 2,44,-1
 574 0 l 2,0,1
EndSplineSet
EndChar

StartChar: five
Encoding: 53 53 24
Width: 858
GlyphClass: 2
Flags: W
LayerCount: 2
Fore
SplineSet
409 -14 m 0,0,1
 333 -14 333 -14 254 4.5 c 128,-1,2
 175 23 175 23 142 44 c 0,3,4
 123 56 123 56 123 95 c 0,5,6
 123 119 123 119 127 149 c 128,-1,7
 131 179 131 179 141 179 c 0,8,9
 144 179 144 179 150 176 c 0,10,11
 310 119 310 119 408 119 c 0,12,13
 466 119 466 119 507 136 c 128,-1,14
 548 153 548 153 572 181 c 128,-1,15
 596 209 596 209 610 256.5 c 128,-1,16
 624 304 624 304 628.5 353.5 c 128,-1,17
 633 403 633 403 633 473 c 0,18,19
 633 517 633 517 630.5 552.5 c 128,-1,20
 628 588 628 588 621.5 629 c 128,-1,21
 615 670 615 670 601 700.5 c 128,-1,22
 587 731 587 731 566 757.5 c 128,-1,23
 545 784 545 784 512.5 797.5 c 128,-1,24
 480 811 480 811 437 811 c 0,25,26
 384 811 384 811 342 790 c 128,-1,27
 300 769 300 769 280 744 c 128,-1,28
 260 719 260 719 238.5 698 c 128,-1,29
 217 677 217 677 200 677 c 2,30,-1
 150 677 l 2,31,32
 135 677 135 677 131 693.5 c 128,-1,33
 127 710 127 710 126 745 c 0,34,35
 126 753 126 753 126 757 c 2,36,-1
 118 1370 l 1,37,-1
 118 1383 l 2,38,39
 118 1415 118 1415 131 1426.5 c 128,-1,40
 144 1438 144 1438 176 1438 c 2,41,-1
 703 1438 l 2,42,43
 727 1438 727 1438 727 1400 c 2,44,-1
 726 1337 l 1,45,46
 723 1294 723 1294 711 1294 c 2,47,-1
 282 1294 l 2,48,49
 255 1294 255 1294 247.5 1286.5 c 128,-1,50
 240 1279 240 1279 240 1252 c 2,51,-1
 239 809 l 1,52,53
 252 828 252 828 269 846 c 128,-1,54
 286 864 286 864 316 886 c 128,-1,55
 346 908 346 908 390 921.5 c 128,-1,56
 434 935 434 935 486 935 c 0,57,58
 641 935 641 935 710 813 c 128,-1,59
 779 691 779 691 779 465 c 0,60,61
 779 325 779 325 753 229 c 128,-1,62
 727 133 727 133 675.5 81 c 128,-1,63
 624 29 624 29 560 7.5 c 128,-1,64
 496 -14 496 -14 409 -14 c 0,0,1
EndSplineSet
EndChar

StartChar: six
Encoding: 54 54 25
Width: 822
GlyphClass: 2
Flags: W
LayerCount: 2
Fore
SplineSet
423 118 m 1,0,-1
 430 118 l 2,1,2
 485 118 485 118 519 145 c 128,-1,3
 553 172 553 172 572.5 246 c 128,-1,4
 592 320 592 320 592 448 c 0,5,6
 592 514 592 514 585.5 564.5 c 128,-1,7
 579 615 579 615 563.5 660 c 128,-1,8
 548 705 548 705 517 729 c 128,-1,9
 486 753 486 753 441 753 c 0,10,11
 366 753 366 753 261 707 c 1,12,-1
 261 615 l 2,13,14
 261 431 261 431 277.5 323 c 128,-1,15
 294 215 294 215 329 167 c 128,-1,16
 364 119 364 119 423 118 c 1,0,-1
99 702 m 0,17,18
 99 980 99 980 137 1144.5 c 128,-1,19
 175 1309 175 1309 253 1381 c 128,-1,20
 331 1453 331 1453 461 1453 c 0,21,22
 523 1453 523 1453 586 1432.5 c 128,-1,23
 649 1412 649 1412 678 1386 c 0,24,25
 684 1381 684 1381 688 1366 c 128,-1,26
 692 1351 692 1351 692 1344 c 1,27,28
 693 1340 693 1340 690 1312.5 c 128,-1,29
 687 1285 687 1285 685 1282 c 1,30,31
 682 1264 682 1264 676.5 1257.5 c 128,-1,32
 671 1251 671 1251 662 1258 c 0,33,34
 571 1320 571 1320 487 1320 c 0,35,36
 411 1320 411 1320 363 1279.5 c 128,-1,37
 315 1239 315 1239 288.5 1138.5 c 128,-1,38
 262 1038 262 1038 262 871 c 2,39,-1
 262 840 l 1,40,41
 382 887 382 887 450 887 c 0,42,43
 748 887 748 887 748 432 c 0,44,45
 748 325 748 325 731.5 245.5 c 128,-1,46
 715 166 715 166 687 117 c 128,-1,47
 659 68 659 68 616.5 38 c 128,-1,48
 574 8 574 8 528.5 -3 c 128,-1,49
 483 -14 483 -14 424 -14 c 0,50,51
 248 -14 248 -14 173.5 157 c 128,-1,52
 99 328 99 328 99 702 c 0,17,18
EndSplineSet
EndChar

StartChar: seven
Encoding: 55 55 26
Width: 556
GlyphClass: 2
Flags: W
LayerCount: 2
Fore
SplineSet
202 0 m 2,0,1
 178 0 178 0 178 44 c 0,2,3
 178 54 178 54 179 59 c 2,4,-1
 326 1259 l 2,5,6
 328 1280 328 1280 315 1280 c 2,7,-1
 114 1280 l 2,8,9
 89 1280 89 1280 89 1320 c 2,10,-1
 89 1401 l 2,11,12
 89 1438 89 1438 114 1438 c 2,13,-1
 474 1438 l 2,14,15
 497 1438 497 1438 497 1393 c 2,16,-1
 497 1380 l 1,17,-1
 336 59 l 2,18,19
 329 0 329 0 310 0 c 2,20,-1
 202 0 l 2,0,1
EndSplineSet
EndChar

StartChar: eight
Encoding: 56 56 27
Width: 832
GlyphClass: 2
Flags: W
LayerCount: 2
Fore
SplineSet
418 137 m 128,-1,1
 505 137 505 137 548 201.5 c 128,-1,2
 591 266 591 266 591 431 c 0,3,4
 591 503 591 503 579.5 548 c 128,-1,5
 568 593 568 593 531.5 623.5 c 128,-1,6
 495 654 495 654 463.5 668.5 c 128,-1,7
 432 683 432 683 356 710 c 0,8,9
 322 722 322 722 303 729 c 1,10,11
 278 686 278 686 259 597 c 128,-1,12
 240 508 240 508 240 440 c 0,13,14
 240 275 240 275 285.5 206 c 128,-1,0
 331 137 331 137 418 137 c 128,-1,1
417 -14 m 128,-1,16
 363 -14 363 -14 319.5 -3.5 c 128,-1,17
 276 7 276 7 234 36.5 c 128,-1,18
 192 66 192 66 164 113.5 c 128,-1,19
 136 161 136 161 119 239.5 c 128,-1,20
 102 318 102 318 102 422 c 0,21,22
 102 542 102 542 138 643 c 128,-1,23
 174 744 174 744 218 788 c 1,24,25
 130 870 130 870 130 1065 c 0,26,27
 130 1272 130 1272 208.5 1362.5 c 128,-1,28
 287 1453 287 1453 417 1453 c 0,29,30
 699 1453 699 1453 699 1053 c 0,31,32
 699 957 699 957 672 872.5 c 128,-1,33
 645 788 645 788 611 745 c 1,34,35
 731 653 731 653 731 414 c 0,36,37
 731 313 731 313 714 236.5 c 128,-1,38
 697 160 697 160 669.5 113 c 128,-1,39
 642 66 642 66 600.5 37 c 128,-1,40
 559 8 559 8 515 -3 c 128,-1,15
 471 -14 471 -14 417 -14 c 128,-1,16
520 796 m 1,41,42
 536 822 536 822 554 898.5 c 128,-1,43
 572 975 572 975 572 1047 c 0,44,45
 572 1328 572 1328 418 1328 c 0,46,47
 341 1328 341 1328 301.5 1264 c 128,-1,48
 262 1200 262 1200 262 1058 c 0,49,50
 262 989 262 989 273.5 947 c 128,-1,51
 285 905 285 905 317.5 876 c 128,-1,52
 350 847 350 847 394.5 830.5 c 128,-1,53
 439 814 439 814 520 796 c 1,41,42
EndSplineSet
EndChar

StartChar: nine
Encoding: 57 57 28
Width: 823
GlyphClass: 2
Flags: W
LayerCount: 2
Fore
SplineSet
406 677 m 0,0,1
 495 677 495 677 565 735 c 1,2,-1
 565 901 l 2,3,4
 565 1135 565 1135 528.5 1230.5 c 128,-1,5
 492 1326 492 1326 410 1326 c 0,6,7
 257 1326 257 1326 257 989 c 0,8,9
 257 838 257 838 291 757.5 c 128,-1,10
 325 677 325 677 406 677 c 0,0,1
386 -14 m 0,11,12
 333 -14 333 -14 264 11 c 128,-1,13
 195 36 195 36 165 67 c 0,14,15
 154 77 154 77 154 114 c 1,16,-1
 158 176 l 2,17,18
 159 188 159 188 161 195.5 c 128,-1,19
 163 203 163 203 165 205.5 c 128,-1,20
 167 208 167 208 170.5 207.5 c 128,-1,21
 174 207 174 207 176 206 c 128,-1,22
 178 205 178 205 182 202 c 0,23,24
 207 180 207 180 263 155 c 128,-1,25
 319 130 319 130 381 130 c 0,26,27
 479 130 479 130 520.5 222 c 128,-1,28
 562 314 562 314 562 525 c 2,29,-1
 562 601 l 1,30,31
 480 541 480 541 397 541 c 0,32,33
 243 541 243 541 171 662.5 c 128,-1,34
 99 784 99 784 99 997 c 0,35,36
 99 1127 99 1127 122 1218 c 128,-1,37
 145 1309 145 1309 189.5 1359.5 c 128,-1,38
 234 1410 234 1410 288 1431.5 c 128,-1,39
 342 1453 342 1453 413 1453 c 0,40,41
 529 1453 529 1453 596 1384.5 c 128,-1,42
 663 1316 663 1316 694.5 1159.5 c 128,-1,43
 726 1003 726 1003 726 732 c 0,44,45
 726 510 726 510 706 364 c 128,-1,46
 686 218 686 218 642 135 c 128,-1,47
 598 52 598 52 537.5 19 c 128,-1,48
 477 -14 477 -14 386 -14 c 0,11,12
EndSplineSet
EndChar

StartChar: colon
Encoding: 58 58 29
Width: 326
GlyphClass: 2
Flags: W
LayerCount: 2
Fore
SplineSet
126 710 m 2,0,1
 115 710 115 710 107.5 728.5 c 128,-1,2
 100 747 100 747 100 778 c 2,3,-1
 100 963 l 2,4,5
 100 994 100 994 107.5 1012.5 c 128,-1,6
 115 1031 115 1031 126 1031 c 2,7,-1
 202 1031 l 2,8,9
 228 1031 228 1031 228 963 c 2,10,-1
 228 778 l 2,11,12
 228 710 228 710 202 710 c 2,13,-1
 126 710 l 2,0,1
126 0 m 2,14,15
 115 0 115 0 107.5 18.5 c 128,-1,16
 100 37 100 37 100 68 c 2,17,-1
 100 253 l 2,18,19
 100 284 100 284 107.5 302.5 c 128,-1,20
 115 321 115 321 126 321 c 2,21,-1
 202 321 l 2,22,23
 228 321 228 321 228 253 c 2,24,-1
 228 68 l 2,25,26
 228 0 228 0 202 0 c 2,27,-1
 126 0 l 2,14,15
EndSplineSet
EndChar

StartChar: semicolon
Encoding: 59 59 30
Width: 337
GlyphClass: 2
Flags: W
LayerCount: 2
Fore
SplineSet
130 710 m 2,0,1
 119 710 119 710 112 728.5 c 128,-1,2
 105 747 105 747 105 778 c 2,3,-1
 105 963 l 2,4,5
 105 994 105 994 112 1012.5 c 128,-1,6
 119 1031 119 1031 130 1031 c 2,7,-1
 218 1031 l 2,8,9
 244 1031 244 1031 244 963 c 2,10,-1
 244 778 l 2,11,12
 244 710 244 710 218 710 c 2,13,-1
 130 710 l 2,0,1
124 -319 m 0,14,15
 122 -320 122 -320 119 -320 c 0,16,17
 100 -320 100 -320 100 -274 c 2,18,-1
 100 -260 l 2,19,20
 100 -248 100 -248 100 -240 c 128,-1,21
 100 -232 100 -232 101 -225.5 c 128,-1,22
 102 -219 102 -219 102.5 -215.5 c 128,-1,23
 103 -212 103 -212 106 -207.5 c 128,-1,24
 109 -203 109 -203 110 -201 c 128,-1,25
 111 -199 111 -199 115.5 -193.5 c 128,-1,26
 120 -188 120 -188 122 -185 c 0,27,28
 142 -157 142 -157 153.5 -110 c 128,-1,29
 165 -63 165 -63 165 -27 c 0,30,31
 165 0 165 0 159 0 c 2,32,-1
 121 0 l 2,33,34
 100 0 100 0 100 55 c 2,35,-1
 100 250 l 2,36,37
 100 311 100 311 121 311 c 2,38,-1
 225 311 l 2,39,40
 236 311 236 311 243.5 292.5 c 128,-1,41
 251 274 251 274 251 243 c 2,42,-1
 251 64 l 2,43,44
 251 -97 251 -97 210 -197 c 128,-1,45
 169 -297 169 -297 124 -319 c 0,14,15
EndSplineSet
EndChar

StartChar: less
Encoding: 60 60 31
Width: 895
GlyphClass: 2
Flags: W
LayerCount: 2
Fore
SplineSet
484 132 m 0,0,1
 478 132 478 132 462 146 c 1,2,-1
 176 506 l 2,3,4
 157 529 157 529 149 540 c 128,-1,5
 141 551 141 551 135 568 c 128,-1,6
 129 585 129 585 129 606 c 2,7,-1
 129 641 l 2,8,9
 129 648 129 648 129.5 654 c 128,-1,10
 130 660 130 660 130.5 664.5 c 128,-1,11
 131 669 131 669 133.5 675 c 128,-1,12
 136 681 136 681 137 684 c 128,-1,13
 138 687 138 687 141.5 693 c 128,-1,14
 145 699 145 699 146.5 701 c 128,-1,15
 148 703 148 703 153.5 710 c 128,-1,16
 159 717 159 717 160 719 c 128,-1,17
 161 721 161 721 168 729.5 c 128,-1,18
 175 738 175 738 177 740 c 2,19,-1
 462 1120 l 1,20,21
 472 1131 472 1131 484 1131 c 0,22,23
 510 1131 510 1131 510 1088 c 2,24,-1
 510 1045 l 2,25,26
 510 1023 510 1023 503.5 1005.5 c 128,-1,27
 497 988 497 988 492 981.5 c 128,-1,28
 487 975 487 975 470 953 c 2,29,-1
 241 639 l 2,30,31
 234 631 234 631 234 622 c 128,-1,32
 234 613 234 613 241 606 c 1,33,-1
 469 311 l 2,34,35
 472 308 472 308 479 300 c 128,-1,36
 486 292 486 292 488 289 c 128,-1,37
 490 286 490 286 495 279.5 c 128,-1,38
 500 273 500 273 501.5 268.5 c 128,-1,39
 503 264 503 264 506 257 c 128,-1,40
 509 250 509 250 509.5 242 c 128,-1,41
 510 234 510 234 510 225 c 2,42,-1
 510 172 l 2,43,44
 510 154 510 154 503 143 c 128,-1,45
 496 132 496 132 484 132 c 0,0,1
EndSplineSet
EndChar

StartChar: equal
Encoding: 61 61 32
Width: 520
GlyphClass: 2
Flags: W
LayerCount: 2
Fore
SplineSet
71 622 m 2,0,1
 58 622 58 622 53 629 c 128,-1,2
 48 636 48 636 48 666 c 2,3,-1
 48 696 l 2,4,5
 48 726 48 726 53 733.5 c 128,-1,6
 58 741 58 741 71 741 c 2,7,-1
 449 741 l 2,8,9
 462 741 462 741 467 733.5 c 128,-1,10
 472 726 472 726 472 696 c 2,11,-1
 472 666 l 2,12,13
 472 636 472 636 467 629 c 128,-1,14
 462 622 462 622 449 622 c 2,15,-1
 71 622 l 2,0,1
71 347 m 2,16,17
 58 347 58 347 53 354 c 128,-1,18
 48 361 48 361 48 391 c 2,19,-1
 48 421 l 2,20,21
 48 451 48 451 53 458.5 c 128,-1,22
 58 466 58 466 71 466 c 2,23,-1
 449 466 l 2,24,25
 462 466 462 466 467 458.5 c 128,-1,26
 472 451 472 451 472 421 c 2,27,-1
 472 391 l 2,28,29
 472 361 472 361 467 354 c 128,-1,30
 462 347 462 347 449 347 c 2,31,-1
 71 347 l 2,16,17
EndSplineSet
EndChar

StartChar: greater
Encoding: 62 62 33
Width: 895
GlyphClass: 2
Flags: W
LayerCount: 2
Fore
SplineSet
156 132 m 0,0,1
 144 132 144 132 136.5 144 c 128,-1,2
 129 156 129 156 129 175 c 2,3,-1
 129 218 l 2,4,5
 129 240 129 240 135.5 257 c 128,-1,6
 142 274 142 274 147.5 281.5 c 128,-1,7
 153 289 153 289 170 310 c 1,8,-1
 399 624 l 2,9,10
 405 632 405 632 405 641 c 128,-1,11
 405 650 405 650 398 657 c 1,12,-1
 170 952 l 2,13,14
 168 954 168 954 162 960.5 c 128,-1,15
 156 967 156 967 154.5 969 c 128,-1,16
 153 971 153 971 148.5 976.5 c 128,-1,17
 144 982 144 982 142.5 984.5 c 128,-1,18
 141 987 141 987 138 992.5 c 128,-1,19
 135 998 135 998 134 1002 c 128,-1,20
 133 1006 133 1006 131.5 1012 c 128,-1,21
 130 1018 130 1018 129.5 1024.5 c 128,-1,22
 129 1031 129 1031 129 1038 c 2,23,-1
 129 1091 l 2,24,25
 129 1108 129 1108 136.5 1119.5 c 128,-1,26
 144 1131 144 1131 155 1131 c 0,27,28
 161 1131 161 1131 177 1117 c 1,29,-1
 464 757 l 2,30,31
 483 734 483 734 490.5 723.5 c 128,-1,32
 498 713 498 713 504 695.5 c 128,-1,33
 510 678 510 678 510 657 c 2,34,-1
 510 622 l 2,35,36
 510 615 510 615 509.5 608.5 c 128,-1,37
 509 602 509 602 507.5 596 c 128,-1,38
 506 590 506 590 505 585.5 c 128,-1,39
 504 581 504 581 500 574.5 c 128,-1,40
 496 568 496 568 495 565.5 c 128,-1,41
 494 563 494 563 488.5 555.5 c 128,-1,42
 483 548 483 548 481 546 c 128,-1,43
 479 544 479 544 472 535 c 128,-1,44
 465 526 465 526 463 523 c 2,45,-1
 178 143 l 1,46,47
 167 132 167 132 156 132 c 0,0,1
EndSplineSet
EndChar

StartChar: question
Encoding: 63 63 34
Width: 755
GlyphClass: 2
Flags: W
LayerCount: 2
Fore
SplineSet
245 0 m 2,0,1
 227 0 227 0 215.5 16 c 128,-1,2
 204 32 204 32 204 60 c 2,3,-1
 204 146 l 2,4,5
 204 175 204 175 215.5 190.5 c 128,-1,6
 227 206 227 206 245 206 c 2,7,-1
 328 206 l 2,8,9
 369 206 369 206 369 146 c 2,10,-1
 369 60 l 2,11,12
 369 31 369 31 357.5 15.5 c 128,-1,13
 346 0 346 0 328 0 c 2,14,-1
 245 0 l 2,0,1
262 503 m 1,15,16
 237 543 237 543 235 557 c 1,17,18
 222 576 222 576 241 602 c 1,19,20
 277 686 277 686 310 723.5 c 128,-1,21
 343 761 343 761 419 812 c 0,22,23
 490 859 490 859 526.5 928 c 128,-1,24
 563 997 563 997 563 1077 c 0,25,26
 562 1187 562 1187 502.5 1253 c 128,-1,27
 443 1319 443 1319 353 1319 c 0,28,29
 241 1319 241 1319 136 1248 c 0,30,31
 120 1237 120 1237 107 1266 c 1,32,33
 99 1266 99 1266 88.5 1294 c 128,-1,34
 78 1322 78 1322 78 1334 c 0,35,36
 78 1366 78 1366 105 1380 c 1,37,38
 231 1459 231 1459 356 1459 c 0,39,40
 505 1459 505 1459 598 1363.5 c 128,-1,41
 691 1268 691 1268 695 1080 c 1,42,43
 695 953 695 953 620 850 c 128,-1,44
 545 747 545 747 430 682 c 0,45,46
 383 655 383 655 356.5 616 c 128,-1,47
 330 577 330 577 302 511 c 1,48,49
 289 494 289 494 279 494 c 0,50,51
 270 494 270 494 262 503 c 1,15,16
EndSplineSet
EndChar

StartChar: at
Encoding: 64 64 35
Width: 1326
GlyphClass: 2
Flags: W
LayerCount: 2
Fore
SplineSet
659 319 m 0,0,1
 744 319 744 319 797.5 405 c 128,-1,2
 851 491 851 491 851 652 c 0,3,4
 851 811 851 811 798 899.5 c 128,-1,5
 745 988 745 988 661 988 c 0,6,7
 571 988 571 988 523.5 901.5 c 128,-1,8
 476 815 476 815 476 654 c 0,9,10
 476 491 476 491 523 405 c 128,-1,11
 570 319 570 319 659 319 c 0,0,1
688 -141 m 0,12,13
 561 -141 561 -141 458.5 -98.5 c 128,-1,14
 356 -56 356 -56 286.5 18.5 c 128,-1,15
 217 93 217 93 170 197 c 128,-1,16
 123 301 123 301 101.5 420 c 128,-1,17
 80 539 80 539 80 674 c 0,18,19
 80 786 80 786 94.5 887 c 128,-1,20
 109 988 109 988 138.5 1081 c 128,-1,21
 168 1174 168 1174 216 1249 c 128,-1,22
 264 1324 264 1324 328.5 1379.5 c 128,-1,23
 393 1435 393 1435 480.5 1465 c 128,-1,24
 568 1495 568 1495 672 1495 c 0,25,26
 805 1495 805 1495 906.5 1453.5 c 128,-1,27
 1008 1412 1008 1412 1072.5 1341 c 128,-1,28
 1137 1270 1137 1270 1177.5 1166.5 c 128,-1,29
 1218 1063 1218 1063 1234.5 949.5 c 128,-1,30
 1251 836 1251 836 1251 699 c 0,31,32
 1251 463 1251 463 1194.5 348 c 128,-1,33
 1138 233 1138 233 1051 233 c 0,34,35
 922 233 922 233 907 427 c 1,36,37
 903 464 903 464 897 464 c 0,38,39
 893 464 893 464 886 434 c 1,40,41
 854 327 854 327 795.5 272 c 128,-1,42
 737 217 737 217 643 217 c 0,43,44
 519 217 519 217 441 329.5 c 128,-1,45
 363 442 363 442 363 660 c 0,46,47
 363 873 363 873 440 985 c 128,-1,48
 517 1097 517 1097 639 1097 c 0,49,50
 729 1097 729 1097 789.5 1038 c 128,-1,51
 850 979 850 979 876 874 c 0,52,53
 877 869 877 869 879.5 863 c 128,-1,54
 882 857 882 857 884 857 c 0,55,56
 887 857 887 857 889 870 c 2,57,-1
 901 1004 l 1,58,59
 905 1030 905 1030 913.5 1040.5 c 128,-1,60
 922 1051 922 1051 938 1051 c 2,61,-1
 946 1051 l 2,62,63
 959 1051 959 1051 967 1036.5 c 128,-1,64
 975 1022 975 1022 975 998 c 2,65,-1
 975 495 l 2,66,67
 975 394 975 394 993.5 358 c 128,-1,68
 1012 322 1012 322 1050 322 c 0,69,70
 1142 322 1142 322 1142 699 c 0,71,72
 1142 822 1142 822 1129 921.5 c 128,-1,73
 1116 1021 1116 1021 1083.5 1110.5 c 128,-1,74
 1051 1200 1051 1200 999 1260.5 c 128,-1,75
 947 1321 947 1321 865 1356 c 128,-1,76
 783 1391 783 1391 675 1391 c 0,77,78
 572 1391 572 1391 489 1350 c 128,-1,79
 406 1309 406 1309 352 1241 c 128,-1,80
 298 1173 298 1173 262 1079 c 128,-1,81
 226 985 226 985 210.5 883.5 c 128,-1,82
 195 782 195 782 195 670 c 128,-1,83
 195 558 195 558 209 459.5 c 128,-1,84
 223 361 223 361 259 266.5 c 128,-1,85
 295 172 295 172 350.5 105 c 128,-1,86
 406 38 406 38 494.5 -3 c 128,-1,87
 583 -44 583 -44 697 -44 c 0,88,89
 820 -44 820 -44 948 20 c 1,90,-1
 950 20 l 2,91,92
 959 20 959 20 971 -7 c 128,-1,93
 983 -34 983 -34 983 -53 c 0,94,95
 983 -64 983 -64 978 -67 c 0,96,97
 923 -98 923 -98 843 -119.5 c 128,-1,98
 763 -141 763 -141 688 -141 c 0,12,13
EndSplineSet
EndChar

StartChar: A
Encoding: 65 65 36
Width: 796
GlyphClass: 2
Flags: W
LayerCount: 2
Fore
SplineSet
282 436 m 2,0,-1
 515 436 l 2,1,2
 520 436 520 436 520 450 c 0,3,4
 520 456 520 456 518 457 c 1,5,-1
 402 1252 l 1,6,7
 400 1258 l 1,8,9
 397 1258 397 1258 397 1253 c 2,10,-1
 270 460 l 2,11,12
 269 456 269 456 269 451 c 0,13,14
 269 436 269 436 282 436 c 2,0,-1
70 0 m 2,15,16
 55 0 55 0 55 30 c 2,17,-1
 55 44 l 2,18,19
 55 54 55 54 56 60 c 2,20,-1
 291 1386 l 2,21,22
 301 1438 301 1438 327 1438 c 2,23,-1
 482 1438 l 2,24,25
 509 1438 509 1438 518 1386 c 2,26,-1
 745 60 l 2,27,28
 745 55 745 55 747.5 44.5 c 128,-1,29
 750 34 750 34 750 29 c 0,30,31
 750 0 750 0 734 0 c 2,32,-1
 610 0 l 2,33,34
 583 0 583 0 576 45 c 2,35,-1
 535 314 l 1,36,37
 531 331 531 331 526 331 c 2,38,-1
 252 331 l 2,39,40
 248 331 248 331 244 313 c 2,41,-1
 198 45 l 2,42,43
 193 18 193 18 186 9 c 128,-1,44
 179 0 179 0 167 0 c 2,45,-1
 70 0 l 2,15,16
EndSplineSet
EndChar

StartChar: B
Encoding: 66 66 37
Width: 881
GlyphClass: 2
Flags: W
LayerCount: 2
Fore
SplineSet
286 821 m 2,0,-1
 491 821 l 2,1,2
 554 821 554 821 592.5 878.5 c 128,-1,3
 631 936 631 936 631 1038 c 0,4,5
 631 1311 631 1311 448 1311 c 2,6,-1
 286 1311 l 2,7,8
 273 1311 273 1311 273 1290 c 2,9,-1
 273 840 l 2,10,11
 273 821 273 821 286 821 c 2,0,-1
286 123 m 2,12,-1
 443 123 l 2,13,14
 553 123 553 123 607 201 c 128,-1,15
 661 279 661 279 661 423 c 0,16,17
 661 547 661 547 611 624 c 128,-1,18
 561 701 561 701 484 701 c 2,19,-1
 286 701 l 2,20,21
 273 701 273 701 273 678 c 2,22,-1
 273 141 l 2,23,24
 273 129 273 129 276 126 c 128,-1,25
 279 123 279 123 286 123 c 2,12,-1
139 0 m 2,26,27
 130 0 130 0 125 2 c 128,-1,28
 120 4 120 4 116 13.5 c 128,-1,29
 112 23 112 23 112 42 c 2,30,-1
 112 1395 l 2,31,32
 112 1423 112 1423 118.5 1430.5 c 128,-1,33
 125 1438 125 1438 139 1438 c 2,34,-1
 483 1438 l 2,35,36
 780 1438 780 1438 780 1042 c 0,37,38
 780 853 780 853 680 779 c 0,39,40
 671 772 671 772 671 768 c 0,41,42
 671 762 671 762 681 758 c 1,43,44
 817 666 817 666 817 424 c 0,45,46
 817 303 817 303 793 219.5 c 128,-1,47
 769 136 769 136 722 88.5 c 128,-1,48
 675 41 675 41 612.5 20.5 c 128,-1,49
 550 0 550 0 464 0 c 2,50,-1
 139 0 l 2,26,27
EndSplineSet
EndChar

StartChar: C
Encoding: 67 67 38
Width: 699
GlyphClass: 2
Flags: W
LayerCount: 2
Fore
SplineSet
475 -14 m 0,0,1
 438 -14 438 -14 410 -11.5 c 128,-1,2
 382 -9 382 -9 347.5 0 c 128,-1,3
 313 9 313 9 287 24.5 c 128,-1,4
 261 40 261 40 233 67.5 c 128,-1,5
 205 95 205 95 184.5 133 c 128,-1,6
 164 171 164 171 145 226.5 c 128,-1,7
 126 282 126 282 114 352 c 128,-1,8
 102 422 102 422 95 515 c 128,-1,9
 88 608 88 608 88 720 c 0,10,11
 88 858 88 858 99.5 968.5 c 128,-1,12
 111 1079 111 1079 130.5 1155 c 128,-1,13
 150 1231 150 1231 180.5 1286.5 c 128,-1,14
 211 1342 211 1342 242.5 1373.5 c 128,-1,15
 274 1405 274 1405 317 1423.5 c 128,-1,16
 360 1442 360 1442 397 1447.5 c 128,-1,17
 434 1453 434 1453 482 1453 c 0,18,19
 572 1453 572 1453 630 1427 c 0,20,21
 631 1426 631 1426 634 1424 c 128,-1,22
 637 1422 637 1422 639 1418.5 c 128,-1,23
 641 1415 641 1415 641 1409 c 2,24,-1
 641 1312 l 2,25,26
 641 1300 641 1300 634 1300 c 0,27,28
 633 1300 633 1300 626 1302 c 128,-1,29
 619 1304 619 1304 607.5 1307 c 128,-1,30
 596 1310 596 1310 581 1313.5 c 128,-1,31
 566 1317 566 1317 546.5 1319 c 128,-1,32
 527 1321 527 1321 509 1321 c 0,33,34
 462 1321 462 1321 427.5 1310.5 c 128,-1,35
 393 1300 393 1300 357.5 1263.5 c 128,-1,36
 322 1227 322 1227 299.5 1163 c 128,-1,37
 277 1099 277 1099 263 987.5 c 128,-1,38
 249 876 249 876 249 720 c 0,39,40
 249 562 249 562 261 450.5 c 128,-1,41
 273 339 273 339 292.5 274.5 c 128,-1,42
 312 210 312 210 345.5 174 c 128,-1,43
 379 138 379 138 412 127.5 c 128,-1,44
 445 117 445 117 493 117 c 0,45,46
 566 117 566 117 620 136 c 0,47,48
 621 136 621 136 624.5 128.5 c 128,-1,49
 628 121 628 121 628 119 c 2,50,-1
 628 25 l 2,51,52
 628 23 628 23 624.5 15.5 c 128,-1,53
 621 8 621 8 620 7 c 0,54,55
 564 -14 564 -14 475 -14 c 0,0,1
EndSplineSet
EndChar

StartChar: D
Encoding: 68 68 39
Width: 919
GlyphClass: 2
Flags: W
LayerCount: 2
Fore
SplineSet
136 0 m 2,0,1
 124 0 124 0 118 8 c 128,-1,2
 112 16 112 16 112 42 c 2,3,-1
 112 1402 l 2,4,5
 112 1424 112 1424 118 1431 c 128,-1,6
 124 1438 124 1438 136 1438 c 2,7,-1
 462 1438 l 2,8,9
 534 1438 534 1438 589.5 1417 c 128,-1,10
 645 1396 645 1396 691.5 1346 c 128,-1,11
 738 1296 738 1296 768.5 1215.5 c 128,-1,12
 799 1135 799 1135 815.5 1012.5 c 128,-1,13
 832 890 832 890 832 726 c 0,14,15
 832 589 832 589 824 484 c 128,-1,16
 816 379 816 379 801.5 302 c 128,-1,17
 787 225 787 225 761.5 171.5 c 128,-1,18
 736 118 736 118 707 84.5 c 128,-1,19
 678 51 678 51 635 32 c 128,-1,20
 592 13 592 13 548.5 6.5 c 128,-1,21
 505 0 505 0 444 0 c 2,22,-1
 136 0 l 2,0,1
285 128 m 2,23,-1
 438 128 l 2,24,25
 530 128 530 128 579 179.5 c 128,-1,26
 628 231 628 231 650 358 c 128,-1,27
 672 485 672 485 672 725 c 0,28,29
 672 942 672 942 647 1071 c 128,-1,30
 622 1200 622 1200 573 1255 c 128,-1,31
 524 1310 524 1310 443 1310 c 2,32,-1
 284 1310 l 2,33,34
 273 1310 273 1310 273 1290 c 2,35,-1
 273 150 l 2,36,37
 273 128 273 128 285 128 c 2,23,-1
EndSplineSet
EndChar

StartChar: E
Encoding: 69 69 40
Width: 724
GlyphClass: 2
Flags: W
LayerCount: 2
Fore
SplineSet
136 0 m 2,0,1
 128 0 128 0 123.5 2 c 128,-1,2
 119 4 119 4 115.5 12.5 c 128,-1,3
 112 21 112 21 112 39 c 2,4,-1
 112 1399 l 2,5,6
 112 1423 112 1423 118 1430.5 c 128,-1,7
 124 1438 124 1438 136 1438 c 2,8,-1
 636 1438 l 2,9,10
 644 1438 644 1438 648.5 1436.5 c 128,-1,11
 653 1435 653 1435 656.5 1426.5 c 128,-1,12
 660 1418 660 1418 660 1402 c 2,13,-1
 660 1346 l 2,14,15
 660 1329 660 1329 656.5 1321 c 128,-1,16
 653 1313 653 1313 649 1311.5 c 128,-1,17
 645 1310 645 1310 636 1310 c 2,18,-1
 284 1310 l 2,19,20
 273 1310 273 1310 273 1279 c 2,21,-1
 273 824 l 2,22,23
 273 817 273 817 276 809.5 c 128,-1,24
 279 802 279 802 281 802 c 2,25,-1
 574 802 l 2,26,27
 586 802 586 802 592 794 c 128,-1,28
 598 786 598 786 598 763 c 2,29,-1
 598 708 l 2,30,31
 598 684 598 684 592 675.5 c 128,-1,32
 586 667 586 667 574 667 c 2,33,-1
 282 667 l 2,34,35
 279 667 279 667 276 657.5 c 128,-1,36
 273 648 273 648 273 641 c 2,37,-1
 273 128 l 1,38,-1
 639 128 l 2,39,40
 648 128 648 128 652 126.5 c 128,-1,41
 656 125 656 125 659.5 117 c 128,-1,42
 663 109 663 109 663 92 c 2,43,-1
 663 36 l 2,44,45
 663 13 663 13 657.5 6.5 c 128,-1,46
 652 0 652 0 639 0 c 2,47,-1
 136 0 l 2,0,1
EndSplineSet
EndChar

StartChar: F
Encoding: 70 70 41
Width: 661
GlyphClass: 2
Flags: W
LayerCount: 2
Fore
SplineSet
136 0 m 2,0,1
 128 0 128 0 123.5 2 c 128,-1,2
 119 4 119 4 115.5 12.5 c 128,-1,3
 112 21 112 21 112 39 c 2,4,-1
 112 1399 l 2,5,6
 112 1423 112 1423 118 1430.5 c 128,-1,7
 124 1438 124 1438 136 1438 c 2,8,-1
 607 1438 l 2,9,10
 615 1438 615 1438 619.5 1436.5 c 128,-1,11
 624 1435 624 1435 627.5 1426.5 c 128,-1,12
 631 1418 631 1418 631 1402 c 2,13,-1
 631 1346 l 2,14,15
 631 1329 631 1329 627.5 1321 c 128,-1,16
 624 1313 624 1313 620 1311.5 c 128,-1,17
 616 1310 616 1310 607 1310 c 2,18,-1
 284 1310 l 2,19,20
 273 1310 273 1310 273 1284 c 2,21,-1
 273 803 l 2,22,23
 273 787 273 787 281 787 c 2,24,-1
 552 787 l 2,25,26
 565 787 565 787 570.5 781 c 128,-1,27
 576 775 576 775 576 752 c 2,28,-1
 576 688 l 2,29,30
 576 671 576 671 572.5 663 c 128,-1,31
 569 655 569 655 565 653.5 c 128,-1,32
 561 652 561 652 552 652 c 2,33,-1
 282 652 l 2,34,35
 279 652 279 652 276 644 c 128,-1,36
 273 636 273 636 273 629 c 2,37,-1
 273 39 l 2,38,39
 273 14 273 14 267.5 7 c 128,-1,40
 262 0 262 0 249 0 c 2,41,-1
 136 0 l 2,0,1
EndSplineSet
EndChar

StartChar: G
Encoding: 71 71 42
Width: 882
GlyphClass: 2
Flags: W
LayerCount: 2
Fore
SplineSet
773 -16 m 0,0,1
 740 -16 740 -16 729 43 c 0,2,3
 729 47 729 47 718.5 124.5 c 128,-1,4
 708 202 708 202 708 219 c 0,5,6
 708 228 708 228 705 228 c 0,7,8
 701 228 701 228 699 220 c 0,9,10
 682 108 682 108 623.5 47 c 128,-1,11
 565 -14 565 -14 475 -14 c 0,12,13
 431 -14 431 -14 395 -8 c 128,-1,14
 359 -2 359 -2 318 17 c 128,-1,15
 277 36 277 36 245.5 68 c 128,-1,16
 214 100 214 100 184 156 c 128,-1,17
 154 212 154 212 134.5 287.5 c 128,-1,18
 115 363 115 363 103 473 c 128,-1,19
 91 583 91 583 91 720 c 0,20,21
 91 863 91 863 105 975.5 c 128,-1,22
 119 1088 119 1088 141.5 1164 c 128,-1,23
 164 1240 164 1240 200.5 1295 c 128,-1,24
 237 1350 237 1350 272.5 1380 c 128,-1,25
 308 1410 308 1410 358.5 1427 c 128,-1,26
 409 1444 409 1444 449 1448.5 c 128,-1,27
 489 1453 489 1453 544 1453 c 0,28,29
 633 1453 633 1453 709 1422 c 0,30,31
 710 1421 710 1421 713.5 1418.5 c 128,-1,32
 717 1416 717 1416 719 1413 c 128,-1,33
 721 1410 721 1410 721 1404 c 2,34,-1
 721 1306 l 2,35,36
 721 1294 721 1294 714 1294 c 1,37,-1
 704 1297 l 2,38,39
 693 1300 693 1300 676.5 1304 c 128,-1,40
 660 1308 660 1308 640.5 1311.5 c 128,-1,41
 621 1315 621 1315 597.5 1318 c 128,-1,42
 574 1321 574 1321 554 1321 c 0,43,44
 499 1321 499 1321 460.5 1311.5 c 128,-1,45
 422 1302 422 1302 380 1266 c 128,-1,46
 338 1230 338 1230 312 1167 c 128,-1,47
 286 1104 286 1104 269 991 c 128,-1,48
 252 878 252 878 252 720 c 0,49,50
 252 570 252 570 265 459.5 c 128,-1,51
 278 349 278 349 299 284 c 128,-1,52
 320 219 320 219 352 180 c 128,-1,53
 384 141 384 141 416.5 128 c 128,-1,54
 449 115 449 115 490 115 c 0,55,56
 542 115 542 115 576 146 c 128,-1,57
 610 177 610 177 628 239.5 c 128,-1,58
 646 302 646 302 652.5 374.5 c 128,-1,59
 659 447 659 447 659 550 c 0,60,61
 659 605 659 605 650 605 c 2,62,-1
 510 605 l 2,63,64
 500 605 500 605 494.5 607 c 128,-1,65
 489 609 489 609 484.5 618.5 c 128,-1,66
 480 628 480 628 480 645 c 2,67,-1
 480 705 l 2,68,69
 480 730 480 730 487 737.5 c 128,-1,70
 494 745 494 745 508 745 c 2,71,-1
 776 745 l 2,72,73
 802 745 802 745 802 692 c 2,74,-1
 802 46 l 2,75,76
 802 16 802 16 793.5 0 c 128,-1,77
 785 -16 785 -16 773 -16 c 0,0,1
EndSplineSet
EndChar

StartChar: H
Encoding: 72 72 43
Width: 918
GlyphClass: 2
Flags: W
LayerCount: 2
Fore
SplineSet
137 0 m 2,0,1
 124 0 124 0 118 8.5 c 128,-1,2
 112 17 112 17 112 47 c 2,3,-1
 112 1391 l 2,4,5
 112 1421 112 1421 118 1429.5 c 128,-1,6
 124 1438 124 1438 137 1438 c 2,7,-1
 247 1438 l 2,8,9
 256 1438 256 1438 261 1435.5 c 128,-1,10
 266 1433 266 1433 269.5 1422 c 128,-1,11
 273 1411 273 1411 273 1391 c 2,12,-1
 273 834 l 2,13,14
 273 827 273 827 276 820.5 c 128,-1,15
 279 814 279 814 281 814 c 2,16,-1
 634 814 l 2,17,18
 637 814 637 814 641 821.5 c 128,-1,19
 645 829 645 829 645 836 c 2,20,-1
 645 1391 l 2,21,22
 645 1421 645 1421 651 1429.5 c 128,-1,23
 657 1438 657 1438 671 1438 c 2,24,-1
 782 1438 l 2,25,26
 795 1438 795 1438 800.5 1429.5 c 128,-1,27
 806 1421 806 1421 806 1391 c 2,28,-1
 806 47 l 2,29,30
 806 17 806 17 800.5 8.5 c 128,-1,31
 795 0 795 0 782 0 c 2,32,-1
 671 0 l 2,33,34
 657 0 657 0 650.5 8.5 c 128,-1,35
 644 17 644 17 644 47 c 2,36,-1
 644 664 l 2,37,38
 644 670 644 670 640.5 677 c 128,-1,39
 637 684 637 684 635 684 c 2,40,-1
 282 684 l 2,41,42
 280 684 280 684 277 677.5 c 128,-1,43
 274 671 274 671 274 665 c 2,44,-1
 274 47 l 2,45,46
 274 18 274 18 267.5 9 c 128,-1,47
 261 0 261 0 248 0 c 2,48,-1
 137 0 l 2,0,1
EndSplineSet
EndChar

StartChar: I
Encoding: 73 73 44
Width: 387
GlyphClass: 2
Flags: W
LayerCount: 2
Fore
SplineSet
139 0 m 2,0,1
 131 0 131 0 126.5 2.5 c 128,-1,2
 122 5 122 5 118.5 16 c 128,-1,3
 115 27 115 27 115 47 c 2,4,-1
 115 1391 l 2,5,6
 115 1420 115 1420 121 1429 c 128,-1,7
 127 1438 127 1438 139 1438 c 2,8,-1
 251 1438 l 2,9,10
 264 1438 264 1438 270 1429.5 c 128,-1,11
 276 1421 276 1421 276 1391 c 2,12,-1
 276 47 l 2,13,14
 276 17 276 17 270 8.5 c 128,-1,15
 264 0 264 0 251 0 c 2,16,-1
 139 0 l 2,0,1
EndSplineSet
EndChar

StartChar: J
Encoding: 74 74 45
Width: 514
GlyphClass: 2
Flags: W
LayerCount: 2
Fore
SplineSet
49 -150 m 0,0,1
 37 -150 37 -150 37 -122 c 2,2,-1
 37 -47 l 2,3,4
 37 -18 37 -18 49 -16 c 1,5,6
 86 -15 86 -15 108 -10.5 c 128,-1,7
 130 -6 130 -6 153 9.5 c 128,-1,8
 176 25 176 25 188 53.5 c 128,-1,9
 200 82 200 82 210.5 132 c 128,-1,10
 221 182 221 182 225 256 c 128,-1,11
 229 330 229 330 229 435 c 2,12,-1
 229 1391 l 2,13,14
 229 1438 229 1438 247 1438 c 2,15,-1
 371 1438 l 2,16,17
 390 1438 390 1438 390 1391 c 2,18,-1
 390 399 l 2,19,20
 390 242 390 242 371.5 136 c 128,-1,21
 353 30 353 30 328 -26.5 c 128,-1,22
 303 -83 303 -83 252 -111.5 c 128,-1,23
 201 -140 201 -140 161.5 -145 c 128,-1,24
 122 -150 122 -150 49 -150 c 0,0,1
EndSplineSet
EndChar

StartChar: K
Encoding: 75 75 46
Width: 768
GlyphClass: 2
Flags: W
LayerCount: 2
Fore
SplineSet
136 0 m 2,0,1
 112 0 112 0 112 58 c 2,2,-1
 112 1380 l 2,3,4
 112 1438 112 1438 136 1438 c 2,5,-1
 247 1438 l 2,6,7
 273 1438 273 1438 273 1380 c 2,8,-1
 273 733 l 1,9,-1
 545 1384 l 2,10,11
 567 1438 567 1438 588 1438 c 2,12,-1
 708 1438 l 2,13,14
 725 1438 725 1438 725 1418 c 0,15,16
 725 1400 725 1400 717 1383 c 2,17,-1
 438 743 l 1,18,19
 433 718 433 718 433 714 c 0,20,21
 433 700 433 700 437 691 c 2,22,-1
 733 60 l 2,23,24
 745 35 745 35 745 19 c 0,25,26
 745 0 745 0 732 0 c 2,27,-1
 620 0 l 2,28,29
 607 0 607 0 596.5 11.5 c 128,-1,30
 586 23 586 23 572 54 c 2,31,-1
 273 691 l 1,32,-1
 273 55 l 2,33,34
 273 0 273 0 247 0 c 2,35,-1
 136 0 l 2,0,1
EndSplineSet
EndChar

StartChar: L
Encoding: 76 76 47
Width: 617
GlyphClass: 2
Flags: W
LayerCount: 2
Fore
SplineSet
136 0 m 2,0,1
 128 0 128 0 123.5 2.5 c 128,-1,2
 119 5 119 5 115.5 16 c 128,-1,3
 112 27 112 27 112 47 c 2,4,-1
 112 1391 l 2,5,6
 112 1420 112 1420 118 1429 c 128,-1,7
 124 1438 124 1438 136 1438 c 2,8,-1
 249 1438 l 2,9,10
 257 1438 257 1438 261.5 1435.5 c 128,-1,11
 266 1433 266 1433 269.5 1422 c 128,-1,12
 273 1411 273 1411 273 1391 c 2,13,-1
 273 149 l 2,14,15
 273 128 273 128 286 128 c 2,16,-1
 548 128 l 2,17,18
 557 128 557 128 561 126.5 c 128,-1,19
 565 125 565 125 569 117.5 c 128,-1,20
 573 110 573 110 573 94 c 2,21,-1
 573 36 l 2,22,23
 573 13 573 13 567 6.5 c 128,-1,24
 561 0 561 0 548 0 c 2,25,-1
 136 0 l 2,0,1
EndSplineSet
EndChar

StartChar: M
Encoding: 77 77 48
Width: 1080
GlyphClass: 2
Flags: W
LayerCount: 2
Fore
SplineSet
133 0 m 2,0,1
 110 0 110 0 110 52 c 2,2,3
 110 58 l 2,4,-1
 154 1378 l 1,5,6
 154 1438 154 1438 177 1438 c 2,7,-1
 301 1438 l 2,8,9
 332 1438 332 1438 342 1388 c 2,10,-1
 533 375 l 2,11,12
 534 370 534 370 538 370 c 128,-1,13
 542 370 542 370 543 375 c 2,14,-1
 733 1383 l 1,15,16
 745 1438 745 1438 772 1438 c 2,17,-1
 901 1438 l 2,18,19
 924 1438 924 1438 924 1378 c 1,20,-1
 970 58 l 1,21,-1
 970 52 l 2,22,23
 970 0 970 0 946 0 c 2,24,-1
 862 0 l 2,25,26
 838 0 838 0 837 58 c 2,27,-1
 805 1153 l 1,28,29
 803 1156 803 1156 799 1156 c 1,30,-1
 599 54 l 2,31,32
 589 1 589 1 563 1 c 0,33,34
 562 1 562 1 536.5 0.5 c 128,-1,35
 511 0 511 0 510 0 c 0,36,37
 485 0 485 0 475 54 c 2,38,-1
 279 1149 l 2,39,40
 278 1153 278 1153 276 1149 c 0,41,42
 275 1147 275 1147 275 1144 c 2,43,-1
 241 58 l 1,44,45
 241 0 241 0 219 0 c 2,46,-1
 133 0 l 2,0,1
EndSplineSet
EndChar

StartChar: N
Encoding: 78 78 49
Width: 930
GlyphClass: 2
Flags: W
LayerCount: 2
Fore
SplineSet
137 0 m 2,0,1
 112 0 112 0 112 52 c 2,2,-1
 112 1387 l 2,3,4
 112 1417 112 1417 118 1427.5 c 128,-1,5
 124 1438 124 1438 137 1438 c 2,6,-1
 248 1438 l 2,7,8
 266 1438 266 1438 279 1405 c 2,9,-1
 670 402 l 2,10,11
 672 398 672 398 675 407 c 0,12,13
 677 411 677 411 677 415 c 2,14,-1
 677 1387 l 2,15,16
 677 1417 677 1417 683.5 1427.5 c 128,-1,17
 690 1438 690 1438 703 1438 c 2,18,-1
 794 1438 l 2,19,20
 818 1438 818 1438 818 1387 c 2,21,-1
 818 46 l 2,22,23
 818 26 818 26 814.5 15.5 c 128,-1,24
 811 5 811 5 806.5 2.5 c 128,-1,25
 802 0 802 0 794 0 c 2,26,-1
 713 0 l 2,27,28
 705 0 705 0 693 13 c 128,-1,29
 681 26 681 26 675 42 c 2,30,-1
 262 1078 l 2,31,32
 260 1084 260 1084 256 1074 c 0,33,34
 255 1071 255 1071 255 1068 c 2,35,-1
 255 52 l 2,36,37
 255 22 255 22 248.5 11 c 128,-1,38
 242 0 242 0 229 0 c 2,39,-1
 137 0 l 2,0,1
EndSplineSet
EndChar

StartChar: O
Encoding: 79 79 50
Width: 900
GlyphClass: 2
Flags: W
LayerCount: 2
Fore
SplineSet
449 -14 m 0,0,1
 368 -14 368 -14 312 5 c 128,-1,2
 256 24 256 24 211 71 c 128,-1,3
 166 118 166 118 140.5 202.5 c 128,-1,4
 115 287 115 287 101.5 414.5 c 128,-1,5
 88 542 88 542 88 725 c 0,6,7
 88 942 88 942 108 1083 c 128,-1,8
 128 1224 128 1224 174 1306 c 128,-1,9
 220 1388 220 1388 285 1420.5 c 128,-1,10
 350 1453 350 1453 449 1453 c 0,11,12
 550 1453 550 1453 615 1421.5 c 128,-1,13
 680 1390 680 1390 726 1308 c 128,-1,14
 772 1226 772 1226 792 1085 c 128,-1,15
 812 944 812 944 812 725 c 0,16,17
 812 541 812 541 799 413 c 128,-1,18
 786 285 786 285 760 200.5 c 128,-1,19
 734 116 734 116 689 69.5 c 128,-1,20
 644 23 644 23 587.5 4.5 c 128,-1,21
 531 -14 531 -14 449 -14 c 0,0,1
449 115 m 0,22,23
 528 115 528 115 569.5 163 c 128,-1,24
 611 211 611 211 631 342 c 128,-1,25
 651 473 651 473 651 725 c 0,26,27
 651 965 651 965 632.5 1091 c 128,-1,28
 614 1217 614 1217 572 1269 c 128,-1,29
 530 1321 530 1321 450 1321 c 0,30,31
 371 1321 371 1321 328.5 1266.5 c 128,-1,32
 286 1212 286 1212 267.5 1085.5 c 128,-1,33
 249 959 249 959 249 725 c 0,34,35
 249 476 249 476 269 345 c 128,-1,36
 289 214 289 214 330 164.5 c 128,-1,37
 371 115 371 115 449 115 c 0,22,23
EndSplineSet
EndChar

StartChar: P
Encoding: 80 80 51
Width: 835
GlyphClass: 2
Flags: W
LayerCount: 2
Fore
SplineSet
281 647 m 2,0,-1
 418 647 l 2,1,2
 465 647 465 647 494 653.5 c 128,-1,3
 523 660 523 660 548.5 678.5 c 128,-1,4
 574 697 574 697 587 733.5 c 128,-1,5
 600 770 600 770 607.5 828 c 128,-1,6
 615 886 615 886 615 973 c 0,7,8
 615 1067 615 1067 603.5 1131 c 128,-1,9
 592 1195 592 1195 575.5 1230 c 128,-1,10
 559 1265 559 1265 527.5 1283.5 c 128,-1,11
 496 1302 496 1302 469 1306 c 128,-1,12
 442 1310 442 1310 396 1310 c 2,13,-1
 282 1310 l 2,14,15
 273 1310 273 1310 273 1293 c 2,16,-1
 273 663 l 2,17,18
 273 647 273 647 281 647 c 2,0,-1
136 0 m 2,19,20
 112 0 112 0 112 49 c 2,21,-1
 112 1392 l 2,22,23
 112 1421 112 1421 118 1429.5 c 128,-1,24
 124 1438 124 1438 136 1438 c 2,25,-1
 403 1438 l 2,26,27
 439 1438 439 1438 465.5 1436.5 c 128,-1,28
 492 1435 492 1435 525.5 1429.5 c 128,-1,29
 559 1424 559 1424 583.5 1414.5 c 128,-1,30
 608 1405 608 1405 635.5 1388 c 128,-1,31
 663 1371 663 1371 682.5 1347.5 c 128,-1,32
 702 1324 702 1324 720.5 1288.5 c 128,-1,33
 739 1253 739 1253 750.5 1208.5 c 128,-1,34
 762 1164 762 1164 769 1104.5 c 128,-1,35
 776 1045 776 1045 776 974 c 0,36,37
 776 887 776 887 766 818.5 c 128,-1,38
 756 750 756 750 739.5 702.5 c 128,-1,39
 723 655 723 655 697 621 c 128,-1,40
 671 587 671 587 643.5 567 c 128,-1,41
 616 547 616 547 579 536 c 128,-1,42
 542 525 542 525 509.5 521.5 c 128,-1,43
 477 518 477 518 435 518 c 2,44,-1
 282 518 l 2,45,46
 273 518 273 518 273 501 c 2,47,-1
 273 49 l 2,48,49
 273 0 273 0 248 0 c 2,50,-1
 136 0 l 2,19,20
EndSplineSet
EndChar

StartChar: Q
Encoding: 81 81 52
Width: 944
GlyphClass: 2
Flags: W
LayerCount: 2
Fore
SplineSet
471 115 m 0,0,1
 520 115 520 115 553 128 c 128,-1,2
 586 141 586 141 615 177.5 c 128,-1,3
 644 214 644 214 660 281.5 c 128,-1,4
 676 349 676 349 685.5 457.5 c 128,-1,5
 695 566 695 566 695 723 c 0,6,7
 695 966 695 966 670.5 1097.5 c 128,-1,8
 646 1229 646 1229 600 1275 c 128,-1,9
 554 1321 554 1321 472 1321 c 0,10,11
 391 1321 391 1321 344.5 1272 c 128,-1,12
 298 1223 298 1223 273.5 1091.5 c 128,-1,13
 249 960 249 960 249 723 c 0,14,15
 249 569 249 569 258 461 c 128,-1,16
 267 353 267 353 283.5 285.5 c 128,-1,17
 300 218 300 218 329 180 c 128,-1,18
 358 142 358 142 390.5 128.5 c 128,-1,19
 423 115 423 115 471 115 c 0,0,1
563 -363 m 2,20,-1
 486 -12 l 1,21,22
 458 -15 458 -15 440 -14 c 0,23,24
 364 -10 364 -10 311.5 9.5 c 128,-1,25
 259 29 259 29 214 76.5 c 128,-1,26
 169 124 169 124 143 206 c 128,-1,27
 117 288 117 288 102.5 415.5 c 128,-1,28
 88 543 88 543 88 723 c 0,29,30
 88 901 88 901 104 1029 c 128,-1,31
 120 1157 120 1157 149.5 1239 c 128,-1,32
 179 1321 179 1321 227.5 1368.5 c 128,-1,33
 276 1416 276 1416 333.5 1434.5 c 128,-1,34
 391 1453 391 1453 471 1453 c 0,35,36
 553 1453 553 1453 610.5 1435 c 128,-1,37
 668 1417 668 1417 717 1370 c 128,-1,38
 766 1323 766 1323 795 1241 c 128,-1,39
 824 1159 824 1159 840 1031 c 128,-1,40
 856 903 856 903 856 723 c 0,41,42
 856 472 856 472 829 320.5 c 128,-1,43
 802 169 802 169 750.5 97.5 c 128,-1,44
 699 26 699 26 612 0 c 1,45,46
 615 -18 615 -18 634 -103 c 128,-1,47
 653 -188 653 -188 669 -263.5 c 128,-1,48
 685 -339 685 -339 685 -347 c 1,49,50
 690 -367 690 -367 688 -378.5 c 128,-1,51
 686 -390 686 -390 670 -395 c 0,52,53
 622 -411 622 -411 598 -411 c 128,-1,54
 574 -411 574 -411 563 -363 c 2,20,-1
EndSplineSet
EndChar

StartChar: R
Encoding: 82 82 53
Width: 901
GlyphClass: 2
Flags: W
LayerCount: 2
Fore
SplineSet
282 799 m 2,0,-1
 431 799 l 2,1,2
 539 799 539 799 588 862.5 c 128,-1,3
 637 926 637 926 637 1061 c 0,4,5
 637 1136 637 1136 622.5 1185.5 c 128,-1,6
 608 1235 608 1235 576.5 1262 c 128,-1,7
 545 1289 545 1289 504 1299.5 c 128,-1,8
 463 1310 463 1310 401 1310 c 2,9,-1
 282 1310 l 2,10,11
 273 1310 273 1310 273 1293 c 2,12,-1
 273 821 l 2,13,14
 273 799 273 799 282 799 c 2,0,-1
136 0 m 2,15,16
 124 0 124 0 118 8.5 c 128,-1,17
 112 17 112 17 112 44 c 2,18,-1
 112 1392 l 2,19,20
 112 1412 112 1412 115.5 1422.5 c 128,-1,21
 119 1433 119 1433 123.5 1435.5 c 128,-1,22
 128 1438 128 1438 136 1438 c 2,23,-1
 440 1438 l 2,24,25
 487 1438 487 1438 521.5 1435.5 c 128,-1,26
 556 1433 556 1433 595.5 1423.5 c 128,-1,27
 635 1414 635 1414 663 1398 c 128,-1,28
 691 1382 691 1382 718 1354.5 c 128,-1,29
 745 1327 745 1327 761.5 1288 c 128,-1,30
 778 1249 778 1249 788 1193 c 128,-1,31
 798 1137 798 1137 798 1066 c 0,32,33
 798 968 798 968 776 902 c 128,-1,34
 754 836 754 836 721 804.5 c 128,-1,35
 688 773 688 773 637 752 c 1,36,37
 633 748 633 748 633 745 c 0,38,39
 633 741 633 741 636 741 c 1,40,41
 666 727 666 727 683.5 716.5 c 128,-1,42
 701 706 701 706 724.5 682 c 128,-1,43
 748 658 748 658 761 628.5 c 128,-1,44
 774 599 774 599 784.5 549 c 128,-1,45
 795 499 795 499 797 433 c 0,46,47
 799 379 799 379 799 52 c 0,48,49
 799 0 799 0 779 0 c 0,50,51
 663 -1 663 -1 661 -1 c 0,52,53
 642 -1 642 -1 642 48 c 1,54,55
 641 57 641 57 637.5 272 c 128,-1,56
 634 487 634 487 629 509 c 1,57,58
 622 673 622 673 464 673 c 2,59,-1
 283 673 l 2,60,61
 273 673 273 673 273 654 c 2,62,-1
 273 44 l 2,63,64
 273 17 273 17 267 8.5 c 128,-1,65
 261 0 261 0 248 0 c 2,66,-1
 136 0 l 2,15,16
EndSplineSet
EndChar

StartChar: S
Encoding: 83 83 54
Width: 761
GlyphClass: 2
Flags: W
LayerCount: 2
Fore
SplineSet
710 385 m 0,0,1
 710 209 710 209 618.5 97.5 c 128,-1,2
 527 -14 527 -14 375 -14 c 0,3,4
 166 -14 166 -14 48 169 c 0,5,6
 43 176 43 176 43 189 c 0,7,8
 43 217 43 217 67.5 249 c 128,-1,9
 92 281 92 281 114 281 c 0,10,11
 123 281 123 281 130 273 c 1,12,13
 237 124 237 124 374 124 c 0,14,15
 460 124 460 124 509 191.5 c 128,-1,16
 558 259 558 259 558 367 c 0,17,18
 558 462 558 462 522 518 c 128,-1,19
 486 574 486 574 412 624 c 2,20,-1
 280 712 l 2,21,22
 239 739 239 739 208.5 767.5 c 128,-1,23
 178 796 178 796 147.5 838.5 c 128,-1,24
 117 881 117 881 100.5 939.5 c 128,-1,25
 84 998 84 998 84 1069 c 0,26,27
 84 1240 84 1240 170 1346.5 c 128,-1,28
 256 1453 256 1453 398 1453 c 0,29,30
 578 1453 578 1453 681 1322 c 0,31,32
 690 1310 690 1310 690 1294 c 0,33,34
 690 1264 690 1264 665.5 1234 c 128,-1,35
 641 1204 641 1204 623 1204 c 0,36,37
 617 1204 617 1204 614 1208 c 0,38,39
 529 1313 529 1313 418 1313 c 0,40,41
 337 1313 337 1313 286.5 1249 c 128,-1,42
 236 1185 236 1185 236 1090 c 0,43,44
 236 1029 236 1029 256.5 981.5 c 128,-1,45
 277 934 277 934 304 907 c 128,-1,46
 331 880 331 880 374 852 c 2,47,-1
 505 767 l 2,48,49
 710 634 710 634 710 385 c 0,0,1
EndSplineSet
EndChar

StartChar: T
Encoding: 84 84 55
Width: 634
GlyphClass: 2
Flags: W
LayerCount: 2
Fore
SplineSet
263 0 m 2,0,1
 250 0 250 0 244.5 8.5 c 128,-1,2
 239 17 239 17 239 47 c 2,3,-1
 239 1281 l 2,4,5
 239 1306 239 1306 228 1306 c 2,6,-1
 53 1306 l 2,7,8
 43 1306 43 1306 39 1307.5 c 128,-1,9
 35 1309 35 1309 31.5 1317 c 128,-1,10
 28 1325 28 1325 28 1341 c 2,11,-1
 28 1397 l 2,12,13
 28 1423 28 1423 33.5 1430.5 c 128,-1,14
 39 1438 39 1438 53 1438 c 2,15,-1
 585 1438 l 2,16,17
 598 1438 598 1438 603.5 1430.5 c 128,-1,18
 609 1423 609 1423 609 1397 c 2,19,-1
 609 1341 l 2,20,21
 609 1325 609 1325 605.5 1317 c 128,-1,22
 602 1309 602 1309 598 1307.5 c 128,-1,23
 594 1306 594 1306 585 1306 c 2,24,-1
 411 1306 l 2,25,26
 400 1306 400 1306 400 1281 c 2,27,-1
 400 47 l 2,28,29
 400 17 400 17 394.5 8.5 c 128,-1,30
 389 0 389 0 376 0 c 2,31,-1
 263 0 l 2,0,1
EndSplineSet
EndChar

StartChar: U
Encoding: 85 85 56
Width: 937
GlyphClass: 2
Flags: W
LayerCount: 2
Fore
SplineSet
474 -14 m 0,0,1
 421 -14 421 -14 382.5 -9.5 c 128,-1,2
 344 -5 344 -5 302.5 9.5 c 128,-1,3
 261 24 261 24 232.5 50.5 c 128,-1,4
 204 77 204 77 177 122 c 128,-1,5
 150 167 150 167 134.5 230 c 128,-1,6
 119 293 119 293 109.5 383.5 c 128,-1,7
 100 474 100 474 100 590 c 2,8,-1
 100 1391 l 2,9,10
 100 1421 100 1421 106 1429.5 c 128,-1,11
 112 1438 112 1438 125 1438 c 2,12,-1
 236 1438 l 2,13,14
 244 1438 244 1438 249 1435.5 c 128,-1,15
 254 1433 254 1433 257.5 1422 c 128,-1,16
 261 1411 261 1411 261 1391 c 2,17,-1
 261 595 l 2,18,19
 261 467 261 467 270 380 c 128,-1,20
 279 293 279 293 294 241 c 128,-1,21
 309 189 309 189 337 161 c 128,-1,22
 365 133 365 133 395.5 124.5 c 128,-1,23
 426 116 426 116 473 116 c 0,24,25
 521 116 521 116 550 124 c 128,-1,26
 579 132 579 132 606 158 c 128,-1,27
 633 184 633 184 646.5 236.5 c 128,-1,28
 660 289 660 289 668 376 c 128,-1,29
 676 463 676 463 676 595 c 2,30,-1
 676 1391 l 2,31,32
 676 1421 676 1421 682 1429.5 c 128,-1,33
 688 1438 688 1438 701 1438 c 2,34,-1
 813 1438 l 2,35,36
 826 1438 826 1438 831.5 1429.5 c 128,-1,37
 837 1421 837 1421 837 1391 c 2,38,-1
 837 590 l 2,39,40
 837 473 837 473 828 382.5 c 128,-1,41
 819 292 819 292 803.5 228.5 c 128,-1,42
 788 165 788 165 762 120 c 128,-1,43
 736 75 736 75 708.5 49.5 c 128,-1,44
 681 24 681 24 640.5 9.5 c 128,-1,45
 600 -5 600 -5 563 -9.5 c 128,-1,46
 526 -14 526 -14 474 -14 c 0,0,1
EndSplineSet
EndChar

StartChar: V
Encoding: 86 86 57
Width: 775
GlyphClass: 2
Flags: W
LayerCount: 2
Fore
SplineSet
338 0 m 1,0,1
 312 3 312 3 301 62 c 2,2,-1
 51 1371 l 2,3,4
 48 1388 48 1388 48 1401 c 0,5,6
 48 1438 48 1438 63 1438 c 2,7,-1
 176 1438 l 2,8,9
 200 1438 200 1438 212 1374 c 2,10,-1
 405 324 l 1,11,-1
 582 1374 l 2,12,13
 593 1438 593 1438 617 1438 c 2,14,-1
 712 1438 l 2,15,16
 727 1438 727 1438 727 1400 c 0,17,18
 727 1381 727 1381 725 1371 c 2,19,-1
 486 62 l 2,20,21
 476 3 476 3 451 0 c 1,22,-1
 338 0 l 1,0,1
EndSplineSet
EndChar

StartChar: W
Encoding: 87 87 58
Width: 1140
GlyphClass: 2
Flags: W
LayerCount: 2
Fore
SplineSet
278 0 m 1,0,1
 253 4 253 4 244 68 c 2,2,-1
 58 1370 l 2,3,4
 55 1386 55 1386 55 1400 c 0,5,6
 55 1438 55 1438 71 1438 c 2,7,-1
 172 1438 l 2,8,9
 198 1438 198 1438 208 1369 c 2,10,-1
 337 412 l 1,11,-1
 492 1364 l 2,12,13
 502 1424 502 1424 529 1424 c 2,14,-1
 619 1424 l 1,15,16
 645 1422 645 1422 656 1363 c 2,17,-1
 824 387 l 1,18,-1
 950 1370 l 1,19,20
 960 1438 960 1438 984 1438 c 2,21,-1
 1073 1438 l 2,22,23
 1088 1438 1088 1438 1088 1400 c 0,24,25
 1088 1386 1088 1386 1085 1370 c 2,26,-1
 907 68 l 2,27,28
 898 3 898 3 873 0 c 1,29,-1
 777 0 l 1,30,31
 751 3 751 3 740 69 c 2,32,-1
 564 1102 l 1,33,-1
 396 68 l 2,34,35
 386 4 386 4 365 0 c 1,36,-1
 278 0 l 1,0,1
EndSplineSet
EndChar

StartChar: X
Encoding: 88 88 59
Width: 796
GlyphClass: 2
Flags: W
LayerCount: 2
Fore
SplineSet
64 0 m 2,0,1
 54 0 54 0 54 25 c 0,2,3
 54 44 54 44 61 60 c 2,4,-1
 316 713 l 1,5,-1
 77 1376 l 1,6,7
 69 1406 69 1406 69 1414 c 0,8,9
 69 1438 69 1438 80 1438 c 2,10,-1
 202 1438 l 2,11,12
 231 1438 231 1438 248 1387 c 2,13,-1
 417 893 l 1,14,-1
 597 1389 l 1,15,16
 617 1438 617 1438 645 1438 c 2,17,-1
 726 1438 l 2,18,19
 740 1438 740 1438 740 1412 c 0,20,21
 740 1398 740 1398 735 1385 c 2,22,-1
 497 778 l 1,23,-1
 746 62 l 2,24,25
 752 43 752 43 752 28 c 0,26,27
 752 0 752 0 738 0 c 2,28,-1
 632 0 l 2,29,30
 604 0 604 0 587 51 c 2,31,-1
 410 581 l 1,32,-1
 198 49 l 2,33,34
 178 0 178 0 153 0 c 2,35,-1
 64 0 l 2,0,1
EndSplineSet
EndChar

StartChar: Y
Encoding: 89 89 60
Width: 693
GlyphClass: 2
Flags: W
LayerCount: 2
Fore
SplineSet
293 0 m 2,0,1
 281 0 281 0 275 11 c 128,-1,2
 269 22 269 22 269 52 c 2,3,-1
 269 505 l 1,4,-1
 42 1379 l 2,5,6
 37 1396 37 1396 37 1411 c 0,7,8
 37 1438 37 1438 55 1438 c 2,9,-1
 158 1438 l 2,10,11
 188 1438 188 1438 200 1390 c 2,12,-1
 358 729 l 1,13,-1
 514 1389 l 2,14,15
 519 1411 519 1411 530 1424.5 c 128,-1,16
 541 1438 541 1438 553 1438 c 2,17,-1
 640 1438 l 2,18,19
 658 1438 658 1438 658 1409 c 0,20,21
 658 1395 658 1395 653 1379 c 2,22,-1
 429 509 l 1,23,-1
 429 52 l 2,24,25
 429 22 429 22 423 11 c 128,-1,26
 417 0 417 0 405 0 c 2,27,-1
 293 0 l 2,0,1
EndSplineSet
EndChar

StartChar: Z
Encoding: 90 90 61
Width: 684
GlyphClass: 2
Flags: W
LayerCount: 2
Fore
SplineSet
106 0 m 2,0,1
 98 0 98 0 93.5 1.5 c 128,-1,2
 89 3 89 3 85.5 11.5 c 128,-1,3
 82 20 82 20 82 36 c 2,4,-1
 82 79 l 2,5,6
 82 100 82 100 95 150 c 1,7,-1
 426 1270 l 2,8,9
 430 1286 430 1286 430 1292 c 0,10,11
 430 1310 430 1310 421 1310 c 2,12,-1
 114 1310 l 2,13,14
 105 1310 105 1310 100.5 1311.5 c 128,-1,15
 96 1313 96 1313 92.5 1321 c 128,-1,16
 89 1329 89 1329 89 1346 c 2,17,-1
 89 1402 l 2,18,19
 89 1425 89 1425 95 1431.5 c 128,-1,20
 101 1438 101 1438 114 1438 c 2,21,-1
 594 1438 l 2,22,23
 602 1438 602 1438 606.5 1436.5 c 128,-1,24
 611 1435 611 1435 614.5 1426.5 c 128,-1,25
 618 1418 618 1418 618 1402 c 2,26,-1
 618 1369 l 2,27,28
 618 1329 618 1329 603 1274 c 1,29,-1
 274 162 l 2,30,31
 271 151 271 151 271 142 c 0,32,33
 271 128 271 128 277 128 c 2,34,-1
 605 128 l 2,35,36
 606 128 606 128 608 128 c 0,37,38
 615 128 615 128 618.5 127 c 128,-1,39
 622 126 622 126 625.5 119 c 128,-1,40
 629 112 629 112 629 97 c 2,41,-1
 629 36 l 2,42,43
 629 13 629 13 623 6.5 c 128,-1,44
 617 0 617 0 605 0 c 2,45,-1
 106 0 l 2,0,1
EndSplineSet
EndChar

StartChar: bracketleft
Encoding: 91 91 62
Width: 537
GlyphClass: 2
Flags: W
LayerCount: 2
Fore
SplineSet
139 -104 m 2,0,1
 112 -104 112 -104 112 -41 c 2,2,-1
 112 1418 l 2,3,4
 112 1481 112 1481 139 1481 c 2,5,-1
 415 1481 l 2,6,7
 440 1481 440 1481 440 1429 c 2,8,-1
 440 1351 l 2,9,10
 440 1299 440 1299 415 1299 c 2,11,-1
 284 1299 l 2,12,13
 273 1299 273 1299 273 1267 c 2,14,-1
 273 103 l 2,15,16
 273 72 273 72 284 72 c 2,17,-1
 415 72 l 2,18,19
 440 72 440 72 440 14 c 2,20,-1
 440 -52 l 2,21,22
 440 -104 440 -104 415 -104 c 2,23,-1
 139 -104 l 2,0,1
EndSplineSet
EndChar

StartChar: backslash
Encoding: 92 92 63
Width: 558
GlyphClass: 2
Flags: W
LayerCount: 2
Fore
SplineSet
349 -206 m 2,0,1
 337 -206 337 -206 332 -171 c 2,2,-1
 99 1612 l 2,3,4
 99 1614 99 1614 98.5 1618 c 128,-1,5
 98 1622 98 1622 98 1623 c 0,6,7
 98 1647 98 1647 106 1647 c 2,8,-1
 220 1647 l 2,9,10
 231 1647 231 1647 236 1612 c 2,11,-1
 470 -170 l 2,12,13
 470 -172 470 -172 470.5 -175 c 128,-1,14
 471 -178 471 -178 471 -179 c 0,15,16
 471 -205 471 -205 463 -205 c 2,17,-1
 349 -206 l 2,0,1
EndSplineSet
EndChar

StartChar: bracketright
Encoding: 93 93 64
Width: 537
GlyphClass: 2
Flags: W
LayerCount: 2
Fore
SplineSet
413 1481 m 2,0,1
 440 1481 440 1481 440 1418 c 2,2,-1
 440 -41 l 2,3,4
 440 -104 440 -104 413 -104 c 2,5,-1
 137 -104 l 2,6,7
 112 -104 112 -104 112 -52 c 2,8,-1
 112 26 l 2,9,10
 112 78 112 78 137 78 c 2,11,-1
 268 78 l 2,12,13
 279 78 279 78 279 110 c 2,14,-1
 279 1274 l 2,15,16
 279 1305 279 1305 268 1305 c 2,17,-1
 137 1305 l 2,18,19
 112 1305 112 1305 112 1363 c 2,20,-1
 112 1429 l 2,21,22
 112 1481 112 1481 137 1481 c 2,23,-1
 413 1481 l 2,0,1
EndSplineSet
EndChar

StartChar: asciicircum
Encoding: 94 94 65
Width: 1030
GlyphClass: 2
Flags: W
LayerCount: 2
Fore
SplineSet
122 305 m 2,0,1
 94 305 94 305 94 334 c 0,2,3
 94 351 94 351 102 372 c 2,4,-1
 413 1244 l 1,5,6
 427 1280 427 1280 443 1295.5 c 128,-1,7
 459 1311 459 1311 492 1311 c 2,8,-1
 535 1311 l 2,9,10
 567 1311 567 1311 581.5 1296 c 128,-1,11
 596 1281 596 1281 612 1243 c 1,12,-1
 929 373 l 2,13,14
 937 349 937 349 937 336 c 0,15,16
 937 305 937 305 908 305 c 2,17,-1
 850 305 l 2,18,19
 830 305 830 305 816.5 319.5 c 128,-1,20
 803 334 803 334 790 374 c 1,21,-1
 534 1098 l 2,22,23
 528 1117 528 1117 524 1123 c 128,-1,24
 520 1129 520 1129 513 1129 c 128,-1,25
 506 1129 506 1129 502 1123 c 128,-1,26
 498 1117 498 1117 492 1098 c 2,27,-1
 245 374 l 2,28,29
 231 332 231 332 218.5 318.5 c 128,-1,30
 206 305 206 305 179 305 c 2,31,-1
 122 305 l 2,0,1
EndSplineSet
EndChar

StartChar: underscore
Encoding: 95 95 66
Width: 823
GlyphClass: 2
Flags: W
LayerCount: 2
Fore
SplineSet
96 -87 m 2,0,1
 75 -87 75 -87 64.5 -78 c 128,-1,2
 54 -69 54 -69 54 -45 c 2,3,-1
 54 -10 l 2,4,5
 54 14 54 14 64 23.5 c 128,-1,6
 74 33 74 33 96 33 c 2,7,-1
 728 33 l 2,8,9
 749 33 749 33 759.5 24 c 128,-1,10
 770 15 770 15 770 -9 c 2,11,-1
 770 -44 l 2,12,13
 770 -68 770 -68 760 -77.5 c 128,-1,14
 750 -87 750 -87 728 -87 c 2,15,-1
 96 -87 l 2,0,1
EndSplineSet
EndChar

StartChar: grave
Encoding: 96 96 67
Width: 596
GlyphClass: 2
Flags: W
LayerCount: 2
Fore
SplineSet
440 1168 m 2,0,1
 427 1168 427 1168 420 1207 c 2,2,-1
 358 1544 l 2,3,4
 354 1568 354 1568 354 1581 c 0,5,6
 354 1609 354 1609 364 1609 c 2,7,-1
 438 1609 l 2,8,9
 449 1609 449 1609 454.5 1597.5 c 128,-1,10
 460 1586 460 1586 463 1554 c 2,11,-1
 484 1235 l 2,12,13
 485 1221 485 1221 485 1200 c 0,14,15
 485 1168 485 1168 470 1168 c 2,16,-1
 440 1168 l 2,0,1
EndSplineSet
EndChar

StartChar: a
Encoding: 97 97 68
Width: 703
GlyphClass: 2
Flags: W
LayerCount: 2
Fore
SplineSet
309 95 m 0,0,1
 388 95 388 95 433 197 c 128,-1,2
 478 299 478 299 478 448 c 0,3,4
 478 518 478 518 471 518 c 0,5,6
 470 518 470 518 449.5 515 c 128,-1,7
 429 512 429 512 427 511 c 0,8,9
 306 484 306 484 253.5 418 c 128,-1,10
 201 352 201 352 201 249 c 0,11,12
 201 95 201 95 309 95 c 0,0,1
282 -12 m 0,13,14
 181 -12 181 -12 128.5 53 c 128,-1,15
 76 118 76 118 76 238 c 0,16,17
 76 326 76 326 103 393 c 128,-1,18
 130 460 130 460 171 495.5 c 128,-1,19
 212 531 212 531 262 555 c 128,-1,20
 312 579 312 579 355 586.5 c 128,-1,21
 398 594 398 594 433 601 c 128,-1,22
 468 608 468 608 475 613 c 1,23,-1
 475 668 l 2,24,25
 475 784 475 784 449.5 844.5 c 128,-1,26
 424 905 424 905 354 905 c 0,27,28
 292 905 292 905 262.5 870.5 c 128,-1,29
 233 836 233 836 211 762 c 0,30,31
 205 745 205 745 199 739 c 128,-1,32
 193 733 193 733 184 735 c 0,33,34
 170 738 170 738 135.5 749 c 128,-1,35
 101 760 101 760 100 765 c 1,36,37
 90 775 90 775 101 819 c 1,38,39
 119 883 119 883 148 925 c 128,-1,40
 177 967 177 967 230.5 992.5 c 128,-1,41
 284 1018 284 1018 361 1018 c 0,42,43
 488 1018 488 1018 549.5 926.5 c 128,-1,44
 611 835 611 835 611 621 c 2,45,-1
 611 49 l 2,46,47
 611 0 611 0 590 0 c 2,48,-1
 566 0 l 2,49,50
 550 0 550 0 539 41 c 1,51,52
 510 163 510 163 508 188 c 0,53,54
 508 191 508 191 506 192.5 c 128,-1,55
 504 194 504 194 502.5 192.5 c 128,-1,56
 501 191 501 191 500 188 c 0,57,58
 475 91 475 91 423.5 39.5 c 128,-1,59
 372 -12 372 -12 282 -12 c 0,13,14
EndSplineSet
EndChar

StartChar: b
Encoding: 98 98 69
Width: 740
GlyphClass: 2
Flags: W
LayerCount: 2
Fore
SplineSet
385 102 m 128,-1,1
 449 102 449 102 485.5 201 c 128,-1,2
 522 300 522 300 522 509 c 0,3,4
 522 706 522 706 485.5 805.5 c 128,-1,5
 449 905 449 905 387 905 c 0,6,7
 324 905 324 905 280.5 795 c 128,-1,8
 237 685 237 685 237 509 c 0,9,10
 237 335 237 335 279 218.5 c 128,-1,0
 321 102 321 102 385 102 c 128,-1,1
412 -11 m 0,11,12
 257 -11 257 -11 199 200 c 0,13,14
 197 205 197 205 195 205 c 0,15,16
 191 205 191 205 184.5 153.5 c 128,-1,17
 178 102 178 102 167 51 c 128,-1,18
 156 0 156 0 141 0 c 2,19,-1
 121 0 l 2,20,21
 101 0 101 0 101 59 c 2,22,-1
 101 1367 l 2,23,24
 101 1438 101 1438 126 1438 c 2,25,-1
 213 1438 l 2,26,27
 224 1438 224 1438 230.5 1418.5 c 128,-1,28
 237 1399 237 1399 237 1367 c 2,29,-1
 237 867 l 2,30,31
 237 854 237 854 241 854 c 1,32,-1
 246 859 l 1,33,34
 275 938 275 938 322.5 978 c 128,-1,35
 370 1018 370 1018 425 1018 c 0,36,37
 473 1018 473 1018 513 992.5 c 128,-1,38
 553 967 553 967 587.5 910.5 c 128,-1,39
 622 854 622 854 642 749.5 c 128,-1,40
 662 645 662 645 662 501 c 0,41,42
 662 390 662 390 647.5 301.5 c 128,-1,43
 633 213 633 213 608.5 155.5 c 128,-1,44
 584 98 584 98 551 59.5 c 128,-1,45
 518 21 518 21 483.5 5 c 128,-1,46
 449 -11 449 -11 412 -11 c 0,11,12
EndSplineSet
EndChar

StartChar: c
Encoding: 99 99 70
Width: 558
GlyphClass: 2
Flags: W
LayerCount: 2
Fore
SplineSet
376 -11 m 2,0,-1
 372 -11 l 2,1,2
 339 -11 339 -11 312 -6.5 c 128,-1,3
 285 -2 285 -2 254 11.5 c 128,-1,4
 223 25 223 25 199 47.5 c 128,-1,5
 175 70 175 70 152 109.5 c 128,-1,6
 129 149 129 149 114 202.5 c 128,-1,7
 99 256 99 256 90 333.5 c 128,-1,8
 81 411 81 411 81 508 c 0,9,10
 81 637 81 637 98 732 c 128,-1,11
 115 827 115 827 141 881 c 128,-1,12
 167 935 167 935 206.5 967 c 128,-1,13
 246 999 246 999 282 1008.5 c 128,-1,14
 318 1018 318 1018 364 1018 c 0,15,16
 431 1018 431 1018 490 996 c 1,17,18
 493 996 493 996 497 991 c 128,-1,19
 501 986 501 986 501 983 c 2,20,-1
 501 897 l 2,21,22
 501 892 501 892 497 887 c 128,-1,23
 493 882 493 882 490 883 c 0,24,25
 432 901 432 901 396 901 c 0,26,27
 366 901 366 901 346 896 c 128,-1,28
 326 891 326 891 301 869 c 128,-1,29
 276 847 276 847 261 806.5 c 128,-1,30
 246 766 246 766 235.5 690.5 c 128,-1,31
 225 615 225 615 225 508 c 0,32,33
 225 400 225 400 234.5 324 c 128,-1,34
 244 248 244 248 258.5 206 c 128,-1,35
 273 164 273 164 297.5 141 c 128,-1,36
 322 118 322 118 343.5 112.5 c 128,-1,37
 365 107 365 107 397 107 c 0,38,39
 437 107 437 107 490 124 c 1,40,41
 493 123 493 123 497.5 116.5 c 128,-1,42
 502 110 502 110 502 106 c 2,43,-1
 502 26 l 2,44,45
 502 22 502 22 497.5 15.5 c 128,-1,46
 493 9 493 9 490 8 c 0,47,48
 438 -11 438 -11 376 -11 c 2,0,-1
EndSplineSet
EndChar

StartChar: d
Encoding: 100 100 71
Width: 749
GlyphClass: 2
Flags: W
LayerCount: 2
Fore
SplineSet
511 509 m 0,0,1
 511 703 511 703 471 804 c 128,-1,2
 431 905 431 905 365 905 c 0,3,4
 333 905 333 905 309.5 888.5 c 128,-1,5
 286 872 286 872 265.5 830.5 c 128,-1,6
 245 789 245 789 234.5 708.5 c 128,-1,7
 224 628 224 628 224 509 c 0,8,9
 224 388 224 388 233.5 306 c 128,-1,10
 243 224 243 224 263 180.5 c 128,-1,11
 283 137 283 137 307.5 119.5 c 128,-1,12
 332 102 332 102 366 102 c 0,13,14
 433 102 433 102 472 207 c 128,-1,15
 511 312 511 312 511 509 c 0,0,1
335 -11 m 0,16,17
 297 -11 297 -11 264 1 c 128,-1,18
 231 13 231 13 195.5 47.5 c 128,-1,19
 160 82 160 82 135.5 137 c 128,-1,20
 111 192 111 192 95 285.5 c 128,-1,21
 79 379 79 379 79 502 c 0,22,23
 79 628 79 628 93.5 722.5 c 128,-1,24
 108 817 108 817 131 872.5 c 128,-1,25
 154 928 154 928 188 961.5 c 128,-1,26
 222 995 222 995 255.5 1006.5 c 128,-1,27
 289 1018 289 1018 331 1018 c 0,28,29
 446 1018 446 1018 502 862 c 0,30,31
 503 860 503 860 509 851 c 1,32,33
 512 851 512 851 512 864 c 2,34,-1
 512 1376 l 2,35,36
 512 1438 512 1438 537 1438 c 2,37,-1
 623 1438 l 2,38,39
 648 1438 648 1438 648 1376 c 2,40,-1
 648 67 l 2,41,42
 648 0 648 0 626 0 c 2,43,-1
 604 0 l 2,44,45
 588 0 588 0 576 58 c 1,46,47
 561 158 561 158 556 204 c 0,48,49
 554 218 554 218 552 220 c 1,50,51
 548 215 548 215 546 206 c 0,52,53
 517 80 517 80 468 34.5 c 128,-1,54
 419 -11 419 -11 335 -11 c 0,16,17
EndSplineSet
EndChar

StartChar: e
Encoding: 101 101 72
Width: 704
GlyphClass: 2
Flags: W
LayerCount: 2
Fore
SplineSet
227 562 m 2,0,-1
 493 562 l 2,1,2
 495 562 495 562 495 580 c 0,3,4
 489 749 489 749 458 827.5 c 128,-1,5
 427 906 427 906 362 906 c 0,6,7
 241 906 241 906 224 616 c 1,8,9
 224 562 224 562 227 562 c 2,0,-1
606 246 m 2,10,11
 606 135 606 135 547.5 62 c 128,-1,12
 489 -11 489 -11 374 -11 c 0,13,14
 81 -11 81 -11 81 504 c 0,15,16
 81 631 81 631 98.5 726.5 c 128,-1,17
 116 822 116 822 143 876.5 c 128,-1,18
 170 931 170 931 209 964.5 c 128,-1,19
 248 998 248 998 284.5 1008.5 c 128,-1,20
 321 1019 321 1019 364 1019 c 0,21,22
 614 1019 614 1019 614 545 c 0,23,24
 614 473 614 473 584 473 c 2,25,-1
 230 473 l 2,26,27
 223 473 223 473 223 452 c 0,28,29
 223 353 223 353 238 277 c 128,-1,30
 253 201 253 201 289.5 151.5 c 128,-1,31
 326 102 326 102 380 102 c 0,32,33
 417 102 417 102 442.5 119.5 c 128,-1,34
 468 137 468 137 480.5 170 c 128,-1,35
 493 203 493 203 497.5 226.5 c 128,-1,36
 502 250 502 250 506 287 c 0,37,38
 508 307 508 307 519 307 c 2,39,-1
 587 307 l 2,40,41
 606 307 606 307 606 266 c 2,42,-1
 606 246 l 2,10,11
EndSplineSet
EndChar

StartChar: f
Encoding: 102 102 73
Width: 462
GlyphClass: 2
Flags: W
LayerCount: 2
Fore
SplineSet
157 0 m 2,0,1
 146 0 146 0 138.5 17.5 c 128,-1,2
 131 35 131 35 131 66 c 2,3,-1
 131 853 l 2,4,5
 131 881 131 881 124 881 c 2,6,-1
 73 881 l 2,7,8
 61 881 61 881 55 888 c 128,-1,9
 49 895 49 895 49 917 c 2,10,-1
 49 967 l 2,11,12
 49 1006 49 1006 73 1006 c 2,13,-1
 124 1006 l 2,14,15
 131 1006 131 1006 131 1039 c 0,16,17
 131 1208 131 1208 154 1298.5 c 128,-1,18
 177 1389 177 1389 219.5 1419.5 c 128,-1,19
 262 1450 262 1450 338 1450 c 0,20,21
 399 1450 399 1450 419 1446 c 0,22,23
 426 1445 426 1445 429.5 1443.5 c 128,-1,24
 433 1442 433 1442 436.5 1434.5 c 128,-1,25
 440 1427 440 1427 440 1414 c 2,26,-1
 440 1364 l 2,27,28
 440 1324 440 1324 427 1324 c 2,29,-1
 369 1324 l 2,30,31
 309 1324 309 1324 288 1277.5 c 128,-1,32
 267 1231 267 1231 267 1097 c 2,33,-1
 267 1012 l 2,34,35
 267 1006 267 1006 270 1006 c 2,36,-1
 411 1006 l 2,37,38
 423 1006 423 1006 428 999 c 128,-1,39
 433 992 433 992 433 971 c 2,40,-1
 433 917 l 2,41,42
 433 896 433 896 428 888.5 c 128,-1,43
 423 881 423 881 411 881 c 2,44,-1
 276 881 l 2,45,46
 267 881 267 881 267 853 c 2,47,-1
 267 66 l 2,48,49
 267 0 267 0 242 0 c 2,50,-1
 157 0 l 2,0,1
EndSplineSet
EndChar

StartChar: g
Encoding: 103 103 74
Width: 681
GlyphClass: 2
Flags: W
LayerCount: 2
Fore
SplineSet
356 442 m 0,0,1
 427 442 427 442 456.5 502 c 128,-1,2
 486 562 486 562 486 671 c 128,-1,3
 486 780 486 780 449 851.5 c 128,-1,4
 412 923 412 923 342 923 c 0,5,6
 274 923 274 923 242 855.5 c 128,-1,7
 210 788 210 788 210 682 c 0,8,9
 210 567 210 567 247 504.5 c 128,-1,10
 284 442 284 442 356 442 c 0,0,1
342 -209 m 0,11,12
 544 -209 544 -209 544 -35 c 0,13,14
 544 92 544 92 405 92 c 2,15,-1
 290 92 l 2,16,17
 271 92 271 92 243 27 c 128,-1,18
 215 -38 215 -38 215 -100 c 0,19,20
 215 -150 215 -150 242.5 -179.5 c 128,-1,21
 270 -209 270 -209 342 -209 c 0,11,12
336 -300 m 0,22,23
 214 -300 214 -300 150 -255.5 c 128,-1,24
 86 -211 86 -211 86 -132 c 0,25,26
 86 -38 86 -38 168 90 c 0,27,28
 172 98 172 98 172 104 c 0,29,30
 172 113 172 113 165 117 c 0,31,32
 118 137 118 137 96.5 159 c 128,-1,33
 75 181 75 181 75 225 c 0,34,35
 75 240 75 240 76.5 253.5 c 128,-1,36
 78 267 78 267 79 277.5 c 128,-1,37
 80 288 80 288 84 299.5 c 128,-1,38
 88 311 88 311 89.5 318 c 128,-1,39
 91 325 91 325 97 336 c 128,-1,40
 103 347 103 347 105 351 c 128,-1,41
 107 355 107 355 115 366 c 128,-1,42
 123 377 123 377 124 379 c 128,-1,43
 125 381 125 381 134.5 393 c 128,-1,44
 144 405 144 405 145 406 c 0,45,46
 152 416 152 416 152 424 c 0,47,48
 152 434 152 434 146 440 c 0,49,50
 68 538 68 538 68 675 c 0,51,52
 68 775 68 775 94.5 850 c 128,-1,53
 121 925 121 925 183.5 971.5 c 128,-1,54
 246 1018 246 1018 339 1018 c 0,55,56
 364 1018 364 1018 406 1008 c 0,57,58
 422 1004 422 1004 423 1023 c 2,59,-1
 440 1276 l 2,60,61
 441 1304 441 1304 448 1311.5 c 128,-1,62
 455 1319 455 1319 470 1319 c 2,63,-1
 537 1319 l 2,64,65
 544 1319 544 1319 548 1305 c 128,-1,66
 552 1291 552 1291 549 1278 c 2,67,-1
 482 997 l 2,68,69
 477 973 477 973 496 960 c 0,70,71
 546 923 546 923 581.5 850.5 c 128,-1,72
 617 778 617 778 617 676 c 0,73,74
 617 347 617 347 360 347 c 0,75,76
 290 347 290 347 237 379 c 1,77,78
 218 364 218 364 203.5 333.5 c 128,-1,79
 189 303 189 303 189 265 c 0,80,81
 189 226 189 226 215 203.5 c 128,-1,82
 241 181 241 181 291 181 c 2,83,-1
 403 181 l 2,84,85
 540 181 540 181 600.5 129.5 c 128,-1,86
 661 78 661 78 661 -26 c 0,87,88
 661 -103 661 -103 633.5 -158.5 c 128,-1,89
 606 -214 606 -214 557.5 -243.5 c 128,-1,90
 509 -273 509 -273 454.5 -286.5 c 128,-1,91
 400 -300 400 -300 336 -300 c 0,22,23
EndSplineSet
EndChar

StartChar: h
Encoding: 104 104 75
Width: 728
GlyphClass: 2
Flags: W
LayerCount: 2
Fore
SplineSet
125 0 m 2,0,1
 113 0 113 0 107 10 c 128,-1,2
 101 20 101 20 101 50 c 2,3,-1
 101 1384 l 2,4,5
 101 1438 101 1438 125 1438 c 2,6,-1
 212 1438 l 2,7,8
 237 1438 237 1438 237 1384 c 2,9,-1
 237 861 l 2,10,11
 237 849 237 849 241 849 c 0,12,13
 244 849 244 849 247 854 c 1,14,15
 278 939 278 939 331 978.5 c 128,-1,16
 384 1018 384 1018 439 1018 c 0,17,18
 505 1018 505 1018 547 981.5 c 128,-1,19
 589 945 589 945 614 846.5 c 128,-1,20
 639 748 639 748 639 582 c 2,21,-1
 639 50 l 2,22,23
 639 0 639 0 614 0 c 2,24,-1
 527 0 l 2,25,26
 515 0 515 0 509 10 c 128,-1,27
 503 20 503 20 503 50 c 2,28,-1
 503 606 l 2,29,30
 503 762 503 762 476 833.5 c 128,-1,31
 449 905 449 905 394 905 c 0,32,33
 330 905 330 905 283.5 814 c 128,-1,34
 237 723 237 723 237 595 c 2,35,-1
 237 50 l 2,36,37
 237 20 237 20 231 10 c 128,-1,38
 225 0 225 0 213 0 c 2,39,-1
 125 0 l 2,0,1
EndSplineSet
EndChar

StartChar: i
Encoding: 105 105 76
Width: 349
GlyphClass: 2
Flags: W
LayerCount: 2
Fore
SplineSet
127 1167 m 2,0,1
 115 1167 115 1167 109 1177.5 c 128,-1,2
 103 1188 103 1188 103 1218 c 2,3,-1
 103 1322 l 2,4,5
 103 1352 103 1352 109 1363 c 128,-1,6
 115 1374 115 1374 127 1374 c 2,7,-1
 226 1374 l 2,8,9
 249 1374 249 1374 249 1322 c 2,10,-1
 249 1218 l 2,11,12
 249 1188 249 1188 243.5 1177.5 c 128,-1,13
 238 1167 238 1167 226 1167 c 2,14,-1
 127 1167 l 2,0,1
133 0 m 2,15,16
 108 0 108 0 108 61 c 2,17,-1
 108 946 l 2,18,19
 108 1006 108 1006 133 1006 c 2,20,-1
 220 1006 l 2,21,22
 244 1006 244 1006 244 946 c 2,23,-1
 244 61 l 2,24,25
 244 0 244 0 220 0 c 2,26,-1
 133 0 l 2,15,16
EndSplineSet
EndChar

StartChar: j
Encoding: 106 106 77
Width: 427
GlyphClass: 2
Flags: W
LayerCount: 2
Fore
SplineSet
186 1167 m 2,0,1
 173 1167 173 1167 167 1177.5 c 128,-1,2
 161 1188 161 1188 161 1218 c 2,3,-1
 161 1322 l 2,4,5
 161 1374 161 1374 186 1374 c 2,6,-1
 284 1374 l 2,7,8
 296 1374 296 1374 302 1363 c 128,-1,9
 308 1352 308 1352 308 1322 c 2,10,-1
 308 1218 l 2,11,12
 308 1188 308 1188 302 1177.5 c 128,-1,13
 296 1167 296 1167 284 1167 c 2,14,-1
 186 1167 l 2,0,1
58 -321 m 2,15,16
 35 -321 35 -321 35 -274 c 2,17,-1
 35 -242 l 2,18,19
 35 -200 35 -200 58 -200 c 2,20,-1
 97 -200 l 2,21,22
 134 -200 134 -200 150.5 -155 c 128,-1,23
 167 -110 167 -110 167 1 c 2,24,-1
 167 946 l 2,25,26
 167 1006 167 1006 191 1006 c 2,27,-1
 278 1006 l 2,28,29
 303 1006 303 1006 303 946 c 2,30,-1
 303 0 l 2,31,32
 303 -86 303 -86 294.5 -145.5 c 128,-1,33
 286 -205 286 -205 272.5 -239 c 128,-1,34
 259 -273 259 -273 234.5 -292 c 128,-1,35
 210 -311 210 -311 187 -316 c 128,-1,36
 164 -321 164 -321 128 -321 c 2,37,-1
 58 -321 l 2,15,16
EndSplineSet
EndChar

StartChar: k
Encoding: 107 107 78
Width: 683
GlyphClass: 2
Flags: W
LayerCount: 2
Fore
SplineSet
128 0 m 2,0,1
 104 0 104 0 104 63 c 2,2,-1
 104 1375 l 2,3,4
 104 1438 104 1438 128 1438 c 2,5,-1
 216 1438 l 2,6,7
 240 1438 240 1438 240 1375 c 2,8,-1
 240 522 l 2,9,10
 240 508 240 508 245 508 c 1,11,12
 247 509 247 509 248 511 c 0,13,14
 278 581 278 581 317 653 c 128,-1,15
 356 725 356 725 407.5 813.5 c 128,-1,16
 459 902 459 902 484 948 c 0,17,18
 516 1006 516 1006 534 1006 c 2,19,-1
 628 1006 l 2,20,21
 638 1006 638 1006 638 985 c 0,22,23
 638 969 638 969 627 949 c 2,24,-1
 429 584 l 1,25,26
 425 574 425 574 425 568 c 0,27,28
 425 565 425 565 429 553 c 1,29,-1
 643 61 l 2,30,31
 651 42 651 42 651 27 c 0,32,33
 651 0 651 0 640 0 c 2,34,-1
 540 0 l 2,35,36
 524 0 524 0 501 54 c 2,37,-1
 320 485 l 2,38,39
 316 495 316 495 312 495 c 0,40,41
 309 495 309 495 306 488 c 1,42,43
 299 479 299 479 284.5 445.5 c 128,-1,44
 270 412 270 412 258 383 c 2,45,-1
 246 354 l 2,46,47
 240 339 240 339 240 314 c 2,48,-1
 240 63 l 2,49,50
 240 0 240 0 216 0 c 2,51,-1
 128 0 l 2,0,1
EndSplineSet
EndChar

StartChar: l
Encoding: 108 108 79
Width: 376
GlyphClass: 2
Flags: W
LayerCount: 2
Fore
SplineSet
165 0 m 2,0,1
 140 0 140 0 140 58 c 2,2,-1
 140 1375 l 2,3,4
 140 1438 140 1438 165 1438 c 2,5,-1
 252 1438 l 2,6,7
 276 1438 276 1438 276 1375 c 2,8,-1
 276 58 l 2,9,10
 276 0 276 0 252 0 c 2,11,-1
 165 0 l 2,0,1
EndSplineSet
EndChar

StartChar: m
Encoding: 109 109 80
Width: 1071
GlyphClass: 2
Flags: W
LayerCount: 2
Fore
SplineSet
126 0 m 2,0,1
 101 0 101 0 101 63 c 2,2,-1
 101 935 l 2,3,4
 101 1006 101 1006 124 1006 c 2,5,-1
 150 1006 l 2,6,7
 174 1006 174 1006 180 948 c 2,8,-1
 195 805 l 2,9,10
 197 792 197 792 202 792 c 0,11,12
 204 792 204 792 208 806 c 0,13,14
 259 1018 259 1018 400 1018 c 0,15,16
 464 1018 464 1018 508 972 c 128,-1,17
 552 926 552 926 578 817 c 1,18,19
 581 810 581 810 583 810 c 0,20,21
 587 810 587 810 589 817 c 0,22,23
 615 919 615 919 668 968.5 c 128,-1,24
 721 1018 721 1018 779 1018 c 0,25,26
 817 1018 817 1018 845.5 1008.5 c 128,-1,27
 874 999 874 999 900.5 972.5 c 128,-1,28
 927 946 927 946 944 900.5 c 128,-1,29
 961 855 961 855 971 780.5 c 128,-1,30
 981 706 981 706 981 604 c 2,31,-1
 981 63 l 2,32,33
 981 0 981 0 956 0 c 2,34,-1
 869 0 l 2,35,36
 845 0 845 0 845 63 c 2,37,-1
 845 633 l 2,38,39
 845 788 845 788 822.5 846.5 c 128,-1,40
 800 905 800 905 750 905 c 0,41,42
 691 905 691 905 650.5 821.5 c 128,-1,43
 610 738 610 738 610 598 c 2,44,-1
 610 63 l 2,45,46
 610 0 610 0 586 0 c 2,47,-1
 499 0 l 2,48,49
 474 0 474 0 474 63 c 2,50,-1
 474 624 l 2,51,52
 474 782 474 782 450 843.5 c 128,-1,53
 426 905 426 905 376 905 c 0,54,55
 332 905 332 905 300 858.5 c 128,-1,56
 268 812 268 812 252.5 742 c 128,-1,57
 237 672 237 672 237 591 c 2,58,-1
 237 63 l 2,59,60
 237 0 237 0 212 0 c 2,61,-1
 126 0 l 2,0,1
EndSplineSet
EndChar

StartChar: n
Encoding: 110 110 81
Width: 724
GlyphClass: 2
Flags: W
LayerCount: 2
Fore
SplineSet
126 0 m 2,0,1
 101 0 101 0 101 50 c 2,2,-1
 101 944 l 2,3,4
 101 1006 101 1006 125 1006 c 2,5,-1
 144 1006 l 2,6,7
 158 1006 158 1006 165.5 997 c 128,-1,8
 173 988 173 988 178 957 c 1,9,-1
 194 826 l 1,10,11
 197 815 197 815 201 815 c 128,-1,12
 205 815 205 815 207 826 c 0,13,14
 223 885 223 885 248.5 925 c 128,-1,15
 274 965 274 965 304.5 984 c 128,-1,16
 335 1003 335 1003 362.5 1010.5 c 128,-1,17
 390 1018 390 1018 423 1018 c 0,18,19
 492 1018 492 1018 535.5 983.5 c 128,-1,20
 579 949 579 949 604 855.5 c 128,-1,21
 629 762 629 762 629 603 c 2,22,-1
 629 50 l 2,23,24
 629 20 629 20 623 10 c 128,-1,25
 617 0 617 0 605 0 c 2,26,-1
 517 0 l 2,27,28
 505 0 505 0 499 10 c 128,-1,29
 493 20 493 20 493 50 c 2,30,-1
 493 624 l 2,31,32
 493 770 493 770 469 837.5 c 128,-1,33
 445 905 445 905 394 905 c 0,34,35
 327 905 327 905 282 819.5 c 128,-1,36
 237 734 237 734 237 613 c 2,37,-1
 237 50 l 2,38,39
 237 20 237 20 231 10 c 128,-1,40
 225 0 225 0 213 0 c 2,41,-1
 126 0 l 2,0,1
EndSplineSet
EndChar

StartChar: o
Encoding: 111 111 82
Width: 739
GlyphClass: 2
Flags: W
LayerCount: 2
Fore
SplineSet
371 -11 m 128,-1,1
 326 -11 326 -11 291 -3 c 128,-1,2
 256 5 256 5 214 36 c 128,-1,3
 172 67 172 67 145 120 c 128,-1,4
 118 173 118 173 99.5 271.5 c 128,-1,5
 81 370 81 370 81 505 c 0,6,7
 81 603 81 603 90.5 681.5 c 128,-1,8
 100 760 100 760 115.5 813 c 128,-1,9
 131 866 131 866 155 904.5 c 128,-1,10
 179 943 179 943 202.5 964.5 c 128,-1,11
 226 986 226 986 257.5 998.5 c 128,-1,12
 289 1011 289 1011 314 1014.5 c 128,-1,13
 339 1018 339 1018 371 1018 c 0,14,15
 402 1018 402 1018 427.5 1014.5 c 128,-1,16
 453 1011 453 1011 484 998.5 c 128,-1,17
 515 986 515 986 538 964.5 c 128,-1,18
 561 943 561 943 585 904.5 c 128,-1,19
 609 866 609 866 624 813 c 128,-1,20
 639 760 639 760 648.5 681.5 c 128,-1,21
 658 603 658 603 658 505 c 0,22,23
 658 370 658 370 639.5 271.5 c 128,-1,24
 621 173 621 173 594 120 c 128,-1,25
 567 67 567 67 526 36 c 128,-1,26
 485 5 485 5 450.5 -3 c 128,-1,0
 416 -11 416 -11 371 -11 c 128,-1,1
370 102 m 0,27,28
 404 102 404 102 427.5 116.5 c 128,-1,29
 451 131 451 131 472 172 c 128,-1,30
 493 213 493 213 503.5 296 c 128,-1,31
 514 379 514 379 514 505 c 0,32,33
 514 632 514 632 503.5 715 c 128,-1,34
 493 798 493 798 471.5 837.5 c 128,-1,35
 450 877 450 877 427 891 c 128,-1,36
 404 905 404 905 370 905 c 128,-1,37
 336 905 336 905 312.5 891 c 128,-1,38
 289 877 289 877 268 837 c 128,-1,39
 247 797 247 797 236.5 714.5 c 128,-1,40
 226 632 226 632 226 505 c 0,41,42
 226 379 226 379 236 296 c 128,-1,43
 246 213 246 213 267 172 c 128,-1,44
 288 131 288 131 311.5 116.5 c 128,-1,45
 335 102 335 102 370 102 c 0,27,28
EndSplineSet
EndChar

StartChar: p
Encoding: 112 112 83
Width: 751
GlyphClass: 2
Flags: W
LayerCount: 2
Fore
SplineSet
384 102 m 0,0,1
 425 102 425 102 455.5 137.5 c 128,-1,2
 486 173 486 173 506 265.5 c 128,-1,3
 526 358 526 358 526 502 c 0,4,5
 526 691 526 691 486.5 798 c 128,-1,6
 447 905 447 905 384 905 c 0,7,8
 319 905 319 905 278 794 c 128,-1,9
 237 683 237 683 237 502 c 0,10,11
 237 315 237 315 278.5 208.5 c 128,-1,12
 320 102 320 102 384 102 c 0,0,1
124 -369 m 2,13,14
 101 -369 101 -369 101 -302 c 2,15,-1
 101 942 l 2,16,17
 101 1008 101 1008 122 1008 c 2,18,-1
 142 1008 l 2,19,20
 165 1008 165 1008 175 934 c 0,21,22
 194 801 194 801 194 796 c 0,23,24
 196 785 196 785 199 785 c 128,-1,25
 202 785 202 785 205 793 c 0,26,27
 234 906 234 906 292.5 962 c 128,-1,28
 351 1018 351 1018 416 1018 c 0,29,30
 466 1018 466 1018 510 988.5 c 128,-1,31
 554 959 554 959 590.5 900.5 c 128,-1,32
 627 842 627 842 648.5 741 c 128,-1,33
 670 640 670 640 670 509 c 0,34,35
 670 370 670 370 650 267 c 128,-1,36
 630 164 630 164 594.5 104.5 c 128,-1,37
 559 45 559 45 515 17 c 128,-1,38
 471 -11 471 -11 417 -11 c 0,39,40
 364 -11 364 -11 318.5 30.5 c 128,-1,41
 273 72 273 72 247 151 c 0,42,43
 245 156 245 156 241 156 c 128,-1,44
 237 156 237 156 237 145 c 2,45,-1
 237 -302 l 2,46,47
 237 -369 237 -369 213 -369 c 2,48,-1
 124 -369 l 2,13,14
EndSplineSet
EndChar

StartChar: q
Encoding: 113 113 84
Width: 743
GlyphClass: 2
Flags: W
LayerCount: 2
Fore
SplineSet
363 102 m 0,0,1
 427 102 427 102 467.5 208 c 128,-1,2
 508 314 508 314 508 502 c 0,3,4
 508 683 508 683 468 794 c 128,-1,5
 428 905 428 905 364 905 c 0,6,7
 301 905 301 905 263 798.5 c 128,-1,8
 225 692 225 692 225 502 c 0,9,10
 225 102 225 102 363 102 c 0,0,1
532 -369 m 2,11,12
 508 -369 508 -369 508 -314 c 2,13,-1
 508 145 l 2,14,15
 508 156 508 156 503 156 c 0,16,17
 500 156 500 156 498 151 c 0,18,19
 471 71 471 71 427 30 c 128,-1,20
 383 -11 383 -11 330 -11 c 0,21,22
 80 -11 80 -11 80 509 c 0,23,24
 80 620 80 620 95 709 c 128,-1,25
 110 798 110 798 134.5 854.5 c 128,-1,26
 159 911 159 911 193 949 c 128,-1,27
 227 987 227 987 263.5 1002.5 c 128,-1,28
 300 1018 300 1018 340 1018 c 0,29,30
 406 1018 406 1018 458.5 960 c 128,-1,31
 511 902 511 902 540 785 c 0,32,33
 543 777 543 777 546 777 c 128,-1,34
 549 777 549 777 551 788 c 1,35,36
 551 808 551 808 570 941 c 0,37,38
 580 1009 580 1009 603 1009 c 2,39,-1
 623 1009 l 2,40,41
 644 1009 644 1009 644 949 c 2,42,-1
 644 -314 l 2,43,44
 644 -369 644 -369 621 -369 c 2,45,-1
 532 -369 l 2,11,12
EndSplineSet
EndChar

StartChar: r
Encoding: 114 114 85
Width: 466
GlyphClass: 2
Flags: W
LayerCount: 2
Fore
SplineSet
126 0 m 2,0,1
 101 0 101 0 101 64 c 2,2,-1
 101 929 l 2,3,4
 101 1006 101 1006 121 1006 c 2,5,-1
 149 1006 l 2,6,7
 160 1006 160 1006 166 992 c 128,-1,8
 172 978 172 978 178 942 c 1,9,-1
 196 804 l 1,10,11
 200 787 200 787 203 787 c 0,12,13
 207 787 207 787 209 804 c 1,14,15
 236 903 236 903 277.5 958 c 128,-1,16
 319 1013 319 1013 364 1014 c 1,17,-1
 380 1014 l 2,18,19
 401 1014 401 1014 409 1003 c 128,-1,20
 417 992 417 992 417 966 c 2,21,-1
 417 894 l 2,22,23
 417 870 417 870 413 862.5 c 128,-1,24
 409 855 409 855 397 855 c 0,25,26
 360 853 360 853 354 851 c 0,27,28
 318 843 318 843 290.5 788.5 c 128,-1,29
 263 734 263 734 250 666.5 c 128,-1,30
 237 599 237 599 237 536 c 2,31,-1
 237 64 l 2,32,33
 237 0 237 0 213 0 c 2,34,-1
 126 0 l 2,0,1
EndSplineSet
EndChar

StartChar: s
Encoding: 115 115 86
Width: 581
GlyphClass: 2
Flags: W
LayerCount: 2
Fore
SplineSet
533 256 m 0,0,1
 533 134 533 134 467 61.5 c 128,-1,2
 401 -11 401 -11 283 -11 c 0,3,4
 142 -11 142 -11 42 109 c 1,5,6
 40 113 40 113 40 116 c 0,7,8
 40 134 40 134 62 166.5 c 128,-1,9
 84 199 84 199 97 199 c 0,10,11
 100 199 100 199 102 197 c 0,12,13
 145 147 145 147 186 124.5 c 128,-1,14
 227 102 227 102 279 102 c 0,15,16
 342 102 342 102 375.5 147 c 128,-1,17
 409 192 409 192 409 258 c 0,18,19
 409 321 409 321 375.5 361.5 c 128,-1,20
 342 402 342 402 265 453 c 0,21,22
 218 485 218 485 190 508.5 c 128,-1,23
 162 532 162 532 133 568 c 128,-1,24
 104 604 104 604 90.5 650 c 128,-1,25
 77 696 77 696 77 756 c 0,26,27
 77 870 77 870 139.5 944 c 128,-1,28
 202 1018 202 1018 303 1018 c 0,29,30
 421 1018 421 1018 510 924 c 0,31,32
 514 920 514 920 514 912 c 0,33,34
 514 892 514 892 495.5 860.5 c 128,-1,35
 477 829 477 829 467 829 c 0,36,37
 465 829 465 829 464 830 c 0,38,39
 398 901 398 901 312 901 c 0,40,41
 260 901 260 901 231 861.5 c 128,-1,42
 202 822 202 822 202 765 c 0,43,44
 202 702 202 702 233 660.5 c 128,-1,45
 264 619 264 619 330 578 c 0,46,47
 377 549 377 549 408 523 c 128,-1,48
 439 497 439 497 470.5 459 c 128,-1,49
 502 421 502 421 517.5 370 c 128,-1,50
 533 319 533 319 533 256 c 0,0,1
EndSplineSet
EndChar

StartChar: t
Encoding: 116 116 87
Width: 554
GlyphClass: 2
Flags: W
LayerCount: 2
Fore
SplineSet
386 -2 m 2,0,1
 349 -2 349 -2 321 4.5 c 128,-1,2
 293 11 293 11 265.5 31 c 128,-1,3
 238 51 238 51 220.5 85.5 c 128,-1,4
 203 120 203 120 192.5 177.5 c 128,-1,5
 182 235 182 235 182 314 c 2,6,-1
 182 862 l 2,7,8
 182 880 182 880 171 880 c 2,9,-1
 107 880 l 2,10,11
 83 880 83 880 83 924 c 2,12,-1
 83 962 l 2,13,14
 83 1006 83 1006 107 1006 c 2,15,-1
 171 1006 l 2,16,17
 181 1006 181 1006 182 1033 c 2,18,-1
 199 1387 l 1,19,20
 200 1438 200 1438 224 1438 c 2,21,-1
 294 1438 l 2,22,23
 306 1438 306 1438 312 1427.5 c 128,-1,24
 318 1417 318 1417 318 1387 c 2,25,-1
 318 1033 l 2,26,27
 318 1006 318 1006 330 1006 c 2,28,-1
 459 1006 l 2,29,30
 471 1006 471 1006 477 997 c 128,-1,31
 483 988 483 988 483 962 c 2,32,-1
 483 924 l 2,33,34
 483 898 483 898 477 889 c 128,-1,35
 471 880 471 880 459 880 c 2,36,-1
 330 880 l 2,37,38
 323 880 323 880 320.5 877 c 128,-1,39
 318 874 318 874 318 862 c 2,40,-1
 318 314 l 2,41,42
 318 230 318 230 332.5 184 c 128,-1,43
 347 138 347 138 365.5 126.5 c 128,-1,44
 384 115 384 115 413 115 c 2,45,-1
 482 115 l 2,46,47
 509 115 509 115 509 85 c 2,48,-1
 509 32 l 2,49,50
 509 -2 509 -2 480 -2 c 2,51,-1
 386 -2 l 2,0,1
EndSplineSet
EndChar

StartChar: u
Encoding: 117 117 88
Width: 756
GlyphClass: 2
Flags: W
LayerCount: 2
Fore
SplineSet
343 -11 m 0,0,1
 293 -11 293 -11 256 4.5 c 128,-1,2
 219 20 219 20 187.5 59.5 c 128,-1,3
 156 99 156 99 139.5 177.5 c 128,-1,4
 123 256 123 256 123 373 c 2,5,-1
 123 956 l 2,6,7
 123 986 123 986 129 996 c 128,-1,8
 135 1006 135 1006 147 1006 c 2,9,-1
 234 1006 l 2,10,11
 247 1006 247 1006 253 996 c 128,-1,12
 259 986 259 986 259 956 c 2,13,-1
 259 337 l 2,14,15
 259 207 259 207 286.5 154.5 c 128,-1,16
 314 102 314 102 368 102 c 0,17,18
 432 102 432 102 475 188.5 c 128,-1,19
 518 275 518 275 518 381 c 2,20,-1
 518 956 l 2,21,22
 518 986 518 986 524 996 c 128,-1,23
 530 1006 530 1006 543 1006 c 2,24,-1
 629 1006 l 2,25,26
 642 1006 642 1006 648 996 c 128,-1,27
 654 986 654 986 654 956 c 2,28,-1
 654 63 l 2,29,30
 654 0 654 0 631 0 c 2,31,-1
 611 0 l 2,32,33
 597 0 597 0 589.5 9 c 128,-1,34
 582 18 582 18 577 50 c 2,35,-1
 559 191 l 2,36,37
 557 204 557 204 552 204 c 0,38,39
 550 204 550 204 546 190 c 0,40,41
 520 83 520 83 465 36 c 128,-1,42
 410 -11 410 -11 343 -11 c 0,0,1
EndSplineSet
EndChar

StartChar: v
Encoding: 118 118 89
Width: 664
GlyphClass: 2
Flags: W
LayerCount: 2
Fore
SplineSet
279 1 m 2,0,1
 258 1 258 1 245 67 c 2,2,-1
 75 941 l 2,3,4
 72 953 72 953 72 972 c 0,5,6
 72 1006 72 1006 86 1006 c 2,7,-1
 178 1006 l 2,8,9
 201 1006 201 1006 211 944 c 2,10,-1
 333 220 l 1,11,12
 336 211 336 211 338 211 c 128,-1,13
 340 211 340 211 342 220 c 2,14,-1
 466 944 l 2,15,16
 476 1006 476 1006 501 1006 c 2,17,-1
 581 1006 l 2,18,19
 595 1006 595 1006 595 975 c 0,20,21
 595 968 595 968 591 942 c 1,22,-1
 422 67 l 2,23,24
 409 1 409 1 385 1 c 2,25,-1
 279 1 l 2,0,1
EndSplineSet
EndChar

StartChar: w
Encoding: 119 119 90
Width: 916
GlyphClass: 2
Flags: W
LayerCount: 2
Fore
SplineSet
244 0 m 2,0,1
 219 0 219 0 210 60 c 1,2,-1
 58 940 l 2,3,4
 55 956 55 956 55 970 c 0,5,6
 55 1006 55 1006 71 1006 c 2,7,-1
 147 1006 l 2,8,9
 169 1006 169 1006 179 942 c 2,10,-1
 285 224 l 1,11,12
 289 214 289 214 290 214 c 0,13,14
 292 214 292 214 294 223 c 2,15,-1
 401 943 l 2,16,17
 411 1006 411 1006 434 1006 c 2,18,-1
 502 1006 l 2,19,20
 520 1006 520 1006 531 943 c 2,21,-1
 647 222 l 2,22,23
 648 215 648 215 651 215 c 128,-1,24
 654 215 654 215 654 223 c 2,25,-1
 742 943 l 2,26,27
 749 1006 749 1006 775 1006 c 2,28,-1
 846 1006 l 2,29,30
 861 1006 861 1006 861 973 c 0,31,32
 861 958 861 958 857 941 c 1,33,-1
 729 60 l 1,34,35
 719 0 719 0 693 0 c 2,36,-1
 608 0 l 2,37,38
 582 0 582 0 572 61 c 2,39,-1
 469 718 l 2,40,41
 468 725 468 725 466 725 c 0,42,43
 463 725 463 725 461 718 c 2,44,-1
 358 61 l 2,45,46
 348 0 348 0 322 0 c 2,47,-1
 244 0 l 2,0,1
EndSplineSet
EndChar

StartChar: x
Encoding: 120 120 91
Width: 643
GlyphClass: 2
Flags: W
LayerCount: 2
Fore
SplineSet
60 0 m 2,0,1
 52 0 52 0 52 26 c 0,2,3
 52 41 52 41 54 46 c 0,4,5
 136 247 136 247 236 473 c 0,6,7
 238 479 238 479 238 487 c 0,8,9
 238 493 238 493 236 503 c 1,10,11
 171 656 171 656 53 958 c 0,12,13
 49 968 49 968 49 978 c 0,14,15
 49 1006 49 1006 59 1006 c 2,16,-1
 154 1006 l 2,17,18
 165 1006 165 1006 172 994.5 c 128,-1,19
 179 983 179 983 190 956 c 2,20,-1
 317 631 l 2,21,22
 320 624 320 624 323 624 c 0,23,24
 327 624 327 624 330 630 c 2,25,-1
 443 958 l 2,26,27
 459 1006 459 1006 484 1006 c 2,28,-1
 572 1006 l 2,29,30
 581 1006 581 1006 581 981 c 0,31,32
 581 967 581 967 577 960 c 1,33,34
 563 924 563 924 487.5 752 c 128,-1,35
 412 580 412 580 400 551 c 0,36,37
 396 543 396 543 396 536 c 128,-1,38
 396 529 396 529 400 519 c 0,39,40
 547 170 547 170 596 48 c 0,41,42
 600 40 600 40 600 28 c 0,43,44
 600 0 600 0 591 0 c 2,45,-1
 512 0 l 2,46,47
 500 0 500 0 487.5 14 c 128,-1,48
 475 28 475 28 467 50 c 0,49,50
 462 61 462 61 436.5 121.5 c 128,-1,51
 411 182 411 182 379 257 c 128,-1,52
 347 332 347 332 333 365 c 0,53,54
 329 373 329 373 325 373 c 0,55,56
 323 373 323 373 316 365 c 1,57,58
 300 325 300 325 251 193.5 c 128,-1,59
 202 62 202 62 196 47 c 1,60,61
 173 0 173 0 151 0 c 2,62,-1
 60 0 l 2,0,1
EndSplineSet
EndChar

StartChar: y
Encoding: 121 121 92
Width: 660
GlyphClass: 2
Flags: W
LayerCount: 2
Fore
SplineSet
224 -142 m 0,0,1
 251 -142 251 -142 274.5 -96 c 128,-1,2
 298 -50 298 -50 298 16 c 0,3,4
 298 42 298 42 278 126 c 1,5,-1
 68 947 l 1,6,7
 66 961 66 961 66 969 c 0,8,9
 66 1006 66 1006 81 1006 c 2,10,-1
 176 1006 l 2,11,12
 203 1006 203 1006 211 956 c 1,13,-1
 362 272 l 1,14,15
 366 261 366 261 367 261 c 0,16,17
 371 261 371 261 371 272 c 1,18,-1
 495 953 l 1,19,20
 502 1006 502 1006 528 1006 c 2,21,-1
 596 1006 l 2,22,23
 613 1006 613 1006 613 966 c 0,24,25
 613 964 613 964 610 943 c 1,26,-1
 430 14 l 1,27,28
 402 -141 402 -141 359.5 -200 c 128,-1,29
 317 -259 317 -259 247 -262 c 1,30,-1
 234 -262 l 2,31,32
 154 -262 154 -262 130 -222 c 0,33,34
 125 -213 125 -213 125 -186 c 0,35,36
 125 -124 125 -124 147 -124 c 0,37,38
 150 -124 150 -124 181 -133 c 128,-1,39
 212 -142 212 -142 224 -142 c 0,0,1
EndSplineSet
EndChar

StartChar: z
Encoding: 122 122 93
Width: 540
GlyphClass: 2
Flags: W
LayerCount: 2
Fore
SplineSet
93 0 m 2,0,1
 76 0 76 0 76 22 c 2,2,-1
 76 105 l 2,3,4
 76 130 76 130 90 169 c 2,5,-1
 338 881 l 1,6,-1
 89 881 l 2,7,8
 77 881 77 881 77 906 c 2,9,-1
 77 982 l 2,10,11
 77 1006 77 1006 89 1006 c 2,12,-1
 458 1006 l 2,13,14
 464 1006 464 1006 469.5 1000 c 128,-1,15
 475 994 475 994 475 982 c 2,16,-1
 475 886 l 2,17,18
 475 859 475 859 465 829 c 2,19,-1
 220 116 l 1,20,-1
 474 116 l 2,21,22
 486 116 486 116 486 92 c 2,23,-1
 486 23 l 2,24,25
 486 0 486 0 474 0 c 2,26,-1
 93 0 l 2,0,1
EndSplineSet
EndChar

StartChar: braceleft
Encoding: 123 123 94
Width: 518
GlyphClass: 2
Flags: W
LayerCount: 2
Fore
SplineSet
411 1543 m 2,0,1
 423 1543 423 1543 430.5 1529 c 128,-1,2
 438 1515 438 1515 438 1492 c 2,3,-1
 438 1468 l 2,4,5
 438 1440 438 1440 428.5 1428 c 128,-1,6
 419 1416 419 1416 394 1416 c 0,7,8
 358 1416 358 1416 350 1375.5 c 128,-1,9
 342 1335 342 1335 341 1158 c 1,10,-1
 341 976 l 2,11,12
 341 861 341 861 327.5 804 c 128,-1,13
 314 747 314 747 273 734 c 0,14,15
 270 733 270 733 269.5 727.5 c 128,-1,16
 269 722 269 722 273 720 c 0,17,18
 314 707 314 707 326.5 654 c 128,-1,19
 339 601 339 601 339 491 c 2,20,-1
 339 310 l 1,21,22
 340 124 340 124 348 80 c 128,-1,23
 356 36 356 36 394 36 c 0,24,25
 419 36 419 36 428.5 24 c 128,-1,26
 438 12 438 12 438 -16 c 2,27,-1
 438 -40 l 2,28,29
 438 -63 438 -63 430.5 -77 c 128,-1,30
 423 -91 423 -91 411 -91 c 2,31,-1
 341 -91 l 2,32,33
 289 -91 289 -91 261.5 -61 c 128,-1,34
 234 -31 234 -31 219.5 52 c 128,-1,35
 205 135 205 135 204 291 c 1,36,-1
 204 453 l 1,37,38
 203 565 203 565 190.5 603 c 128,-1,39
 178 641 178 641 143 642 c 0,40,41
 115 642 115 642 105 655 c 128,-1,42
 95 668 95 668 95 708 c 2,43,-1
 95 748 l 2,44,45
 95 784 95 784 105 795 c 128,-1,46
 115 806 115 806 143 807 c 0,47,48
 167 808 167 808 179.5 827.5 c 128,-1,49
 192 847 192 847 197.5 887.5 c 128,-1,50
 203 928 203 928 204 1004 c 1,51,-1
 204 1173 l 1,52,53
 205 1329 205 1329 220 1409.5 c 128,-1,54
 235 1490 235 1490 262.5 1516.5 c 128,-1,55
 290 1543 290 1543 341 1543 c 2,56,-1
 411 1543 l 2,0,1
EndSplineSet
EndChar

StartChar: bar
Encoding: 124 124 95
Width: 313
GlyphClass: 2
Flags: W
LayerCount: 2
Fore
SplineSet
140 -150 m 2,0,1
 112 -150 112 -150 112 -84 c 2,2,-1
 112 1489 l 2,3,4
 112 1555 112 1555 140 1555 c 2,5,-1
 174 1555 l 2,6,7
 200 1555 200 1555 200 1489 c 2,8,-1
 200 -84 l 2,9,10
 200 -150 200 -150 174 -150 c 2,11,-1
 140 -150 l 2,0,1
EndSplineSet
EndChar

StartChar: braceright
Encoding: 125 125 96
Width: 518
GlyphClass: 2
Flags: W
LayerCount: 2
Fore
SplineSet
121 -91 m 2,0,1
 110 -91 110 -91 102.5 -77 c 128,-1,2
 95 -63 95 -63 95 -40 c 2,3,-1
 95 -16 l 2,4,5
 95 12 95 12 104 24 c 128,-1,6
 113 36 113 36 138 36 c 0,7,8
 175 36 175 36 182.5 75.5 c 128,-1,9
 190 115 190 115 191 294 c 1,10,-1
 191 476 l 1,11,12
 192 592 192 592 205 648.5 c 128,-1,13
 218 705 218 705 259 718 c 0,14,15
 263 719 263 719 263 724.5 c 128,-1,16
 263 730 263 730 259 732 c 0,17,18
 219 745 219 745 206.5 798 c 128,-1,19
 194 851 194 851 193 961 c 1,20,-1
 193 1142 l 2,21,22
 193 1327 193 1327 184.5 1371.5 c 128,-1,23
 176 1416 176 1416 138 1416 c 0,24,25
 113 1416 113 1416 104 1428 c 128,-1,26
 95 1440 95 1440 95 1468 c 2,27,-1
 95 1492 l 2,28,29
 95 1515 95 1515 102.5 1529 c 128,-1,30
 110 1543 110 1543 121 1543 c 2,31,-1
 191 1543 l 2,32,33
 243 1543 243 1543 271 1512.5 c 128,-1,34
 299 1482 299 1482 313 1400 c 128,-1,35
 327 1318 327 1318 328 1161 c 1,36,-1
 328 999 l 1,37,38
 329 887 329 887 342 849 c 128,-1,39
 355 811 355 811 390 810 c 0,40,41
 418 810 418 810 428 797 c 128,-1,42
 438 784 438 784 438 744 c 2,43,-1
 438 704 l 2,44,45
 438 668 438 668 427.5 657 c 128,-1,46
 417 646 417 646 390 645 c 0,47,48
 355 644 355 644 343 602 c 128,-1,49
 331 560 331 560 329 447 c 0,50,51
 328 440 328 440 328 279 c 1,52,53
 327 124 327 124 312 43 c 128,-1,54
 297 -38 297 -38 269.5 -64.5 c 128,-1,55
 242 -91 242 -91 191 -91 c 2,56,-1
 121 -91 l 2,0,1
EndSplineSet
EndChar

StartChar: asciitilde
Encoding: 126 126 97
Width: 816
GlyphClass: 2
Flags: W
LayerCount: 2
Fore
SplineSet
48 619 m 2,0,1
 48 632 48 632 63.5 644 c 128,-1,2
 79 656 79 656 93 656 c 0,3,4
 98 656 98 656 101.5 655 c 128,-1,5
 105 654 105 654 108 651 c 128,-1,6
 111 648 111 648 112 646.5 c 128,-1,7
 113 645 113 645 116 640 c 2,8,-1
 118 636 l 1,9,10
 156 576 156 576 181 559 c 128,-1,11
 206 542 206 542 249 542 c 0,12,13
 287 542 287 542 412.5 599.5 c 128,-1,14
 538 657 538 657 583 657 c 0,15,16
 617 657 617 657 641.5 649 c 128,-1,17
 666 641 666 641 688 618 c 128,-1,18
 710 595 710 595 722.5 575.5 c 128,-1,19
 735 556 735 556 761 512 c 0,20,21
 768 501 768 501 768 485 c 0,22,23
 768 459 768 459 760.5 449.5 c 128,-1,24
 753 440 753 440 727 438 c 1,25,26
 709 435 709 435 696 458 c 1,27,28
 692 463 692 463 679.5 480.5 c 128,-1,29
 667 498 667 498 662 503 c 128,-1,30
 657 508 657 508 646 518 c 128,-1,31
 635 528 635 528 623.5 531 c 128,-1,32
 612 534 612 534 597 534 c 0,33,34
 559 534 559 534 499 505 c 128,-1,35
 439 476 439 476 372.5 447 c 128,-1,36
 306 418 306 418 253 418 c 0,37,38
 224 418 224 418 201 423 c 128,-1,39
 178 428 178 428 158.5 442.5 c 128,-1,40
 139 457 139 457 127.5 466.5 c 128,-1,41
 116 476 116 476 100.5 501.5 c 128,-1,42
 85 527 85 527 80 536.5 c 128,-1,43
 75 546 75 546 59 577 c 1,44,45
 48 594 48 594 48 610 c 2,46,-1
 48 619 l 2,0,1
EndSplineSet
EndChar

StartChar: cent
Encoding: 162 162 99
Width: 558
GlyphClass: 2
Flags: W
LayerCount: 2
Fore
SplineSet
354 110 m 1,0,-1
 354 897 l 1,1,2
 326 891 326 891 305.5 872.5 c 128,-1,3
 285 854 285 854 265.5 813.5 c 128,-1,4
 246 773 246 773 235.5 696 c 128,-1,5
 225 619 225 619 225 508 c 0,6,7
 225 359 225 359 243.5 270 c 128,-1,8
 262 181 262 181 288 149.5 c 128,-1,9
 314 118 314 118 354 110 c 1,0,-1
501 983 m 2,10,-1
 501 897 l 2,11,12
 501 893 501 893 497.5 888 c 128,-1,13
 494 883 494 883 491 883 c 0,14,15
 486 884 486 884 459 891 c 128,-1,16
 432 898 432 898 419 899 c 1,17,-1
 419 108 l 1,18,19
 447 110 447 110 490 124 c 1,20,21
 493 123 493 123 497.5 116.5 c 128,-1,22
 502 110 502 110 502 106 c 2,23,-1
 502 26 l 2,24,25
 502 20 502 20 499 15.5 c 128,-1,26
 496 11 496 11 489.5 7.5 c 128,-1,27
 483 4 483 4 477.5 2 c 128,-1,28
 472 0 472 0 461.5 -2 c 128,-1,29
 451 -4 451 -4 446.5 -5 c 128,-1,30
 442 -6 442 -6 431 -7 c 128,-1,31
 420 -8 420 -8 419 -8 c 1,32,-1
 419 -134 l 2,33,34
 419 -187 419 -187 397 -187 c 2,35,-1
 376 -187 l 2,36,37
 354 -187 354 -187 354 -134 c 2,38,-1
 354 -11 l 1,39,40
 309 -9 309 -9 274 2.5 c 128,-1,41
 239 14 239 14 201 47.5 c 128,-1,42
 163 81 163 81 138 135.5 c 128,-1,43
 113 190 113 190 97 285 c 128,-1,44
 81 380 81 380 81 508 c 0,45,46
 81 633 81 633 97 726 c 128,-1,47
 113 819 113 819 138.5 873.5 c 128,-1,48
 164 928 164 928 201 961 c 128,-1,49
 238 994 238 994 274 1005.5 c 128,-1,50
 310 1017 310 1017 354 1018 c 1,51,-1
 354 1182 l 2,52,53
 354 1232 354 1232 376 1232 c 2,54,-1
 397 1232 l 2,55,56
 419 1232 419 1232 419 1182 c 2,57,-1
 419 1013 l 1,58,59
 501 1003 501 1003 501 983 c 2,10,-1
EndSplineSet
EndChar

StartChar: sterling
Encoding: 163 163 100
Width: 926
GlyphClass: 2
Flags: W
LayerCount: 2
Fore
SplineSet
603 1462 m 0,0,1
 738 1462 738 1462 835 1407 c 0,2,3
 857 1395 857 1395 867.5 1385.5 c 128,-1,4
 878 1376 878 1376 878 1360 c 0,5,6
 878 1353 878 1353 877 1349 c 2,7,-1
 866 1299 l 1,8,9
 860 1279 860 1279 849.5 1275 c 128,-1,10
 839 1271 839 1271 819 1278 c 1,11,12
 807 1281 807 1281 775.5 1295.5 c 128,-1,13
 744 1310 744 1310 705 1319.5 c 128,-1,14
 666 1329 666 1329 615 1329 c 0,15,16
 562 1329 562 1329 525.5 1321.5 c 128,-1,17
 489 1314 489 1314 462 1293 c 128,-1,18
 435 1272 435 1272 419 1243.5 c 128,-1,19
 403 1215 403 1215 393.5 1165 c 128,-1,20
 384 1115 384 1115 381 1057.5 c 128,-1,21
 378 1000 378 1000 378 914 c 2,22,-1
 378 787 l 1,23,-1
 681 787 l 2,24,25
 721 787 721 787 721 743 c 2,26,-1
 721 715 l 2,27,28
 721 672 721 672 681 672 c 2,29,-1
 376 672 l 1,30,-1
 376 165 l 2,31,32
 376 136 376 136 381 128.5 c 128,-1,33
 386 121 386 121 408 121 c 2,34,-1
 836 121 l 2,35,36
 856 121 856 121 864.5 113 c 128,-1,37
 873 105 873 105 873 83 c 2,38,-1
 873 33 l 2,39,40
 873 13 873 13 865 6.5 c 128,-1,41
 857 0 857 0 836 0 c 2,42,-1
 90 0 l 2,43,44
 62 0 62 0 52.5 9 c 128,-1,45
 43 18 43 18 43 43 c 2,46,-1
 43 77 l 2,47,48
 43 102 43 102 52.5 111.5 c 128,-1,49
 62 121 62 121 90 121 c 2,50,-1
 188 121 l 2,51,52
 207 121 207 121 212 125 c 128,-1,53
 217 129 217 129 217 144 c 2,54,-1
 217 629 l 2,55,56
 217 672 217 672 188 672 c 2,57,-1
 85 672 l 2,58,59
 43 672 43 672 43 715 c 2,60,-1
 43 743 l 2,61,62
 43 787 43 787 85 787 c 2,63,-1
 214 787 l 1,64,65
 214 798 214 798 213.5 861.5 c 128,-1,66
 213 925 213 925 213 937 c 0,67,68
 213 999 213 999 215.5 1044.5 c 128,-1,69
 218 1090 218 1090 224.5 1142.5 c 128,-1,70
 231 1195 231 1195 243.5 1233 c 128,-1,71
 256 1271 256 1271 275 1309.5 c 128,-1,72
 294 1348 294 1348 323.5 1374 c 128,-1,73
 353 1400 353 1400 392 1421 c 128,-1,74
 431 1442 431 1442 484 1452 c 128,-1,75
 537 1462 537 1462 603 1462 c 0,0,1
EndSplineSet
EndChar

StartChar: currency
Encoding: 164 164 101
Width: 1117
GlyphClass: 2
Flags: W
LayerCount: 2
Fore
SplineSet
558 655 m 128,-1,1
 648 655 648 655 717.5 686 c 128,-1,2
 787 717 787 717 826 768.5 c 128,-1,3
 865 820 865 820 884.5 879 c 128,-1,4
 904 938 904 938 904 1001 c 0,5,6
 904 1068 904 1068 884.5 1128 c 128,-1,7
 865 1188 865 1188 826 1239.5 c 128,-1,8
 787 1291 787 1291 718 1321.5 c 128,-1,9
 649 1352 649 1352 558 1352 c 128,-1,10
 467 1352 467 1352 398 1321.5 c 128,-1,11
 329 1291 329 1291 289.5 1239.5 c 128,-1,12
 250 1188 250 1188 230.5 1128 c 128,-1,13
 211 1068 211 1068 211 1001 c 0,14,15
 211 938 211 938 230.5 879 c 128,-1,16
 250 820 250 820 289.5 768.5 c 128,-1,17
 329 717 329 717 398.5 686 c 128,-1,0
 468 655 468 655 558 655 c 128,-1,1
558 565 m 128,-1,19
 475 565 475 565 414.5 584 c 128,-1,20
 354 603 354 603 294 643 c 1,21,-1
 267 615 l 2,22,23
 233 581 233 581 218 581 c 0,24,25
 206 581 206 581 196 592 c 2,26,-1
 168 620 l 2,27,28
 156 632 156 632 156 645 c 0,29,30
 156 660 156 660 188 694 c 1,31,-1
 210 716 l 1,32,33
 107 833 107 833 107 1004 c 0,34,35
 107 1177 107 1177 212 1297 c 1,36,-1
 188 1320 l 1,37,38
 154 1354 154 1354 154 1370 c 0,39,40
 154 1381 154 1381 165 1391 c 2,41,-1
 193 1419 l 2,42,43
 205 1431 205 1431 219 1431 c 0,44,45
 235 1431 235 1431 267 1399 c 2,46,-1
 297 1370 l 1,47,48
 357 1408 357 1408 417 1427 c 128,-1,49
 477 1446 477 1446 558 1446 c 128,-1,50
 639 1446 639 1446 700 1427 c 128,-1,51
 761 1408 761 1408 821 1370 c 1,52,-1
 849 1398 l 2,53,54
 882 1431 882 1431 899 1431 c 0,55,56
 911 1431 911 1431 923 1419 c 2,57,-1
 952 1391 l 2,58,59
 962 1380 962 1380 962 1370 c 0,60,61
 962 1353 962 1353 929 1320 c 2,62,-1
 905 1297 l 1,63,64
 1010 1177 1010 1177 1010 1004 c 0,65,66
 1010 834 1010 834 907 716 c 1,67,-1
 929 694 l 2,68,69
 962 661 962 661 962 645 c 0,70,71
 962 633 962 633 949 621 c 1,72,-1
 921 592 l 2,73,74
 910 581 910 581 900 581 c 0,75,76
 882 581 882 581 850 615 c 2,77,-1
 823 643 l 1,78,79
 763 604 763 604 702 584.5 c 128,-1,18
 641 565 641 565 558 565 c 128,-1,19
EndSplineSet
EndChar

StartChar: yen
Encoding: 165 165 102
Width: 693
GlyphClass: 2
Flags: W
LayerCount: 2
Fore
SplineSet
293 0 m 2,0,1
 281 0 281 0 275 11 c 128,-1,2
 269 22 269 22 269 52 c 2,3,-1
 269 347 l 1,4,-1
 128 347 l 2,5,6
 116 347 116 347 111 354 c 128,-1,7
 106 361 106 361 106 384 c 2,8,-1
 106 436 l 2,9,10
 106 459 106 459 111 466 c 128,-1,11
 116 473 116 473 128 473 c 2,12,-1
 261 473 l 1,13,-1
 252 569 l 1,14,-1
 128 569 l 2,15,16
 116 569 116 569 111 576 c 128,-1,17
 106 583 106 583 106 606 c 2,18,-1
 106 658 l 2,19,20
 106 681 106 681 111 688 c 128,-1,21
 116 695 116 695 128 695 c 2,22,-1
 226 695 l 1,23,-1
 42 1379 l 2,24,25
 37 1396 37 1396 37 1411 c 0,26,27
 37 1438 37 1438 55 1438 c 2,28,-1
 154 1438 l 2,29,30
 184 1438 184 1438 196 1390 c 2,31,-1
 352 741 l 1,32,-1
 362 741 l 1,33,-1
 518 1389 l 1,34,35
 522 1411 522 1411 533.5 1424.5 c 128,-1,36
 545 1438 545 1438 557 1438 c 2,37,-1
 640 1438 l 2,38,39
 658 1438 658 1438 658 1409 c 0,40,41
 658 1395 658 1395 653 1379 c 2,42,-1
 471 695 l 1,43,-1
 565 695 l 2,44,45
 577 695 577 695 582.5 687.5 c 128,-1,46
 588 680 588 680 588 658 c 2,47,-1
 588 606 l 2,48,49
 588 584 588 584 582.5 576.5 c 128,-1,50
 577 569 577 569 565 569 c 2,51,-1
 445 569 l 1,52,-1
 436 473 l 1,53,-1
 562 473 l 2,54,55
 574 473 574 473 579 465.5 c 128,-1,56
 584 458 584 458 584 436 c 2,57,-1
 584 384 l 2,58,59
 584 362 584 362 579 354.5 c 128,-1,60
 574 347 574 347 562 347 c 2,61,-1
 429 347 l 1,62,-1
 429 52 l 2,63,64
 429 22 429 22 423 11 c 128,-1,65
 417 0 417 0 405 0 c 2,66,-1
 293 0 l 2,0,1
EndSplineSet
EndChar

StartChar: brokenbar
Encoding: 166 166 103
Width: 406
GlyphClass: 2
Flags: W
LayerCount: 2
Fore
SplineSet
181 843 m 2,0,1
 157 843 157 843 157 899 c 2,2,-1
 157 1479 l 2,3,4
 157 1535 157 1535 181 1535 c 2,5,-1
 224 1535 l 2,6,7
 249 1535 249 1535 249 1479 c 2,8,-1
 249 899 l 2,9,10
 249 843 249 843 224 843 c 2,11,-1
 181 843 l 2,0,1
181 -108 m 2,12,13
 157 -108 157 -108 157 -52 c 2,14,-1
 157 525 l 2,15,16
 157 581 157 581 181 581 c 2,17,-1
 224 581 l 2,18,19
 249 581 249 581 249 525 c 2,20,-1
 249 -52 l 2,21,22
 249 -108 249 -108 224 -108 c 2,23,-1
 181 -108 l 2,12,13
EndSplineSet
EndChar

StartChar: section
Encoding: 167 167 104
Width: 789
GlyphClass: 2
Flags: W
LayerCount: 2
Fore
SplineSet
527 557 m 1,0,1
 550 570 550 570 569 613.5 c 128,-1,2
 588 657 588 657 588 698 c 0,3,4
 588 772 588 772 542 811 c 128,-1,5
 496 850 496 850 397 881 c 1,6,7
 333 895 333 895 300 908 c 1,8,9
 235 867 235 867 235 768 c 0,10,11
 235 705 235 705 279 667.5 c 128,-1,12
 323 630 323 630 417 595 c 1,13,14
 450 585 450 585 527 557 c 1,0,1
399 -14 m 0,15,16
 236 -14 236 -14 120 89 c 0,17,18
 109 98 109 98 109 123 c 1,19,-1
 125 169 l 2,20,21
 129 182 129 182 141 189.5 c 128,-1,22
 153 197 153 197 161 192 c 1,23,24
 222 141 222 141 278.5 117.5 c 128,-1,25
 335 94 335 94 410 94 c 0,26,27
 490 94 490 94 531.5 144 c 128,-1,28
 573 194 573 194 573 271 c 0,29,30
 573 345 573 345 530 387 c 128,-1,31
 487 429 487 429 397 460 c 1,32,33
 352 474 352 474 325.5 484.5 c 128,-1,34
 299 495 299 495 263.5 512 c 128,-1,35
 228 529 228 529 207.5 549 c 128,-1,36
 187 569 187 569 166.5 597.5 c 128,-1,37
 146 626 146 626 137 665 c 128,-1,38
 128 704 128 704 128 752 c 0,39,40
 128 887 128 887 219 956 c 1,41,42
 128 1037 128 1037 128 1174 c 0,43,44
 128 1250 128 1250 152 1306 c 128,-1,45
 176 1362 176 1362 216.5 1392.5 c 128,-1,46
 257 1423 257 1423 303 1437 c 128,-1,47
 349 1451 349 1451 400 1451 c 0,48,49
 472 1451 472 1451 526.5 1433 c 128,-1,50
 581 1415 581 1415 634 1372 c 0,51,52
 638 1369 638 1369 642.5 1358.5 c 128,-1,53
 647 1348 647 1348 647 1341 c 1,54,-1
 628 1291 l 2,55,56
 624 1280 624 1280 612 1275 c 128,-1,57
 600 1270 600 1270 593 1275 c 0,58,59
 547 1311 547 1311 511 1326 c 128,-1,60
 475 1341 475 1341 413 1341 c 0,61,62
 249 1341 249 1341 249 1188 c 0,63,64
 249 1120 249 1120 287 1084.5 c 128,-1,65
 325 1049 325 1049 417 1017 c 0,66,67
 457 1004 457 1004 481 995 c 128,-1,68
 505 986 505 986 538 971 c 128,-1,69
 571 956 571 956 590 941 c 128,-1,70
 609 926 609 926 631 902.5 c 128,-1,71
 653 879 653 879 664.5 851.5 c 128,-1,72
 676 824 676 824 683.5 786.5 c 128,-1,73
 691 749 691 749 691 703 c 0,74,75
 691 580 691 580 606 500 c 1,76,77
 691 413 691 413 691 280 c 0,78,79
 691 -14 691 -14 399 -14 c 0,15,16
EndSplineSet
EndChar

StartChar: dieresis
Encoding: 168 168 105
Width: 298
GlyphClass: 2
Flags: W
LayerCount: 2
Fore
SplineSet
290 0 m 2,0,1
 279 0 279 0 271.5 15 c 128,-1,2
 264 30 264 30 264 57 c 2,3,-1
 264 114 l 2,4,5
 264 141 264 141 271.5 156 c 128,-1,6
 279 171 279 171 290 171 c 2,7,-1
 345 171 l 2,8,9
 357 171 357 171 364.5 156 c 128,-1,10
 372 141 372 141 372 114 c 2,11,-1
 372 57 l 2,12,13
 372 30 372 30 364.5 15 c 128,-1,14
 357 0 357 0 345 0 c 2,15,-1
 290 0 l 2,0,1
67 0 m 2,16,17
 55 0 55 0 47.5 15 c 128,-1,18
 40 30 40 30 40 57 c 2,19,-1
 40 114 l 2,20,21
 40 141 40 141 47.5 156 c 128,-1,22
 55 171 55 171 67 171 c 2,23,-1
 122 171 l 2,24,25
 134 171 134 171 141.5 156 c 128,-1,26
 149 141 149 141 149 114 c 2,27,-1
 149 57 l 2,28,29
 149 30 149 30 141.5 15 c 128,-1,30
 134 0 134 0 122 0 c 2,31,-1
 67 0 l 2,16,17
EndSplineSet
EndChar

StartChar: copyright
Encoding: 169 169 106
Width: 1401
GlyphClass: 2
Flags: W
LayerCount: 2
Fore
SplineSet
700 -15 m 0,0,1
 578 -15 578 -15 477 24.5 c 128,-1,2
 376 64 376 64 305.5 132 c 128,-1,3
 235 200 235 200 186.5 293.5 c 128,-1,4
 138 387 138 387 115.5 494.5 c 128,-1,5
 93 602 93 602 93 720 c 128,-1,6
 93 838 93 838 115.5 945.5 c 128,-1,7
 138 1053 138 1053 186.5 1146.5 c 128,-1,8
 235 1240 235 1240 305.5 1308.5 c 128,-1,9
 376 1377 376 1377 477 1416.5 c 128,-1,10
 578 1456 578 1456 700 1456 c 0,11,12
 823 1456 823 1456 924.5 1416.5 c 128,-1,13
 1026 1377 1026 1377 1096 1308.5 c 128,-1,14
 1166 1240 1166 1240 1214.5 1146.5 c 128,-1,15
 1263 1053 1263 1053 1285.5 945.5 c 128,-1,16
 1308 838 1308 838 1308 720 c 128,-1,17
 1308 602 1308 602 1285.5 494.5 c 128,-1,18
 1263 387 1263 387 1214.5 293.5 c 128,-1,19
 1166 200 1166 200 1096 132 c 128,-1,20
 1026 64 1026 64 924.5 24.5 c 128,-1,21
 823 -15 823 -15 700 -15 c 0,0,1
703 80 m 128,-1,23
 810 80 810 80 897 117 c 128,-1,24
 984 154 984 154 1040.5 216 c 128,-1,25
 1097 278 1097 278 1135 361.5 c 128,-1,26
 1173 445 1173 445 1189.5 533 c 128,-1,27
 1206 621 1206 621 1206 716 c 0,28,29
 1206 814 1206 814 1189.5 904 c 128,-1,30
 1173 994 1173 994 1135 1078 c 128,-1,31
 1097 1162 1097 1162 1040.5 1223.5 c 128,-1,32
 984 1285 984 1285 897 1322 c 128,-1,33
 810 1359 810 1359 703 1359 c 0,34,35
 595 1359 595 1359 508.5 1322 c 128,-1,36
 422 1285 422 1285 365 1223.5 c 128,-1,37
 308 1162 308 1162 270 1078 c 128,-1,38
 232 994 232 994 215.5 904 c 128,-1,39
 199 814 199 814 199 716 c 0,40,41
 199 621 199 621 215.5 533 c 128,-1,42
 232 445 232 445 270 361.5 c 128,-1,43
 308 278 308 278 365 216 c 128,-1,44
 422 154 422 154 509 117 c 128,-1,22
 596 80 596 80 703 80 c 128,-1,23
717 338 m 0,45,46
 587 338 587 338 500 437 c 128,-1,47
 413 536 413 536 413 728 c 0,48,49
 413 829 413 829 439 906 c 128,-1,50
 465 983 465 983 508.5 1027 c 128,-1,51
 552 1071 552 1071 602.5 1092.5 c 128,-1,52
 653 1114 653 1114 708 1114 c 0,53,54
 821 1114 821 1114 896 1051 c 0,55,56
 905 1044 905 1044 905 1023 c 0,57,58
 905 1004 905 1004 896 985.5 c 128,-1,59
 887 967 887 967 876 967 c 0,60,61
 874 967 874 967 870 969 c 0,62,63
 790 1022 790 1022 727 1022 c 0,64,65
 630 1022 630 1022 572.5 945.5 c 128,-1,66
 515 869 515 869 515 727 c 0,67,68
 515 576 515 576 574.5 503.5 c 128,-1,69
 634 431 634 431 726 431 c 0,70,71
 746 431 746 431 762 433 c 128,-1,72
 778 435 778 435 793 440 c 128,-1,73
 808 445 808 445 816.5 448.5 c 128,-1,74
 825 452 825 452 841 460.5 c 128,-1,75
 857 469 857 469 864 472 c 0,76,77
 866 473 866 473 870 473 c 0,78,79
 882 473 882 473 892.5 454.5 c 128,-1,80
 903 436 903 436 903 416 c 0,81,82
 903 393 903 393 889 386 c 0,83,84
 839 359 839 359 804.5 348.5 c 128,-1,85
 770 338 770 338 717 338 c 0,45,46
EndSplineSet
EndChar

StartChar: ordfeminine
Encoding: 170 170 107
Width: 699
GlyphClass: 2
Flags: W
LayerCount: 2
Fore
SplineSet
316 700 m 0,0,1
 379 700 379 700 415 781.5 c 128,-1,2
 451 863 451 863 451 982 c 0,3,4
 451 1038 451 1038 446 1038 c 0,5,6
 445 1038 445 1038 428 1035.5 c 128,-1,7
 411 1033 411 1033 410 1032 c 0,8,9
 314 1010 314 1010 272 957.5 c 128,-1,10
 230 905 230 905 230 823 c 0,11,12
 230 700 230 700 316 700 c 0,0,1
294 614 m 0,13,14
 213 614 213 614 171.5 666 c 128,-1,15
 130 718 130 718 130 814 c 0,16,17
 130 875 130 875 146 923 c 128,-1,18
 162 971 162 971 188 1000.5 c 128,-1,19
 214 1030 214 1030 245.5 1050.5 c 128,-1,20
 277 1071 277 1071 311 1081 c 128,-1,21
 345 1091 345 1091 372.5 1096.5 c 128,-1,22
 400 1102 400 1102 422 1106 c 128,-1,23
 444 1110 444 1110 449 1114 c 1,24,-1
 449 1158 l 2,25,26
 449 1251 449 1251 428.5 1299.5 c 128,-1,27
 408 1348 408 1348 352 1348 c 0,28,29
 303 1348 303 1348 279.5 1320.5 c 128,-1,30
 256 1293 256 1293 238 1233 c 0,31,32
 230 1209 230 1209 216 1212 c 0,33,34
 152 1228 152 1228 149 1236 c 1,35,36
 141 1244 141 1244 150 1279 c 0,37,38
 172 1357 172 1357 219.5 1397.5 c 128,-1,39
 267 1438 267 1438 358 1438 c 0,40,41
 459 1438 459 1438 508.5 1364.5 c 128,-1,42
 558 1291 558 1291 558 1120 c 2,43,-1
 558 663 l 2,44,45
 558 624 558 624 541 624 c 2,46,-1
 522 624 l 2,47,48
 507 624 507 624 500 656 c 0,49,50
 478 746 478 746 475 774 c 0,51,52
 473 785 473 785 469 774 c 1,53,54
 449 696 449 696 407.5 655 c 128,-1,55
 366 614 366 614 294 614 c 0,13,14
EndSplineSet
EndChar

StartChar: guillemotleft
Encoding: 171 171 108
Width: 778
GlyphClass: 2
Flags: W
LayerCount: 2
Fore
SplineSet
696 225 m 2,0,1
 695 225 695 225 681.5 238.5 c 128,-1,2
 668 252 668 252 649 272 c 128,-1,3
 630 292 630 292 611 311 c 128,-1,4
 592 330 592 330 578 345 c 2,5,-1
 563 360 l 1,6,7
 401 542 401 542 401 558 c 1,8,9
 387 571 387 571 387 664 c 0,10,11
 387 735 387 735 397 745 c 1,12,13
 397 753 397 753 452.5 812.5 c 128,-1,14
 508 872 508 872 536 900 c 2,15,-1
 575 941 l 2,16,17
 614 982 614 982 652 1022 c 2,18,-1
 691 1062 l 2,19,20
 692 1062 l 1,21,-1
 694 1063 l 1,22,23
 702 1063 702 1063 705 1046 c 1,24,25
 711 1046 711 1046 711 961 c 0,26,27
 711 917 711 917 700 903 c 1,28,29
 700 895 700 895 687 878 c 128,-1,30
 674 861 674 861 659 846 c 128,-1,31
 644 831 644 831 628 815.5 c 128,-1,32
 612 800 612 800 610 798 c 0,33,34
 608 797 608 797 542 724.5 c 128,-1,35
 476 652 476 652 476 650 c 0,36,37
 474 642 474 642 477 636 c 0,38,39
 477 634 477 634 515.5 596.5 c 128,-1,40
 554 559 554 559 556 558 c 0,41,42
 557 557 557 557 581 530 c 128,-1,43
 605 503 605 503 630 474 c 128,-1,44
 655 445 655 445 676.5 416.5 c 128,-1,45
 698 388 698 388 698 381 c 1,46,47
 711 369 711 369 711 276 c 0,48,49
 711 266 711 266 708.5 253 c 128,-1,50
 706 240 706 240 704 240 c 1,51,52
 703 225 703 225 697 225 c 2,53,-1
 696 225 l 2,0,1
387 226 m 2,54,-1
 253 360 l 1,55,56
 91 542 91 542 91 558 c 1,57,58
 77 572 77 572 77 664 c 0,59,60
 77 735 77 735 88 745 c 1,61,62
 88 753 88 753 143.5 812.5 c 128,-1,63
 199 872 199 872 227 900 c 0,64,65
 228 902 228 902 304 982 c 128,-1,66
 380 1062 380 1062 381 1062 c 0,67,-1
 382 1062 l 1,68,-1
 384 1063 l 1,69,70
 393 1063 393 1063 396 1046 c 1,71,72
 402 1046 402 1046 402 961 c 0,73,74
 402 920 402 920 391 903 c 1,75,76
 391 897 391 897 383 885 c 128,-1,77
 375 873 375 873 362 859 c 128,-1,78
 349 845 349 845 337.5 833.5 c 128,-1,79
 326 822 326 822 313.5 810.5 c 128,-1,80
 301 799 301 799 300 798 c 0,81,82
 296 794 296 794 231.5 723 c 128,-1,83
 167 652 167 652 167 650 c 0,84,85
 165 643 165 643 167 636 c 0,86,87
 167 634 167 634 206 596.5 c 128,-1,88
 245 559 245 559 247 558 c 1,89,90
 248 556 248 556 284.5 515 c 128,-1,91
 321 474 321 474 354.5 432 c 128,-1,92
 388 390 388 390 388 381 c 1,93,94
 402 368 402 368 402 276 c 0,95,96
 402 266 402 266 399.5 253 c 128,-1,97
 397 240 397 240 395 240 c 1,98,99
 394 225 394 225 389 225 c 0,100,101
 388 225 388 225 388 225.5 c 128,-1,102
 388 226 388 226 387 226 c 2,54,-1
EndSplineSet
EndChar

StartChar: logicalnot
Encoding: 172 172 109
Width: 1012
GlyphClass: 2
Flags: W
LayerCount: 2
Fore
SplineSet
777 261 m 2,0,1
 731 261 731 261 731 320 c 2,2,-1
 731 545 l 2,3,4
 731 574 731 574 706 574 c 2,5,-1
 176 574 l 2,6,7
 131 574 131 574 131 621 c 2,8,-1
 131 665 l 2,9,10
 131 713 131 713 176 713 c 2,11,-1
 836 713 l 2,12,13
 888 713 888 713 888 662 c 2,14,-1
 888 320 l 2,15,16
 888 261 888 261 843 261 c 2,17,-1
 777 261 l 2,0,1
EndSplineSet
EndChar

StartChar: uni00AD
Encoding: 173 173 110
Width: 783
GlyphClass: 2
Flags: W
LayerCount: 2
Fore
SplineSet
220 489 m 2,0,1
 188 489 188 489 188 525 c 2,2,-1
 188 549 l 2,3,4
 188 586 188 586 220 586 c 2,5,-1
 579 586 l 2,6,7
 612 586 612 586 612 550 c 2,8,-1
 612 526 l 2,9,10
 612 489 612 489 579 489 c 2,11,-1
 220 489 l 2,0,1
EndSplineSet
EndChar

StartChar: registered
Encoding: 174 174 111
Width: 1401
GlyphClass: 2
Flags: W
LayerCount: 2
Fore
SplineSet
700 -15 m 0,0,1
 578 -15 578 -15 477 24.5 c 128,-1,2
 376 64 376 64 305.5 132 c 128,-1,3
 235 200 235 200 186.5 293.5 c 128,-1,4
 138 387 138 387 115.5 494.5 c 128,-1,5
 93 602 93 602 93 720 c 128,-1,6
 93 838 93 838 115.5 945.5 c 128,-1,7
 138 1053 138 1053 186.5 1146.5 c 128,-1,8
 235 1240 235 1240 305.5 1308.5 c 128,-1,9
 376 1377 376 1377 477 1416.5 c 128,-1,10
 578 1456 578 1456 700 1456 c 0,11,12
 823 1456 823 1456 924.5 1416.5 c 128,-1,13
 1026 1377 1026 1377 1096 1308.5 c 128,-1,14
 1166 1240 1166 1240 1214.5 1146.5 c 128,-1,15
 1263 1053 1263 1053 1285.5 945.5 c 128,-1,16
 1308 838 1308 838 1308 720 c 128,-1,17
 1308 602 1308 602 1285.5 494.5 c 128,-1,18
 1263 387 1263 387 1214.5 293.5 c 128,-1,19
 1166 200 1166 200 1096 132 c 128,-1,20
 1026 64 1026 64 924.5 24.5 c 128,-1,21
 823 -15 823 -15 700 -15 c 0,0,1
703 80 m 128,-1,23
 810 80 810 80 897 117 c 128,-1,24
 984 154 984 154 1040.5 216 c 128,-1,25
 1097 278 1097 278 1135 361.5 c 128,-1,26
 1173 445 1173 445 1189.5 533 c 128,-1,27
 1206 621 1206 621 1206 716 c 0,28,29
 1206 814 1206 814 1189.5 904 c 128,-1,30
 1173 994 1173 994 1135 1078 c 128,-1,31
 1097 1162 1097 1162 1040.5 1223.5 c 128,-1,32
 984 1285 984 1285 897 1322 c 128,-1,33
 810 1359 810 1359 703 1359 c 0,34,35
 595 1359 595 1359 508.5 1322 c 128,-1,36
 422 1285 422 1285 365 1223.5 c 128,-1,37
 308 1162 308 1162 270 1078 c 128,-1,38
 232 994 232 994 215.5 904 c 128,-1,39
 199 814 199 814 199 716 c 0,40,41
 199 621 199 621 215.5 533 c 128,-1,42
 232 445 232 445 270 361.5 c 128,-1,43
 308 278 308 278 365 216 c 128,-1,44
 422 154 422 154 509 117 c 128,-1,22
 596 80 596 80 703 80 c 128,-1,23
585 774 m 2,45,-1
 726 774 l 2,46,47
 788 774 788 774 813 801.5 c 128,-1,48
 838 829 838 829 838 905 c 0,49,50
 838 988 838 988 806 1011.5 c 128,-1,51
 774 1035 774 1035 699 1035 c 2,52,-1
 586 1035 l 2,53,54
 580 1035 580 1035 580 1024 c 2,55,-1
 580 785 l 2,56,57
 580 774 580 774 585 774 c 2,45,-1
505 346 m 2,58,59
 488 346 488 346 488 376 c 2,60,-1
 488 1080 l 2,61,62
 488 1111 488 1111 505 1111 c 2,63,-1
 690 1111 l 2,64,65
 736 1111 736 1111 764 1108.5 c 128,-1,66
 792 1106 792 1106 826.5 1095 c 128,-1,67
 861 1084 861 1084 880 1063 c 128,-1,68
 899 1042 899 1042 912.5 1002.5 c 128,-1,69
 926 963 926 963 926 906 c 0,70,71
 926 754 926 754 828 731 c 0,72,73
 825 731 825 731 825 728 c 1,74,-1
 828 726 l 1,75,76
 925 689 925 689 928 538 c 1,77,78
 930 512 930 512 930 375 c 0,79,80
 930 346 930 346 918 346 c 2,81,-1
 857 346 l 2,82,83
 842 346 842 346 841 381 c 0,84,85
 841 415 841 415 835.5 507 c 128,-1,86
 830 599 830 599 827 605 c 1,87,88
 821 660 821 660 793.5 677.5 c 128,-1,89
 766 695 766 695 710 695 c 2,90,-1
 586 695 l 2,91,92
 580 695 580 695 580 682 c 2,93,-1
 580 376 l 2,94,95
 580 346 580 346 564 346 c 2,96,-1
 505 346 l 2,58,59
EndSplineSet
EndChar

StartChar: macron
Encoding: 175 175 112
Width: 783
GlyphClass: 2
Flags: W
LayerCount: 2
Fore
SplineSet
220 489 m 2,0,1
 188 489 188 489 188 525 c 2,2,-1
 188 549 l 2,3,4
 188 586 188 586 220 586 c 2,5,-1
 579 586 l 2,6,7
 612 586 612 586 612 550 c 2,8,-1
 612 526 l 2,9,10
 612 489 612 489 579 489 c 2,11,-1
 220 489 l 2,0,1
EndSplineSet
EndChar

StartChar: degree
Encoding: 176 176 113
Width: 1061
GlyphClass: 2
Flags: W
LayerCount: 2
Fore
SplineSet
539 1075 m 128,-1,1
 510 1075 510 1075 480 1084 c 128,-1,2
 450 1093 450 1093 421 1112 c 128,-1,3
 392 1131 392 1131 373.5 1168.5 c 128,-1,4
 355 1206 355 1206 355 1256 c 0,5,6
 355 1308 355 1308 372.5 1345.5 c 128,-1,7
 390 1383 390 1383 418.5 1402 c 128,-1,8
 447 1421 447 1421 477 1429.5 c 128,-1,9
 507 1438 507 1438 539 1438 c 128,-1,10
 571 1438 571 1438 600 1429.5 c 128,-1,11
 629 1421 629 1421 658 1402 c 128,-1,12
 687 1383 687 1383 704 1345.5 c 128,-1,13
 721 1308 721 1308 721 1256 c 0,14,15
 721 1206 721 1206 702.5 1169 c 128,-1,16
 684 1132 684 1132 655 1112.5 c 128,-1,17
 626 1093 626 1093 597 1084 c 128,-1,0
 568 1075 568 1075 539 1075 c 128,-1,1
539 1137 m 0,18,19
 582 1137 582 1137 614 1166 c 128,-1,20
 646 1195 646 1195 646 1256 c 0,21,22
 646 1321 646 1321 614 1348 c 128,-1,23
 582 1375 582 1375 539 1375 c 0,24,25
 494 1375 494 1375 462 1348.5 c 128,-1,26
 430 1322 430 1322 430 1256 c 0,27,28
 430 1195 430 1195 462.5 1166 c 128,-1,29
 495 1137 495 1137 539 1137 c 0,18,19
EndSplineSet
EndChar

StartChar: plusminus
Encoding: 177 177 114
Width: 801
GlyphClass: 2
Flags: W
LayerCount: 2
Fore
SplineSet
149 126 m 2,0,1
 134 126 134 126 126 133.5 c 128,-1,2
 118 141 118 141 118 165 c 2,3,-1
 118 190 l 2,4,5
 118 215 118 215 126 222.5 c 128,-1,6
 134 230 134 230 149 230 c 2,7,-1
 662 230 l 2,8,9
 672 230 672 230 677.5 228 c 128,-1,10
 683 226 683 226 688 216.5 c 128,-1,11
 693 207 693 207 693 190 c 2,12,-1
 693 165 l 2,13,14
 693 141 693 141 685 133.5 c 128,-1,15
 677 126 677 126 662 126 c 2,16,-1
 149 126 l 2,0,1
380 369 m 2,17,18
 363 369 363 369 355 377.5 c 128,-1,19
 347 386 347 386 347 414 c 2,20,-1
 347 617 l 2,21,22
 347 631 347 631 343.5 635 c 128,-1,23
 340 639 340 639 332 639 c 2,24,-1
 149 639 l 2,25,26
 134 639 134 639 126 646.5 c 128,-1,27
 118 654 118 654 118 678 c 2,28,-1
 118 703 l 2,29,30
 118 728 118 728 126 735.5 c 128,-1,31
 134 743 134 743 149 743 c 2,32,-1
 332 743 l 2,33,34
 340 743 340 743 343.5 747 c 128,-1,35
 347 751 347 751 347 765 c 2,36,-1
 347 960 l 2,37,38
 347 988 347 988 355 996.5 c 128,-1,39
 363 1005 363 1005 380 1005 c 2,40,-1
 435 1005 l 2,41,42
 451 1005 451 1005 458.5 996.5 c 128,-1,43
 466 988 466 988 466 960 c 2,44,-1
 466 765 l 2,45,46
 466 751 466 751 470 747 c 128,-1,47
 474 743 474 743 483 743 c 2,48,-1
 663 743 l 2,49,50
 673 743 673 743 678.5 741 c 128,-1,51
 684 739 684 739 689 729.5 c 128,-1,52
 694 720 694 720 694 703 c 2,53,-1
 694 678 l 2,54,55
 694 654 694 654 686 646.5 c 128,-1,56
 678 639 678 639 663 639 c 2,57,-1
 483 639 l 2,58,59
 474 639 474 639 470 635 c 128,-1,60
 466 631 466 631 466 617 c 2,61,-1
 466 414 l 2,62,63
 466 386 466 386 458.5 377.5 c 128,-1,64
 451 369 451 369 435 369 c 2,65,-1
 380 369 l 2,17,18
EndSplineSet
EndChar

StartChar: acute
Encoding: 180 180 115
Width: 596
GlyphClass: 2
Flags: W
LayerCount: 2
Fore
SplineSet
369 1168 m 2,0,1
 354 1168 354 1168 354 1200 c 0,2,3
 354 1221 354 1221 355 1235 c 2,4,-1
 376 1554 l 2,5,6
 378 1586 378 1586 384 1597.5 c 128,-1,7
 390 1609 390 1609 402 1609 c 2,8,-1
 475 1609 l 2,9,10
 485 1609 485 1609 485 1581 c 0,11,12
 485 1568 485 1568 481 1544 c 2,13,-1
 418 1207 l 2,14,15
 411 1168 411 1168 399 1168 c 2,16,-1
 369 1168 l 2,0,1
EndSplineSet
EndChar

StartChar: paragraph
Encoding: 182 182 116
Width: 1134
GlyphClass: 2
Flags: W
LayerCount: 2
Fore
SplineSet
593 -1 m 2,0,1
 544 -1 544 -1 544 71 c 2,2,-1
 544 821 l 1,3,-1
 521 821 l 2,4,5
 453 821 453 821 391 837.5 c 128,-1,6
 329 854 329 854 274.5 889 c 128,-1,7
 220 924 220 924 187 986.5 c 128,-1,8
 154 1049 154 1049 154 1131 c 0,9,10
 154 1296 154 1296 262 1367 c 128,-1,11
 370 1438 370 1438 617 1438 c 0,12,13
 800 1438 800 1438 906 1414 c 0,14,15
 927 1410 927 1410 936.5 1398.5 c 128,-1,16
 946 1387 946 1387 948 1374.5 c 128,-1,17
 950 1362 950 1362 950 1336 c 2,18,-1
 950 71 l 2,19,20
 950 -1 950 -1 901 -1 c 2,21,-1
 876 -1 l 2,22,23
 827 -1 827 -1 827 71 c 2,24,-1
 827 800 l 2,25,26
 827 809 827 809 821.5 815 c 128,-1,27
 816 821 816 821 808 821 c 2,28,-1
 671 821 l 1,29,-1
 671 71 l 2,30,31
 671 -1 671 -1 623 -1 c 2,32,-1
 593 -1 l 2,0,1
EndSplineSet
EndChar

StartChar: cedilla
Encoding: 184 184 117
Width: 457
GlyphClass: 2
Flags: W
LayerCount: 2
Fore
SplineSet
257 -598 m 0,0,1
 195 -598 195 -598 155 -556 c 128,-1,2
 115 -514 115 -514 115 -436 c 0,3,4
 115 -345 115 -345 141 -345 c 2,5,-1
 183 -345 l 2,6,7
 202 -345 202 -345 202 -378 c 0,8,9
 202 -388 202 -388 200 -406.5 c 128,-1,10
 198 -425 198 -425 198 -431 c 0,11,12
 198 -472 198 -472 214.5 -498.5 c 128,-1,13
 231 -525 231 -525 262 -525 c 0,14,15
 325 -525 325 -525 325 -379 c 0,16,17
 325 -321 325 -321 302.5 -265.5 c 128,-1,18
 280 -210 280 -210 256 -210 c 2,19,-1
 232 -210 l 2,20,21
 231 -210 231 -210 229.5 -210 c 128,-1,22
 228 -210 228 -210 225 -207.5 c 128,-1,23
 222 -205 222 -205 222 -200 c 2,24,-1
 222 -145 l 2,25,26
 222 -128 222 -128 232 -128 c 2,27,-1
 283 -128 l 2,28,29
 333 -128 333 -128 370.5 -202 c 128,-1,30
 408 -276 408 -276 408 -362 c 0,31,32
 408 -484 408 -484 372.5 -541 c 128,-1,33
 337 -598 337 -598 257 -598 c 0,0,1
EndSplineSet
EndChar

StartChar: ordmasculine
Encoding: 186 186 118
Width: 739
GlyphClass: 2
Flags: W
LayerCount: 2
Fore
SplineSet
370 705 m 0,0,1
 397 705 397 705 416 717 c 128,-1,2
 435 729 435 729 452 761.5 c 128,-1,3
 469 794 469 794 477 860.5 c 128,-1,4
 485 927 485 927 485 1028 c 0,5,6
 485 1130 485 1130 476.5 1196 c 128,-1,7
 468 1262 468 1262 451 1294 c 128,-1,8
 434 1326 434 1326 415.5 1337 c 128,-1,9
 397 1348 397 1348 370 1348 c 128,-1,10
 343 1348 343 1348 324.5 1337 c 128,-1,11
 306 1326 306 1326 289 1294 c 128,-1,12
 272 1262 272 1262 263.5 1195.5 c 128,-1,13
 255 1129 255 1129 255 1028 c 0,14,15
 255 895 255 895 271 821.5 c 128,-1,16
 287 748 287 748 309.5 726.5 c 128,-1,17
 332 705 332 705 370 705 c 0,0,1
371 615 m 0,18,19
 341 615 341 615 317.5 620 c 128,-1,20
 294 625 294 625 265.5 638.5 c 128,-1,21
 237 652 237 652 216 681 c 128,-1,22
 195 710 195 710 176.5 754 c 128,-1,23
 158 798 158 798 148.5 867.5 c 128,-1,24
 139 937 139 937 139 1028 c 0,25,26
 139 1136 139 1136 154 1215 c 128,-1,27
 169 1294 169 1294 190.5 1336 c 128,-1,28
 212 1378 212 1378 245.5 1402 c 128,-1,29
 279 1426 279 1426 306.5 1432 c 128,-1,30
 334 1438 334 1438 371 1438 c 0,31,32
 407 1438 407 1438 434.5 1432 c 128,-1,33
 462 1426 462 1426 495 1402 c 128,-1,34
 528 1378 528 1378 549.5 1336 c 128,-1,35
 571 1294 571 1294 585.5 1215 c 128,-1,36
 600 1136 600 1136 600 1028 c 128,-1,37
 600 920 600 920 585.5 841.5 c 128,-1,38
 571 763 571 763 549.5 720.5 c 128,-1,39
 528 678 528 678 495 653 c 128,-1,40
 462 628 462 628 434.5 621.5 c 128,-1,41
 407 615 407 615 371 615 c 0,18,19
EndSplineSet
EndChar

StartChar: guillemotright
Encoding: 187 187 119
Width: 778
GlyphClass: 2
Flags: W
LayerCount: 2
Fore
SplineSet
398 223 m 0,0,1
 387 223 387 223 387 261 c 2,2,-1
 387 341 l 2,3,4
 387 396 387 396 411 423 c 1,5,-1
 619 620 l 2,6,7
 623 624 623 624 623 634 c 128,-1,8
 623 644 623 644 620 648 c 2,9,-1
 410 860 l 1,10,11
 387 887 387 887 387 945 c 2,12,-1
 387 1025 l 2,13,14
 387 1067 387 1067 399 1067 c 0,15,16
 404 1067 404 1067 410 1059 c 1,17,-1
 687 772 l 2,18,19
 711 746 711 746 711 687 c 2,20,-1
 711 584 l 2,21,22
 711 524 711 524 687 501 c 2,23,-1
 410 231 l 1,24,25
 400 223 400 223 398 223 c 0,0,1
89 223 m 0,26,27
 77 223 77 223 77 261 c 2,28,-1
 77 341 l 2,29,30
 77 395 77 395 101 423 c 1,31,-1
 310 620 l 2,32,33
 314 624 314 624 314 634 c 128,-1,34
 314 644 314 644 310 648 c 2,35,-1
 101 860 l 1,36,37
 77 887 77 887 77 945 c 2,38,-1
 77 1025 l 2,39,40
 77 1067 77 1067 90 1067 c 0,41,42
 95 1067 95 1067 101 1059 c 1,43,-1
 377 772 l 2,44,45
 401 746 401 746 401 687 c 2,46,-1
 402 584 l 2,47,48
 402 525 402 525 377 501 c 2,49,-1
 100 231 l 1,50,51
 90 223 90 223 89 223 c 0,26,27
EndSplineSet
EndChar

StartChar: onequarter
Encoding: 188 188 120
Width: 1926
GlyphClass: 2
Flags: W
LayerCount: 2
Fore
SplineSet
1496 288 m 2,0,1
 1466 288 1466 288 1466 333 c 2,2,-1
 1466 516 l 1,3,-1
 1157 516 l 2,4,5
 1138 516 1138 516 1125.5 527.5 c 128,-1,6
 1113 539 1113 539 1113 559 c 0,7,8
 1113 566 1113 566 1114 570 c 2,9,-1
 1226 1385 l 2,10,11
 1231 1415 1231 1415 1236.5 1426.5 c 128,-1,12
 1242 1438 1242 1438 1256 1438 c 2,13,-1
 1306 1438 l 2,14,15
 1331 1438 1331 1438 1331 1399 c 0,16,17
 1331 1390 1331 1390 1330 1385 c 2,18,-1
 1246 652 l 2,19,20
 1243 631 1243 631 1261 631 c 2,21,-1
 1466 631 l 1,22,-1
 1466 1392 l 2,23,24
 1466 1438 1466 1438 1496 1438 c 2,25,-1
 1552 1438 l 2,26,27
 1581 1438 1581 1438 1581 1392 c 2,28,-1
 1581 631 l 1,29,-1
 1696 631 l 2,30,31
 1717 631 1717 631 1725.5 622 c 128,-1,32
 1734 613 1734 613 1734 591 c 2,33,-1
 1734 555 l 2,34,35
 1734 533 1734 533 1725.5 524.5 c 128,-1,36
 1717 516 1717 516 1696 516 c 2,37,-1
 1581 516 l 1,38,-1
 1581 333 l 2,39,40
 1581 288 1581 288 1552 288 c 2,41,-1
 1496 288 l 2,0,1
665 124 m 2,42,43
 658 124 658 124 658 143 c 0,44,45
 658 144 658 144 658.5 146.5 c 128,-1,46
 659 149 659 149 659 150 c 2,47,-1
 900 1579 l 1,48,49
 903 1606 903 1606 915 1606 c 2,50,-1
 974 1606 l 2,51,52
 981 1606 981 1606 981 1587 c 0,53,54
 981 1586 981 1586 980.5 1583 c 128,-1,55
 980 1580 980 1580 980 1579 c 2,56,-1
 740 150 l 1,57,58
 737 123 737 123 726 123 c 2,59,-1
 665 124 l 2,42,43
375 288 m 2,60,61
 357 288 357 288 357 342 c 2,62,-1
 357 1262 l 2,63,64
 357 1274 357 1274 354 1279.5 c 128,-1,65
 351 1285 351 1285 346 1283 c 0,66,67
 277 1266 277 1266 276 1266 c 0,68,69
 267 1264 267 1264 262.5 1271 c 128,-1,70
 258 1278 258 1278 258 1296 c 2,71,-1
 258 1358 l 2,72,73
 258 1383 258 1383 277 1387 c 2,74,-1
 459 1435 l 2,75,76
 467 1437 467 1437 470 1437 c 0,77,78
 486 1437 486 1437 486 1403 c 2,79,-1
 486 342 l 2,80,81
 486 288 486 288 466 288 c 2,82,-1
 375 288 l 2,60,61
EndSplineSet
EndChar

StartChar: onehalf
Encoding: 189 189 121
Width: 1788
GlyphClass: 2
Flags: W
LayerCount: 2
Fore
SplineSet
1508 291 m 2,0,-1
 1113 291 l 2,1,2
 1093 291 1093 291 1093 337 c 0,3,4
 1093 382 1093 382 1094 386 c 0,5,6
 1099 500 1099 500 1136 602 c 128,-1,7
 1173 704 1173 704 1222 776.5 c 128,-1,8
 1271 849 1271 849 1319 914.5 c 128,-1,9
 1367 980 1367 980 1400.5 1048.5 c 128,-1,10
 1434 1117 1434 1117 1434 1183 c 0,11,12
 1434 1261 1434 1261 1398 1304 c 128,-1,13
 1362 1347 1362 1347 1300 1347 c 0,14,15
 1267 1347 1267 1347 1236 1341 c 128,-1,16
 1205 1335 1205 1335 1187.5 1329 c 128,-1,17
 1170 1323 1170 1323 1144 1312 c 128,-1,18
 1118 1301 1118 1301 1107 1297 c 1,19,20
 1097 1287 1097 1287 1095 1305 c 1,21,22
 1079 1346 1079 1346 1079 1369 c 0,23,24
 1079 1390 1079 1390 1086 1399 c 1,25,26
 1184 1453 1184 1453 1302 1453 c 0,27,28
 1353 1453 1353 1453 1396 1440.5 c 128,-1,29
 1439 1428 1439 1428 1477.5 1400 c 128,-1,30
 1516 1372 1516 1372 1538 1318.5 c 128,-1,31
 1560 1265 1560 1265 1560 1191 c 0,32,33
 1560 1114 1560 1114 1530 1042 c 128,-1,34
 1500 970 1500 970 1455 907 c 128,-1,35
 1410 844 1410 844 1363.5 778.5 c 128,-1,36
 1317 713 1317 713 1276.5 622.5 c 128,-1,37
 1236 532 1236 532 1222 431 c 1,38,39
 1220 426 1220 426 1223 406.5 c 128,-1,40
 1226 387 1226 387 1230 387 c 2,41,-1
 1509 387 l 2,42,43
 1523 387 1523 387 1523 353 c 2,44,-1
 1523 324 l 2,45,46
 1523 291 1523 291 1508 291 c 2,0,-1
646 127 m 2,47,48
 639 127 639 127 639 146 c 0,49,50
 639 147 639 147 639.5 149.5 c 128,-1,51
 640 152 640 152 640 153 c 2,52,-1
 881 1582 l 1,53,54
 884 1609 884 1609 896 1609 c 2,55,-1
 955 1609 l 2,56,57
 962 1609 962 1609 962 1590 c 0,58,59
 962 1589 962 1589 961.5 1586.5 c 128,-1,60
 961 1584 961 1584 961 1582 c 2,61,-1
 721 153 l 1,62,63
 718 126 718 126 706 126 c 2,64,-1
 646 127 l 2,47,48
356 291 m 2,65,66
 338 291 338 291 338 345 c 2,67,-1
 338 1265 l 2,68,69
 338 1276 338 1276 334.5 1282 c 128,-1,70
 331 1288 331 1288 326 1286 c 0,71,72
 258 1269 258 1269 257 1269 c 0,73,74
 248 1267 248 1267 243.5 1274 c 128,-1,75
 239 1281 239 1281 239 1299 c 2,76,-1
 239 1361 l 2,77,78
 239 1386 239 1386 258 1390 c 2,79,-1
 440 1438 l 2,80,81
 448 1440 448 1440 451 1440 c 0,82,83
 466 1440 466 1440 466 1406 c 2,84,-1
 466 345 l 2,85,86
 466 291 466 291 447 291 c 2,87,-1
 356 291 l 2,65,66
EndSplineSet
EndChar

StartChar: threequarters
Encoding: 190 190 122
Width: 2102
GlyphClass: 2
Flags: W
LayerCount: 2
Fore
SplineSet
1653 288 m 2,0,1
 1624 288 1624 288 1624 333 c 2,2,-1
 1624 516 l 1,3,-1
 1314 516 l 2,4,5
 1295 516 1295 516 1282.5 527.5 c 128,-1,6
 1270 539 1270 539 1270 559 c 0,7,8
 1270 566 1270 566 1271 570 c 2,9,-1
 1383 1385 l 2,10,11
 1388 1415 1388 1415 1393.5 1426.5 c 128,-1,12
 1399 1438 1399 1438 1413 1438 c 2,13,-1
 1463 1438 l 2,14,15
 1489 1438 1489 1438 1489 1398 c 0,16,17
 1489 1389 1489 1389 1488 1385 c 2,18,-1
 1403 652 l 2,19,20
 1400 631 1400 631 1418 631 c 2,21,-1
 1624 631 l 1,22,-1
 1624 1392 l 2,23,24
 1624 1438 1624 1438 1653 1438 c 2,25,-1
 1709 1438 l 2,26,27
 1738 1438 1738 1438 1738 1392 c 2,28,-1
 1738 631 l 1,29,-1
 1853 631 l 2,30,31
 1874 631 1874 631 1883 622 c 128,-1,32
 1892 613 1892 613 1892 591 c 2,33,-1
 1892 555 l 2,34,35
 1892 533 1892 533 1883 524.5 c 128,-1,36
 1874 516 1874 516 1853 516 c 2,37,-1
 1738 516 l 1,38,-1
 1738 333 l 2,39,40
 1738 288 1738 288 1709 288 c 2,41,-1
 1653 288 l 2,0,1
853 124 m 2,42,43
 846 124 846 124 846 143 c 0,44,45
 846 144 846 144 846.5 146.5 c 128,-1,46
 847 149 847 149 847 150 c 2,47,-1
 1088 1579 l 1,48,49
 1091 1606 1091 1606 1103 1606 c 2,50,-1
 1163 1606 l 2,51,52
 1169 1606 1169 1606 1169 1589 c 0,53,54
 1169 1582 1169 1582 1168 1579 c 2,55,-1
 928 150 l 1,56,57
 925 123 925 123 914 123 c 2,58,-1
 853 124 l 2,42,43
411 835 m 0,59,60
 399 835 399 835 395 840.5 c 128,-1,61
 391 846 391 846 391 860 c 2,62,-1
 391 926 l 2,63,64
 391 946 391 946 411 946 c 0,65,66
 412 946 412 946 418.5 946 c 128,-1,67
 425 946 425 946 430.5 946 c 128,-1,68
 436 946 436 946 438 946 c 0,69,70
 513 948 513 948 548 998.5 c 128,-1,71
 583 1049 583 1049 583 1148 c 0,72,73
 583 1263 583 1263 547 1312 c 128,-1,74
 511 1361 511 1361 440 1361 c 0,75,76
 348 1361 348 1361 280 1321 c 1,77,78
 274 1316 274 1316 273 1328 c 2,79,-1
 272 1334 l 1,80,81
 270 1334 270 1334 267 1355.5 c 128,-1,82
 264 1377 264 1377 264 1383 c 0,83,84
 264 1414 264 1414 277 1423 c 0,85,86
 348 1466 348 1466 455 1466 c 0,87,88
 700 1466 700 1466 700 1154 c 0,89,90
 700 932 700 932 542 890 c 1,91,92
 707 857 707 857 707 597 c 0,93,94
 707 511 707 511 685 449 c 128,-1,95
 663 387 663 387 624.5 354.5 c 128,-1,96
 586 322 586 322 541 307.5 c 128,-1,97
 496 293 496 293 442 293 c 0,98,99
 331 293 331 293 279 330 c 0,100,101
 268 339 268 339 268 370 c 0,102,103
 268 379 268 379 270.5 400.5 c 128,-1,104
 273 422 273 422 276 422 c 1,105,106
 276 427 276 427 276.5 429.5 c 128,-1,107
 277 432 277 432 278 435 c 128,-1,108
 279 438 279 438 280.5 437 c 128,-1,109
 282 436 282 436 284 435 c 0,110,111
 345 398 345 398 428 398 c 0,112,113
 513 398 513 398 552.5 452 c 128,-1,114
 592 506 592 506 592 620 c 0,115,116
 591 739 591 739 548.5 787 c 128,-1,117
 506 835 506 835 411 835 c 0,59,60
EndSplineSet
EndChar

StartChar: AE
Encoding: 198 198 130
Width: 1011
GlyphClass: 2
Flags: W
LayerCount: 2
Fore
SplineSet
324 436 m 2,0,-1
 522 436 l 2,1,2
 526 436 526 436 526 456 c 2,3,-1
 526 1285 l 1,4,5
 525 1298 l 0,6,7
 524 1298 524 1298 520 1287 c 1,8,-1
 313 460 l 2,9,10
 311 452 311 452 311 448 c 0,11,12
 311 436 311 436 324 436 c 2,0,-1
69 0 m 2,13,14
 55 0 55 0 55 30 c 0,15,16
 55 32 55 32 54.5 37 c 128,-1,17
 54 42 54 42 54 45 c 0,18,19
 54 52 54 52 57 60 c 2,20,-1
 411 1386 l 1,21,22
 423 1438 423 1438 451 1438 c 2,23,-1
 905 1438 l 2,24,25
 913 1438 913 1438 917.5 1436.5 c 128,-1,26
 922 1435 922 1435 925.5 1426.5 c 128,-1,27
 929 1418 929 1418 929 1402 c 2,28,-1
 929 1346 l 2,29,30
 929 1329 929 1329 925.5 1321 c 128,-1,31
 922 1313 922 1313 918 1311.5 c 128,-1,32
 914 1310 914 1310 905 1310 c 2,33,-1
 698 1310 l 2,34,35
 687 1310 687 1310 687 1279 c 2,36,-1
 687 824 l 2,37,38
 687 817 687 817 690 809.5 c 128,-1,39
 693 802 693 802 695 802 c 2,40,-1
 881 802 l 2,41,42
 894 802 894 802 900 794 c 128,-1,43
 906 786 906 786 906 763 c 2,44,-1
 906 708 l 2,45,46
 906 667 906 667 881 667 c 2,47,-1
 696 667 l 2,48,49
 694 667 694 667 690.5 657.5 c 128,-1,50
 687 648 687 648 687 641 c 2,51,-1
 687 128 l 1,52,-1
 929 128 l 2,53,54
 938 128 938 128 942 126.5 c 128,-1,55
 946 125 946 125 949.5 117 c 128,-1,56
 953 109 953 109 953 92 c 2,57,-1
 953 36 l 2,58,59
 953 13 953 13 947.5 6.5 c 128,-1,60
 942 0 942 0 929 0 c 2,61,-1
 551 0 l 2,62,63
 542 0 542 0 537.5 2 c 128,-1,64
 533 4 533 4 529.5 12.5 c 128,-1,65
 526 21 526 21 526 39 c 2,66,-1
 526 331 l 1,67,-1
 286 331 l 2,68,69
 281 331 281 331 277 313 c 2,70,-1
 206 45 l 1,71,72
 201 18 201 18 193 9 c 128,-1,73
 185 0 185 0 172 0 c 2,74,-1
 69 0 l 2,13,14
EndSplineSet
EndChar

StartChar: Eth
Encoding: 208 208 140
Width: 919
GlyphClass: 2
Flags: W
LayerCount: 2
Fore
SplineSet
136 0 m 2,0,1
 124 0 124 0 118 8 c 128,-1,2
 112 16 112 16 112 42 c 2,3,-1
 112 669 l 1,4,-1
 53 669 l 2,5,6
 31 669 31 669 21.5 677.5 c 128,-1,7
 12 686 12 686 12 710 c 2,8,-1
 12 742 l 2,9,10
 12 766 12 766 21.5 774.5 c 128,-1,11
 31 783 31 783 53 783 c 2,12,-1
 112 783 l 1,13,-1
 112 1402 l 2,14,15
 112 1424 112 1424 118 1431 c 128,-1,16
 124 1438 124 1438 136 1438 c 2,17,-1
 462 1438 l 2,18,19
 534 1438 534 1438 589.5 1417 c 128,-1,20
 645 1396 645 1396 691.5 1346 c 128,-1,21
 738 1296 738 1296 768.5 1215.5 c 128,-1,22
 799 1135 799 1135 815.5 1012.5 c 128,-1,23
 832 890 832 890 832 726 c 0,24,25
 832 589 832 589 824 484 c 128,-1,26
 816 379 816 379 801.5 302 c 128,-1,27
 787 225 787 225 761.5 171.5 c 128,-1,28
 736 118 736 118 707 84.5 c 128,-1,29
 678 51 678 51 635 32 c 128,-1,30
 592 13 592 13 548.5 6.5 c 128,-1,31
 505 0 505 0 444 0 c 2,32,-1
 136 0 l 2,0,1
285 128 m 2,33,-1
 438 128 l 2,34,35
 530 128 530 128 579 179.5 c 128,-1,36
 628 231 628 231 650 358 c 128,-1,37
 672 485 672 485 672 725 c 0,38,39
 672 942 672 942 647 1071 c 128,-1,40
 622 1200 622 1200 573 1255 c 128,-1,41
 524 1310 524 1310 443 1310 c 2,42,-1
 284 1310 l 2,43,44
 273 1310 273 1310 273 1290 c 2,45,-1
 273 783 l 1,46,-1
 403 783 l 2,47,48
 425 783 425 783 434.5 775 c 128,-1,49
 444 767 444 767 444 743 c 2,50,-1
 444 703 l 1,51,52
 443 684 443 684 433 676.5 c 128,-1,53
 423 669 423 669 403 669 c 2,54,-1
 273 669 l 1,55,-1
 273 150 l 2,56,57
 273 128 273 128 285 128 c 2,33,-1
EndSplineSet
EndChar

StartChar: multiply
Encoding: 215 215 147
Width: 801
GlyphClass: 2
Flags: W
LayerCount: 2
Fore
SplineSet
200 357 m 2,0,-1
 162 396 l 2,1,2
 151 407 151 407 151 415 c 0,3,4
 151 429 151 429 172 450 c 2,5,-1
 323 601 l 1,6,-1
 172 753 l 2,7,8
 151 774 151 774 151 787 c 0,9,10
 151 796 151 796 163 808 c 2,11,-1
 201 846 l 2,12,13
 212 857 212 857 220 857 c 0,14,15
 234 857 234 857 255 836 c 2,16,-1
 407 685 l 1,17,-1
 558 836 l 2,18,19
 578 856 578 856 592 856 c 0,20,21
 602 856 602 856 612 846 c 2,22,-1
 650 808 l 2,23,24
 662 796 662 796 662 787 c 0,25,26
 662 774 662 774 641 753 c 2,27,-1
 490 601 l 1,28,-1
 641 450 l 2,29,30
 662 429 662 429 662 415 c 0,31,32
 662 407 662 407 651 396 c 2,33,-1
 613 358 l 2,34,35
 601 346 601 346 592 346 c 0,36,37
 579 346 579 346 558 367 c 2,38,-1
 407 518 l 1,39,-1
 255 366 l 2,40,41
 235 346 235 346 221 346 c 0,42,43
 211 346 211 346 200 357 c 2,0,-1
EndSplineSet
EndChar

StartChar: Oslash
Encoding: 216 216 148
Width: 900
GlyphClass: 2
Flags: W
LayerCount: 2
Fore
SplineSet
449 116 m 0,0,1
 528 116 528 116 569.5 164 c 128,-1,2
 611 212 611 212 631 343 c 128,-1,3
 651 474 651 474 651 727 c 0,4,5
 651 939 651 939 634 1058.5 c 128,-1,6
 617 1178 617 1178 576 1234 c 1,7,-1
 419 118 l 1,8,9
 439 116 439 116 449 116 c 0,0,1
342 178 m 1,10,-1
 504 1318 l 1,11,12
 474 1325 474 1325 450 1325 c 0,13,14
 372 1325 372 1325 329 1270 c 128,-1,15
 286 1215 286 1215 267.5 1087.5 c 128,-1,16
 249 960 249 960 249 727 c 0,17,18
 249 479 249 479 270.5 353 c 128,-1,19
 292 227 292 227 342 178 c 1,10,-1
299 -205 m 2,20,21
 296 -205 296 -205 293.5 -191.5 c 128,-1,22
 291 -178 291 -178 293 -172 c 1,23,-1
 318 2 l 1,24,25
 235 28 235 28 185.5 104.5 c 128,-1,26
 136 181 136 181 112 331 c 128,-1,27
 88 481 88 481 88 727 c 0,28,29
 88 944 88 944 108 1085 c 128,-1,30
 128 1226 128 1226 174 1308.5 c 128,-1,31
 220 1391 220 1391 285 1423.5 c 128,-1,32
 350 1456 350 1456 449 1456 c 0,33,34
 485 1456 485 1456 523 1451 c 1,35,-1
 546 1614 l 1,36,37
 549 1647 549 1647 561 1647 c 2,38,-1
 624 1647 l 2,39,40
 628 1647 628 1647 630 1636 c 128,-1,41
 632 1625 632 1625 630 1614 c 2,42,-1
 604 1430 l 1,43,44
 715 1381 715 1381 763.5 1220 c 128,-1,45
 812 1059 812 1059 812 727 c 0,46,47
 812 542 812 542 799 414 c 128,-1,48
 786 286 786 286 760 201 c 128,-1,49
 734 116 734 116 689 69 c 128,-1,50
 644 22 644 22 587.5 3.5 c 128,-1,51
 531 -15 531 -15 449 -15 c 0,52,53
 432 -15 432 -15 400 -13 c 1,54,-1
 377 -173 l 1,55,56
 374 -206 374 -206 363 -206 c 2,57,-1
 299 -205 l 2,20,21
EndSplineSet
EndChar

StartChar: Thorn
Encoding: 222 222 154
Width: 835
GlyphClass: 2
Flags: W
LayerCount: 2
Fore
SplineSet
281 487 m 2,0,-1
 418 487 l 2,1,2
 457 487 457 487 482.5 490 c 128,-1,3
 508 493 508 493 532.5 503.5 c 128,-1,4
 557 514 557 514 570.5 532.5 c 128,-1,5
 584 551 584 551 595 583 c 128,-1,6
 606 615 606 615 610.5 661 c 128,-1,7
 615 707 615 707 615 772 c 0,8,9
 615 826 615 826 611 869 c 128,-1,10
 607 912 607 912 598 942.5 c 128,-1,11
 589 973 589 973 579.5 995.5 c 128,-1,12
 570 1018 570 1018 553 1032 c 128,-1,13
 536 1046 536 1046 522 1054.5 c 128,-1,14
 508 1063 508 1063 484 1066.5 c 128,-1,15
 460 1070 460 1070 442.5 1071 c 128,-1,16
 425 1072 425 1072 396 1072 c 2,17,-1
 282 1072 l 2,18,19
 273 1072 273 1072 273 1055 c 2,20,-1
 273 503 l 2,21,22
 273 487 273 487 281 487 c 2,0,-1
136 0 m 2,23,24
 112 0 112 0 112 49 c 2,25,-1
 112 1374 l 2,26,27
 112 1423 112 1423 137 1423 c 2,28,-1
 249 1423 l 2,29,30
 273 1423 273 1423 273 1374 c 2,31,-1
 273 1200 l 1,32,-1
 403 1200 l 2,33,34
 440 1200 440 1200 465.5 1199 c 128,-1,35
 491 1198 491 1198 525 1193.5 c 128,-1,36
 559 1189 559 1189 583 1180.5 c 128,-1,37
 607 1172 607 1172 635 1156.5 c 128,-1,38
 663 1141 663 1141 682 1119.5 c 128,-1,39
 701 1098 701 1098 720.5 1065.5 c 128,-1,40
 740 1033 740 1033 751 992 c 128,-1,41
 762 951 762 951 769 895.5 c 128,-1,42
 776 840 776 840 776 773 c 0,43,44
 776 693 776 693 766 629.5 c 128,-1,45
 756 566 756 566 739.5 523 c 128,-1,46
 723 480 723 480 696.5 449 c 128,-1,47
 670 418 670 418 643.5 400.5 c 128,-1,48
 617 383 617 383 579 373.5 c 128,-1,49
 541 364 541 364 509.5 361 c 128,-1,50
 478 358 478 358 435 358 c 2,51,-1
 282 358 l 2,52,53
 273 358 273 358 273 342 c 2,54,-1
 273 49 l 2,55,56
 273 0 273 0 248 0 c 2,57,-1
 136 0 l 2,23,24
EndSplineSet
EndChar

StartChar: germandbls
Encoding: 223 223 155
Width: 848
GlyphClass: 2
Flags: W
LayerCount: 2
Fore
SplineSet
200 0 m 2,0,-1
 139 0 l 2,1,2
 129 0 129 0 122 2 c 128,-1,3
 115 4 115 4 108 14 c 128,-1,4
 101 24 101 24 101 42 c 2,5,-1
 101 1022 l 2,6,7
 101 1237 101 1237 186.5 1337.5 c 128,-1,8
 272 1438 272 1438 438 1438 c 0,9,10
 568 1438 568 1438 650.5 1347.5 c 128,-1,11
 733 1257 733 1257 733 1092 c 0,12,13
 733 983 733 983 700.5 913.5 c 128,-1,14
 668 844 668 844 582 810 c 0,15,16
 573 806 573 806 573 799.5 c 128,-1,17
 573 793 573 793 583 789 c 0,18,19
 678 756 678 756 723.5 654.5 c 128,-1,20
 769 553 769 553 769 431 c 0,21,22
 769 199 769 199 675.5 99.5 c 128,-1,23
 582 0 582 0 390 0 c 1,24,-1
 390 123 l 1,25,26
 512 123 512 123 568.5 197.5 c 128,-1,27
 625 272 625 272 625 423 c 0,28,29
 625 576 625 576 565 654.5 c 128,-1,30
 505 733 505 733 392 733 c 0,31,32
 381 733 381 733 375 751.5 c 128,-1,33
 369 770 369 770 369 794 c 0,34,35
 369 853 369 853 392 853 c 0,36,37
 500 853 500 853 547.5 897.5 c 128,-1,38
 595 942 595 942 595 1070 c 128,-1,39
 595 1198 595 1198 555 1254.5 c 128,-1,40
 515 1311 515 1311 427 1311 c 0,41,42
 337 1311 337 1311 287 1231.5 c 128,-1,43
 237 1152 237 1152 237 1020 c 2,44,-1
 237 43 l 2,45,46
 237 0 237 0 200 0 c 2,0,-1
EndSplineSet
EndChar

StartChar: ae
Encoding: 230 230 162
Width: 1057
GlyphClass: 2
Flags: W
LayerCount: 2
Fore
SplineSet
601 562 m 2,0,-1
 847 562 l 2,1,2
 849 562 849 562 849 580 c 0,3,4
 847 660 847 660 839.5 717.5 c 128,-1,5
 832 775 832 775 818 818.5 c 128,-1,6
 804 862 804 862 781 884 c 128,-1,7
 758 906 758 906 725 906 c 0,8,9
 672 906 672 906 637.5 834 c 128,-1,10
 603 762 603 762 598 616 c 1,11,12
 598 562 598 562 601 562 c 2,0,-1
303 92 m 0,13,14
 356 92 356 92 392.5 143 c 128,-1,15
 429 194 429 194 445 272 c 128,-1,16
 461 350 461 350 461 448 c 0,17,18
 461 518 461 518 454 518 c 0,19,20
 453 518 453 518 432.5 515 c 128,-1,21
 412 512 412 512 410 511 c 0,22,23
 199 455 199 455 199 246 c 1,24,25
 200 171 200 171 224 131.5 c 128,-1,26
 248 92 248 92 303 92 c 0,13,14
279 -12 m 0,27,28
 179 -12 179 -12 127.5 52.5 c 128,-1,29
 76 117 76 117 76 238 c 0,30,31
 76 305 76 305 91 360 c 128,-1,32
 106 415 106 415 130.5 450.5 c 128,-1,33
 155 486 155 486 187 513.5 c 128,-1,34
 219 541 219 541 253 555 c 128,-1,35
 287 569 287 569 321 580 c 128,-1,36
 355 591 355 591 382.5 595 c 128,-1,37
 410 599 410 599 431 603.5 c 128,-1,38
 452 608 452 608 458 613 c 1,39,-1
 458 658 l 2,40,41
 458 716 458 716 454 756 c 128,-1,42
 450 796 450 796 438.5 832.5 c 128,-1,43
 427 869 427 869 403 887 c 128,-1,44
 379 905 379 905 343 905 c 0,45,46
 244 905 244 905 211 762 c 1,47,48
 206 745 206 745 199.5 739 c 128,-1,49
 193 733 193 733 184 735 c 0,50,51
 172 737 172 737 137.5 748.5 c 128,-1,52
 103 760 103 760 102 764 c 1,53,54
 89 775 89 775 101 819 c 0,55,56
 121 899 121 899 182.5 958.5 c 128,-1,57
 244 1018 244 1018 342 1018 c 0,58,59
 500 1018 500 1018 542 843 c 1,60,61
 565 931 565 931 616.5 975 c 128,-1,62
 668 1019 668 1019 727 1019 c 0,63,64
 839 1019 839 1019 897.5 912.5 c 128,-1,65
 956 806 956 806 961 568 c 0,66,67
 961 557 961 557 959.5 538.5 c 128,-1,68
 958 520 958 520 950.5 496.5 c 128,-1,69
 943 473 943 473 930 473 c 2,70,-1
 604 473 l 2,71,72
 597 473 597 473 597 452 c 0,73,74
 597 102 597 102 743 102 c 0,75,76
 772 102 772 102 793.5 114.5 c 128,-1,77
 815 127 815 127 826 143 c 128,-1,78
 837 159 837 159 845 187 c 128,-1,79
 853 215 853 215 855 232 c 128,-1,80
 857 249 857 249 859 278 c 0,81,82
 860 284 860 284 860 287 c 0,83,84
 863 307 863 307 873 307 c 2,85,-1
 933 307 l 2,86,87
 949 307 949 307 949 293 c 1,88,89
 952 278 952 278 952 246 c 0,90,91
 952 132 952 132 901 60.5 c 128,-1,92
 850 -11 850 -11 738 -11 c 0,93,94
 662 -11 662 -11 605.5 50 c 128,-1,95
 549 111 549 111 522 225 c 1,96,97
 460 -12 460 -12 279 -12 c 0,27,28
EndSplineSet
EndChar

StartChar: eth
Encoding: 240 240 172
Width: 784
GlyphClass: 2
Flags: W
LayerCount: 2
Fore
SplineSet
386 94 m 0,0,1
 417 94 417 94 441.5 102.5 c 128,-1,2
 466 111 466 111 490 136 c 128,-1,3
 514 161 514 161 530 202.5 c 128,-1,4
 546 244 546 244 556 314 c 128,-1,5
 566 384 566 384 566 479 c 0,6,7
 566 611 566 611 519 690 c 128,-1,8
 472 769 472 769 380 769 c 0,9,10
 330 769 330 769 295 744 c 128,-1,11
 260 719 260 719 242 673 c 128,-1,12
 224 627 224 627 216 572.5 c 128,-1,13
 208 518 208 518 208 448 c 0,14,15
 208 255 208 255 251.5 174.5 c 128,-1,16
 295 94 295 94 386 94 c 0,0,1
386 -16 m 0,17,18
 317 -16 317 -16 263.5 4 c 128,-1,19
 210 24 210 24 164.5 72.5 c 128,-1,20
 119 121 119 121 94.5 212 c 128,-1,21
 70 303 70 303 70 434 c 0,22,23
 70 641 70 641 145 760 c 128,-1,24
 220 879 220 879 372 879 c 0,25,26
 467 879 467 879 542 814 c 1,27,28
 523 951 523 951 418 1097 c 1,29,-1
 278 1014 l 1,30,31
 255 999 255 999 233 1029 c 1,32,33
 216 1049 216 1049 216 1064 c 128,-1,34
 216 1079 216 1079 231 1090 c 1,35,-1
 349 1156 l 1,36,37
 268 1223 268 1223 161 1271 c 1,38,39
 147 1274 147 1274 147 1294 c 0,40,41
 147 1301 147 1301 156 1317.5 c 128,-1,42
 165 1334 165 1334 172 1334 c 1,43,44
 176 1359 176 1359 191 1359 c 2,45,-1
 194 1359 l 1,46,47
 344 1304 344 1304 437 1227 c 1,48,-1
 581 1314 l 1,49,50
 606 1337 606 1337 626 1300 c 1,51,-1
 640 1284 l 1,52,53
 659 1257 659 1257 630 1236 c 1,54,-1
 504 1164 l 1,55,56
 701 918 701 918 701 551 c 0,57,58
 701 246 701 246 630.5 115 c 128,-1,59
 560 -16 560 -16 386 -16 c 0,17,18
EndSplineSet
EndChar

StartChar: divide
Encoding: 247 247 179
Width: 796
GlyphClass: 2
Flags: W
LayerCount: 2
Fore
SplineSet
366 723 m 2,0,1
 354 723 354 723 348 733.5 c 128,-1,2
 342 744 342 744 342 774 c 2,3,-1
 342 878 l 2,4,5
 342 908 342 908 348 919 c 128,-1,6
 354 930 354 930 366 930 c 2,7,-1
 465 930 l 2,8,9
 488 930 488 930 488 878 c 2,10,-1
 488 774 l 2,11,12
 488 744 488 744 482.5 733.5 c 128,-1,13
 477 723 477 723 465 723 c 2,14,-1
 366 723 l 2,0,1
726 460 m 2,15,16
 726 447 726 447 715.5 441 c 128,-1,17
 705 435 705 435 675 435 c 2,18,-1
 120 435 l 2,19,20
 90 435 90 435 80 441 c 128,-1,21
 70 447 70 447 70 460 c 2,22,-1
 70 547 l 2,23,24
 70 559 70 559 80 565 c 128,-1,25
 90 571 90 571 120 571 c 2,26,-1
 675 571 l 2,27,28
 705 571 705 571 715.5 565 c 128,-1,29
 726 559 726 559 726 547 c 2,30,-1
 726 460 l 2,15,16
366 75 m 2,31,32
 354 75 354 75 348 85.5 c 128,-1,33
 342 96 342 96 342 126 c 2,34,-1
 342 230 l 2,35,36
 342 260 342 260 348 271 c 128,-1,37
 354 282 354 282 366 282 c 2,38,-1
 465 282 l 2,39,40
 488 282 488 282 488 230 c 2,41,-1
 488 126 l 2,42,43
 488 96 488 96 482.5 85.5 c 128,-1,44
 477 75 477 75 465 75 c 2,45,-1
 366 75 l 2,31,32
EndSplineSet
EndChar

StartChar: oslash
Encoding: 248 248 180
Width: 739
GlyphClass: 2
Flags: W
LayerCount: 2
Fore
SplineSet
167 -80 m 1,0,-1
 126 -64 l 2,1,2
 125 -64 125 -64 125 -61 c 0,3,4
 125 -56 125 -56 129 -42 c 1,5,-1
 175 74 l 1,6,7
 81 196 81 196 81 505 c 0,8,9
 81 603 81 603 90.5 681.5 c 128,-1,10
 100 760 100 760 115.5 813 c 128,-1,11
 131 866 131 866 155 904.5 c 128,-1,12
 179 943 179 943 202.5 964.5 c 128,-1,13
 226 986 226 986 257.5 998.5 c 128,-1,14
 289 1011 289 1011 314 1014.5 c 128,-1,15
 339 1018 339 1018 371 1018 c 0,16,17
 401 1018 401 1018 425.5 1015 c 128,-1,18
 450 1012 450 1012 479 1000.5 c 128,-1,19
 508 989 508 989 531 970 c 1,20,-1
 573 1075 l 1,21,22
 583 1094 583 1094 587 1094 c 2,23,-1
 588 1094 l 1,24,-1
 628 1080 l 2,25,26
 630 1080 630 1080 630 1075 c 0,27,28
 630 1068 630 1068 625 1058 c 2,29,-1
 572 925 l 1,30,31
 613 867 613 867 635.5 765 c 128,-1,32
 658 663 658 663 658 505 c 0,33,34
 658 370 658 370 639.5 271.5 c 128,-1,35
 621 173 621 173 594 120 c 128,-1,36
 567 67 567 67 526 36 c 128,-1,37
 485 5 485 5 450.5 -3 c 128,-1,38
 416 -11 416 -11 371 -11 c 0,39,40
 276 -11 276 -11 218 32 c 1,41,-1
 181 -61 l 1,42,43
 175 -80 175 -80 168 -80 c 2,44,-1
 167 -80 l 1,0,-1
370 102 m 0,45,46
 404 102 404 102 427.5 116.5 c 128,-1,47
 451 131 451 131 472 172 c 128,-1,48
 493 213 493 213 503.5 296 c 128,-1,49
 514 379 514 379 514 505 c 0,50,51
 514 651 514 651 499 740 c 1,52,-1
 270 165 l 1,53,54
 288 129 288 129 312.5 115.5 c 128,-1,55
 337 102 337 102 370 102 c 0,45,46
244 248 m 1,56,-1
 475 829 l 1,57,58
 457 873 457 873 431 889 c 128,-1,59
 405 905 405 905 370 905 c 0,60,61
 336 905 336 905 312.5 891 c 128,-1,62
 289 877 289 877 268 837 c 128,-1,63
 247 797 247 797 236.5 714.5 c 128,-1,64
 226 632 226 632 226 505 c 0,65,66
 226 341 226 341 244 248 c 1,56,-1
EndSplineSet
EndChar

StartChar: thorn
Encoding: 254 254 186
Width: 740
GlyphClass: 2
Flags: W
LayerCount: 2
Fore
SplineSet
385 102 m 128,-1,1
 449 102 449 102 485.5 201 c 128,-1,2
 522 300 522 300 522 509 c 0,3,4
 522 706 522 706 485.5 805.5 c 128,-1,5
 449 905 449 905 387 905 c 0,6,7
 324 905 324 905 280.5 795 c 128,-1,8
 237 685 237 685 237 509 c 0,9,10
 237 335 237 335 279 218.5 c 128,-1,0
 321 102 321 102 385 102 c 128,-1,1
125 -416 m 2,11,12
 114 -416 114 -416 107.5 -396.5 c 128,-1,13
 101 -377 101 -377 101 -345 c 2,14,-1
 101 1360 l 2,15,16
 101 1431 101 1431 126 1431 c 2,17,-1
 213 1431 l 2,18,19
 224 1431 224 1431 230.5 1411.5 c 128,-1,20
 237 1392 237 1392 237 1360 c 2,21,-1
 237 867 l 2,22,23
 237 854 237 854 241 854 c 1,24,-1
 246 859 l 1,25,26
 275 938 275 938 322.5 978 c 128,-1,27
 370 1018 370 1018 425 1018 c 0,28,29
 473 1018 473 1018 513 992.5 c 128,-1,30
 553 967 553 967 587.5 910.5 c 128,-1,31
 622 854 622 854 642 749.5 c 128,-1,32
 662 645 662 645 662 501 c 0,33,34
 662 390 662 390 647.5 301.5 c 128,-1,35
 633 213 633 213 608.5 155.5 c 128,-1,36
 584 98 584 98 551 59.5 c 128,-1,37
 518 21 518 21 483.5 5 c 128,-1,38
 449 -11 449 -11 412 -11 c 0,39,40
 360 -11 360 -11 313.5 27.5 c 128,-1,41
 267 66 267 66 237 145 c 1,42,-1
 237 -345 l 2,43,44
 237 -416 237 -416 212 -416 c 2,45,-1
 125 -416 l 2,11,12
EndSplineSet
EndChar

StartChar: Dcroat
Encoding: 272 272 204
Width: 919
GlyphClass: 2
Flags: W
LayerCount: 2
Fore
SplineSet
136 0 m 2,0,1
 124 0 124 0 118 8 c 128,-1,2
 112 16 112 16 112 42 c 2,3,-1
 112 680 l 1,4,-1
 39 680 l 2,5,6
 8 680 8 680 8 714 c 2,7,-1
 8 736 l 2,8,9
 8 772 8 772 39 772 c 2,10,-1
 112 772 l 1,11,-1
 112 1402 l 2,12,13
 112 1424 112 1424 118 1431 c 128,-1,14
 124 1438 124 1438 136 1438 c 2,15,-1
 462 1438 l 2,16,17
 534 1438 534 1438 589.5 1417 c 128,-1,18
 645 1396 645 1396 691.5 1346 c 128,-1,19
 738 1296 738 1296 768.5 1215.5 c 128,-1,20
 799 1135 799 1135 815.5 1012.5 c 128,-1,21
 832 890 832 890 832 726 c 0,22,23
 832 589 832 589 824 484 c 128,-1,24
 816 379 816 379 801.5 302 c 128,-1,25
 787 225 787 225 761.5 171.5 c 128,-1,26
 736 118 736 118 707 84.5 c 128,-1,27
 678 51 678 51 635 32 c 128,-1,28
 592 13 592 13 548.5 6.5 c 128,-1,29
 505 0 505 0 444 0 c 2,30,-1
 136 0 l 2,0,1
285 128 m 2,31,-1
 438 128 l 2,32,33
 530 128 530 128 579 179.5 c 128,-1,34
 628 231 628 231 650 358 c 128,-1,35
 672 485 672 485 672 725 c 0,36,37
 672 942 672 942 647 1071 c 128,-1,38
 622 1200 622 1200 573 1255 c 128,-1,39
 524 1310 524 1310 443 1310 c 2,40,-1
 284 1310 l 2,41,42
 273 1310 273 1310 273 1290 c 2,43,-1
 273 772 l 1,44,-1
 439 772 l 2,45,46
 470 772 470 772 470 738 c 2,47,-1
 470 715 l 2,48,49
 470 680 470 680 439 680 c 2,50,-1
 273 680 l 1,51,-1
 273 150 l 2,52,53
 273 128 273 128 285 128 c 2,31,-1
EndSplineSet
EndChar

StartChar: dcroat
Encoding: 273 273 205
Width: 758
GlyphClass: 2
Flags: W
LayerCount: 2
Fore
SplineSet
511 509 m 0,0,1
 511 703 511 703 471 804 c 128,-1,2
 431 905 431 905 365 905 c 0,3,4
 333 905 333 905 309.5 888.5 c 128,-1,5
 286 872 286 872 265.5 830.5 c 128,-1,6
 245 789 245 789 234.5 708.5 c 128,-1,7
 224 628 224 628 224 509 c 0,8,9
 224 388 224 388 233.5 306 c 128,-1,10
 243 224 243 224 263 180.5 c 128,-1,11
 283 137 283 137 307.5 119.5 c 128,-1,12
 332 102 332 102 366 102 c 0,13,14
 433 102 433 102 472 207 c 128,-1,15
 511 312 511 312 511 509 c 0,0,1
336 -11 m 0,16,17
 296 -11 296 -11 263 -0.5 c 128,-1,18
 230 10 230 10 194.5 43 c 128,-1,19
 159 76 159 76 134.5 130.5 c 128,-1,20
 110 185 110 185 94.5 280 c 128,-1,21
 79 375 79 375 79 502 c 0,22,23
 79 628 79 628 93.5 722.5 c 128,-1,24
 108 817 108 817 131 872.5 c 128,-1,25
 154 928 154 928 188 961.5 c 128,-1,26
 222 995 222 995 255.5 1006.5 c 128,-1,27
 289 1018 289 1018 331 1018 c 0,28,29
 446 1018 446 1018 502 862 c 0,30,31
 503 860 503 860 509 851 c 1,32,33
 512 851 512 851 512 870 c 2,34,-1
 512 1179 l 1,35,-1
 325 1179 l 2,36,37
 294 1179 294 1179 294 1213 c 2,38,-1
 294 1235 l 2,39,40
 294 1271 294 1271 325 1271 c 2,41,-1
 512 1271 l 1,42,-1
 512 1369 l 2,43,44
 512 1431 512 1431 537 1431 c 2,45,-1
 631 1431 l 2,46,47
 656 1431 656 1431 656 1369 c 2,48,-1
 656 1271 l 1,49,-1
 724 1271 l 2,50,51
 755 1271 755 1271 755 1237 c 2,52,-1
 755 1214 l 2,53,54
 755 1179 755 1179 724 1179 c 2,55,-1
 656 1179 l 1,56,-1
 656 67 l 2,57,58
 656 0 656 0 634 0 c 1,59,60
 608 2 608 2 607 5 c 1,61,62
 589 15 589 15 581 63 c 0,63,64
 580 69 580 69 574.5 102.5 c 128,-1,65
 569 136 569 136 564.5 163.5 c 128,-1,66
 560 191 560 191 559 200 c 0,67,68
 558 217 558 217 554 220 c 1,69,70
 550 215 550 215 548 206 c 0,71,72
 520 84 520 84 467 36.5 c 128,-1,73
 414 -11 414 -11 336 -11 c 0,16,17
EndSplineSet
EndChar

StartChar: Hbar
Encoding: 294 294 224
Width: 918
GlyphClass: 2
Flags: W
LayerCount: 2
Fore
SplineSet
281 814 m 2,0,-1
 634 814 l 2,1,2
 637 814 637 814 641 821.5 c 128,-1,3
 645 829 645 829 645 836 c 2,4,-1
 645 1179 l 1,5,-1
 273 1179 l 1,6,-1
 273 834 l 2,7,8
 273 827 273 827 276 820.5 c 128,-1,9
 279 814 279 814 281 814 c 2,0,-1
137 0 m 2,10,11
 124 0 124 0 118 8.5 c 128,-1,12
 112 17 112 17 112 47 c 2,13,-1
 112 1179 l 1,14,-1
 50 1179 l 2,15,16
 19 1179 19 1179 19 1213 c 2,17,-1
 19 1235 l 2,18,19
 19 1271 19 1271 50 1271 c 2,20,-1
 112 1271 l 1,21,-1
 112 1391 l 2,22,23
 112 1421 112 1421 118 1429.5 c 128,-1,24
 124 1438 124 1438 137 1438 c 2,25,-1
 247 1438 l 2,26,27
 256 1438 256 1438 261 1435.5 c 128,-1,28
 266 1433 266 1433 269.5 1422 c 128,-1,29
 273 1411 273 1411 273 1391 c 2,30,-1
 273 1271 l 1,31,-1
 645 1271 l 1,32,-1
 645 1391 l 2,33,34
 645 1421 645 1421 651 1429.5 c 128,-1,35
 657 1438 657 1438 671 1438 c 2,36,-1
 782 1438 l 2,37,38
 795 1438 795 1438 800.5 1429.5 c 128,-1,39
 806 1421 806 1421 806 1391 c 2,40,-1
 806 1271 l 1,41,-1
 867 1271 l 2,42,43
 899 1271 899 1271 899 1237 c 2,44,-1
 899 1214 l 2,45,46
 899 1179 899 1179 867 1179 c 2,47,-1
 806 1179 l 1,48,-1
 806 47 l 2,49,50
 806 17 806 17 800.5 8.5 c 128,-1,51
 795 0 795 0 782 0 c 2,52,-1
 671 0 l 2,53,54
 657 0 657 0 650.5 8.5 c 128,-1,55
 644 17 644 17 644 47 c 2,56,-1
 644 664 l 2,57,58
 644 670 644 670 640.5 677 c 128,-1,59
 637 684 637 684 635 684 c 2,60,-1
 282 684 l 2,61,62
 280 684 280 684 277 677.5 c 128,-1,63
 274 671 274 671 274 665 c 2,64,-1
 274 47 l 2,65,66
 274 18 274 18 267.5 9 c 128,-1,67
 261 0 261 0 248 0 c 2,68,-1
 137 0 l 2,10,11
EndSplineSet
EndChar

StartChar: hbar
Encoding: 295 295 225
Width: 740
GlyphClass: 2
Flags: W
LayerCount: 2
Fore
SplineSet
126 0 m 2,0,1
 114 0 114 0 108 10 c 128,-1,2
 102 20 102 20 102 50 c 2,3,-1
 102 1179 l 1,4,-1
 41 1179 l 2,5,6
 10 1179 10 1179 10 1213 c 2,7,-1
 10 1235 l 2,8,9
 10 1271 10 1271 41 1271 c 2,10,-1
 102 1271 l 1,11,-1
 102 1383 l 2,12,13
 102 1437 102 1437 126 1437 c 2,14,-1
 224 1437 l 2,15,16
 249 1437 249 1437 249 1383 c 2,17,-1
 249 1271 l 1,18,-1
 458 1271 l 2,19,20
 490 1271 490 1271 490 1237 c 2,21,-1
 490 1214 l 2,22,23
 490 1179 490 1179 458 1179 c 2,24,-1
 249 1179 l 1,25,-1
 249 861 l 2,26,27
 249 849 249 849 253 849 c 0,28,29
 256 849 256 849 259 854 c 1,30,31
 290 939 290 939 343 978.5 c 128,-1,32
 396 1018 396 1018 451 1018 c 0,33,34
 517 1018 517 1018 559 981.5 c 128,-1,35
 601 945 601 945 626 846.5 c 128,-1,36
 651 748 651 748 651 582 c 2,37,-1
 651 50 l 2,38,39
 651 0 651 0 626 0 c 2,40,-1
 528 0 l 2,41,42
 516 0 516 0 510 10 c 128,-1,43
 504 20 504 20 504 50 c 2,44,-1
 504 606 l 2,45,46
 504 766 504 766 482 835.5 c 128,-1,47
 460 905 460 905 406 905 c 0,48,49
 342 905 342 905 295.5 814 c 128,-1,50
 249 723 249 723 249 595 c 2,51,-1
 249 50 l 2,52,53
 249 20 249 20 243 10 c 128,-1,54
 237 0 237 0 225 0 c 2,55,-1
 126 0 l 2,0,1
EndSplineSet
EndChar

StartChar: dotlessi
Encoding: 305 305 235
Width: 338
GlyphClass: 2
Flags: W
LayerCount: 2
Fore
SplineSet
132 0 m 2,0,1
 107 0 107 0 107 61 c 2,2,-1
 107 946 l 2,3,4
 107 1006 107 1006 132 1006 c 2,5,-1
 219 1006 l 2,6,7
 243 1006 243 1006 243 946 c 2,8,-1
 243 61 l 2,9,10
 243 0 243 0 219 0 c 2,11,-1
 132 0 l 2,0,1
EndSplineSet
EndChar

StartChar: kgreenlandic
Encoding: 312 312 242
Width: 683
GlyphClass: 2
Flags: W
LayerCount: 2
Fore
SplineSet
127 0 m 2,0,1
 103 0 103 0 103 63 c 2,2,-1
 103 944 l 2,3,4
 103 1006 103 1006 127 1006 c 2,5,-1
 216 1006 l 2,6,7
 240 1006 240 1006 240 944 c 2,8,-1
 240 542 l 2,9,10
 240 528 240 528 245 528 c 1,11,-1
 248 531 l 1,12,-1
 470 948 l 1,13,14
 486 981 486 981 498 993.5 c 128,-1,15
 510 1006 510 1006 525 1006 c 2,16,-1
 628 1006 l 2,17,18
 638 1006 638 1006 638 985 c 0,19,20
 638 969 638 969 627 949 c 2,21,-1
 430 574 l 1,22,23
 426 564 426 564 426 558 c 0,24,25
 426 555 426 555 430 543 c 1,26,-1
 643 61 l 2,27,28
 651 42 651 42 651 27 c 0,29,30
 651 0 651 0 640 0 c 2,31,-1
 530 0 l 2,32,33
 512 0 512 0 491 54 c 2,34,-1
 330 458 l 2,35,36
 326 468 326 468 322 468 c 0,37,38
 319 468 319 468 316 461 c 1,39,40
 309 452 309 452 292 420.5 c 128,-1,41
 275 389 275 389 260 362 c 1,42,-1
 246 334 l 1,43,44
 240 319 240 319 240 294 c 2,45,-1
 240 63 l 2,46,47
 240 0 240 0 216 0 c 2,48,-1
 127 0 l 2,0,1
EndSplineSet
EndChar

StartChar: Lslash
Encoding: 321 321 251
Width: 617
GlyphClass: 2
Flags: W
LayerCount: 2
Fore
SplineSet
548 0 m 2,0,-1
 136 0 l 2,1,2
 128 0 128 0 123.5 2.5 c 128,-1,3
 119 5 119 5 115.5 16 c 128,-1,4
 112 27 112 27 112 47 c 2,5,-1
 112 679 l 1,6,-1
 33 657 l 2,7,8
 21 654 21 654 14.5 661.5 c 128,-1,9
 8 669 8 669 8 692 c 2,10,-1
 8 756 l 2,11,12
 8 763 8 763 8.5 768 c 128,-1,13
 9 773 9 773 10.5 777 c 128,-1,14
 12 781 12 781 13 783 c 128,-1,15
 14 785 14 785 17.5 786.5 c 128,-1,16
 21 788 21 788 22 788.5 c 128,-1,17
 23 789 23 789 27.5 790.5 c 128,-1,18
 32 792 32 792 33 792 c 2,19,-1
 112 814 l 1,20,-1
 112 1391 l 2,21,22
 112 1420 112 1420 118 1429 c 128,-1,23
 124 1438 124 1438 136 1438 c 2,24,-1
 249 1438 l 2,25,26
 257 1438 257 1438 261.5 1435.5 c 128,-1,27
 266 1433 266 1433 269.5 1422 c 128,-1,28
 273 1411 273 1411 273 1391 c 2,29,-1
 273 856 l 1,30,-1
 439 903 l 2,31,32
 451 906 451 906 457.5 898.5 c 128,-1,33
 464 891 464 891 464 868 c 2,34,-1
 464 803 l 2,35,36
 464 788 464 788 460 780.5 c 128,-1,37
 456 773 456 773 452.5 771.5 c 128,-1,38
 449 770 449 770 439 768 c 2,39,-1
 273 721 l 1,40,-1
 273 149 l 2,41,42
 273 128 273 128 286 128 c 2,43,-1
 548 128 l 2,44,45
 557 128 557 128 561 126.5 c 128,-1,46
 565 125 565 125 569 117.5 c 128,-1,47
 573 110 573 110 573 94 c 2,48,-1
 573 36 l 2,49,50
 573 13 573 13 567 6.5 c 128,-1,51
 561 0 561 0 548 0 c 2,0,-1
EndSplineSet
EndChar

StartChar: lslash
Encoding: 322 322 252
Width: 338
GlyphClass: 2
Flags: W
LayerCount: 2
Fore
SplineSet
221 0 m 2,0,-1
 134 0 l 2,1,2
 109 0 109 0 109 58 c 2,3,-1
 109 751 l 1,4,-1
 -2 722 l 2,5,6
 -15 718 -15 718 -22 726.5 c 128,-1,7
 -29 735 -29 735 -29 764 c 2,8,-1
 -29 811 l 2,9,10
 -29 823 -29 823 -28 831 c 128,-1,11
 -27 839 -27 839 -23.5 843 c 128,-1,12
 -20 847 -20 847 -18 848.5 c 128,-1,13
 -16 850 -16 850 -9.5 851.5 c 128,-1,14
 -3 853 -3 853 -2 853 c 2,15,-1
 109 882 l 1,16,-1
 109 1392 l 2,17,18
 109 1455 109 1455 134 1455 c 2,19,-1
 221 1455 l 2,20,21
 245 1455 245 1455 245 1392 c 2,22,-1
 245 918 l 1,23,-1
 355 946 l 2,24,25
 368 950 368 950 375 942 c 128,-1,26
 382 934 382 934 382 905 c 2,27,-1
 382 857 l 2,28,29
 382 845 382 845 381 837 c 128,-1,30
 380 829 380 829 376.5 825 c 128,-1,31
 373 821 373 821 371 820 c 128,-1,32
 369 819 369 819 363 818 c 128,-1,33
 357 817 357 817 355 816 c 2,34,-1
 245 787 l 1,35,-1
 245 58 l 2,36,37
 245 0 245 0 221 0 c 2,0,-1
EndSplineSet
EndChar

StartChar: OE
Encoding: 338 338 265
Width: 1103
GlyphClass: 2
Flags: W
LayerCount: 2
Fore
SplineSet
558 128 m 2,0,1
 560 128 560 128 560 719 c 128,-1,2
 560 1310 560 1310 558 1310 c 2,3,-1
 468 1310 l 1,4,5
 356 1309 356 1309 302.5 1174 c 128,-1,6
 249 1039 249 1039 249 723 c 0,7,8
 249 549 249 549 263 431.5 c 128,-1,9
 277 314 277 314 306 248 c 128,-1,10
 335 182 335 182 374 155 c 128,-1,11
 413 128 413 128 468 128 c 2,12,-1
 558 128 l 2,0,1
475 0 m 2,13,14
 403 0 403 0 350 15.5 c 128,-1,15
 297 31 297 31 245 77 c 128,-1,16
 193 123 193 123 160.5 201.5 c 128,-1,17
 128 280 128 280 108 411.5 c 128,-1,18
 88 543 88 543 88 723 c 0,19,20
 88 886 88 886 106.5 1010 c 128,-1,21
 125 1134 125 1134 157 1214.5 c 128,-1,22
 189 1295 189 1295 236.5 1345.5 c 128,-1,23
 284 1396 284 1396 339 1417 c 128,-1,24
 394 1438 394 1438 462 1438 c 2,25,-1
 1005 1438 l 2,26,27
 1030 1438 1030 1438 1030 1389 c 2,28,-1
 1030 1359 l 2,29,30
 1030 1310 1030 1310 1005 1310 c 2,31,-1
 735 1310 l 2,32,33
 724 1310 724 1310 724 1279 c 2,34,-1
 724 821 l 2,35,36
 724 814 724 814 727 807 c 128,-1,37
 730 800 730 800 732 800 c 2,38,-1
 971 800 l 2,39,40
 996 800 996 800 996 752 c 2,41,-1
 996 722 l 2,42,43
 996 672 996 672 971 672 c 2,44,-1
 733 672 l 2,45,46
 731 672 731 672 727.5 662.5 c 128,-1,47
 724 653 724 653 724 646 c 2,48,-1
 724 153 l 2,49,50
 724 128 724 128 730 128 c 2,51,-1
 1018 128 l 2,52,53
 1042 128 1042 128 1042 79 c 2,54,-1
 1042 50 l 2,55,56
 1042 0 1042 0 1018 0 c 2,57,-1
 475 0 l 2,13,14
EndSplineSet
EndChar

StartChar: oe
Encoding: 339 339 266
Width: 1079
GlyphClass: 2
Flags: W
LayerCount: 2
Fore
SplineSet
355 102 m 0,0,1
 389 102 389 102 411.5 116.5 c 128,-1,2
 434 131 434 131 454 172 c 128,-1,3
 474 213 474 213 483.5 295.5 c 128,-1,4
 493 378 493 378 493 505 c 0,5,6
 493 608 493 608 486 681.5 c 128,-1,7
 479 755 479 755 467.5 798 c 128,-1,8
 456 841 456 841 437.5 865.5 c 128,-1,9
 419 890 419 890 400.5 897.5 c 128,-1,10
 382 905 382 905 355 905 c 0,11,12
 321 905 321 905 298.5 891 c 128,-1,13
 276 877 276 877 255.5 837 c 128,-1,14
 235 797 235 797 225.5 714.5 c 128,-1,15
 216 632 216 632 216 505 c 128,-1,16
 216 378 216 378 225.5 296 c 128,-1,17
 235 214 235 214 254.5 172.5 c 128,-1,18
 274 131 274 131 297 116.5 c 128,-1,19
 320 102 320 102 355 102 c 0,0,1
636 562 m 2,20,-1
 890 562 l 2,21,22
 892 562 892 562 892 580 c 0,23,24
 887 741 887 741 858 823.5 c 128,-1,25
 829 906 829 906 765 906 c 0,26,27
 649 906 649 906 632 616 c 1,28,29
 632 562 632 562 636 562 c 2,20,-1
995 246 m 2,30,31
 995 135 995 135 941.5 62 c 128,-1,32
 888 -11 888 -11 780 -11 c 0,33,34
 630 -11 630 -11 566 179 c 1,35,36
 509 -11 509 -11 360 -11 c 0,37,38
 315 -11 315 -11 281 -3 c 128,-1,39
 247 5 247 5 207 35.5 c 128,-1,40
 167 66 167 66 141.5 119.5 c 128,-1,41
 116 173 116 173 98.5 271.5 c 128,-1,42
 81 370 81 370 81 505 c 128,-1,43
 81 640 81 640 98 738 c 128,-1,44
 115 836 115 836 140.5 889 c 128,-1,45
 166 942 166 942 205.5 972.5 c 128,-1,46
 245 1003 245 1003 279 1010.5 c 128,-1,47
 313 1018 313 1018 358 1018 c 0,48,49
 499 1018 499 1018 563 845 c 1,50,51
 632 1019 632 1019 767 1019 c 0,52,53
 879 1019 879 1019 939 912.5 c 128,-1,54
 999 806 999 806 1004 568 c 0,55,56
 1004 557 1004 557 1002.5 538.5 c 128,-1,57
 1001 520 1001 520 993.5 496.5 c 128,-1,58
 986 473 986 473 973 473 c 2,59,-1
 639 473 l 2,60,61
 631 473 631 473 631 452 c 0,62,63
 631 378 631 378 639.5 317.5 c 128,-1,64
 648 257 648 257 665 207 c 128,-1,65
 682 157 682 157 712 129.5 c 128,-1,66
 742 102 742 102 783 102 c 0,67,68
 800 102 800 102 815 106.5 c 128,-1,69
 830 111 830 111 840.5 116.5 c 128,-1,70
 851 122 851 122 860 135 c 128,-1,71
 869 148 869 148 874.5 155.5 c 128,-1,72
 880 163 880 163 885.5 181.5 c 128,-1,73
 891 200 891 200 893 207 c 128,-1,74
 895 214 895 214 898 236 c 128,-1,75
 901 258 901 258 901.5 261.5 c 128,-1,76
 902 265 902 265 904 287 c 0,77,78
 906 307 906 307 917 307 c 2,79,-1
 976 307 l 2,80,81
 995 307 995 307 995 271 c 2,82,-1
 995 246 l 2,30,31
EndSplineSet
EndChar

StartChar: florin
Encoding: 402 402 305
Width: 491
GlyphClass: 2
Flags: W
LayerCount: 2
Fore
SplineSet
12 -124 m 2,0,-1
 -9 -124 l 2,1,2
 -36 -124 -36 -124 -37 -105 c 1,3,4
 -39 -105 -39 -105 -39 -82 c 2,5,-1
 -39 -64 l 1,6,7
 -37 -11 -37 -11 -22 -11 c 2,8,-1
 -8 -11 l 2,9,10
 53 -11 53 -11 79.5 34.5 c 128,-1,11
 106 80 106 80 118 215 c 2,12,-1
 165 759 l 2,13,14
 168 788 168 788 161 788 c 2,15,-1
 83 788 l 2,16,17
 71 788 71 788 66.5 795 c 128,-1,18
 62 802 62 802 64 823 c 2,19,-1
 69 874 l 2,20,21
 73 913 73 913 97 913 c 2,22,-1
 174 913 l 2,23,24
 181 913 181 913 186 970 c 0,25,26
 202 1129 202 1129 234.5 1217 c 128,-1,27
 267 1305 267 1305 313.5 1336.5 c 128,-1,28
 360 1368 360 1368 436 1368 c 0,29,30
 451 1368 451 1368 464 1365 c 128,-1,31
 477 1362 477 1362 484.5 1358.5 c 128,-1,32
 492 1355 492 1355 491 1351 c 1,33,34
 497 1351 497 1351 497 1306 c 1,35,36
 495 1253 495 1253 479 1253 c 2,37,-1
 455 1253 l 2,38,39
 395 1253 395 1253 369 1207 c 128,-1,40
 343 1161 343 1161 330 1027 c 1,41,-1
 318 919 l 2,42,43
 318 913 318 913 321 913 c 2,44,-1
 431 913 l 2,45,46
 453 913 453 913 449 877 c 2,47,-1
 443 823 l 2,48,49
 441 802 441 802 435 795 c 128,-1,50
 429 788 429 788 417 788 c 2,51,-1
 317 788 l 2,52,53
 308 788 308 788 305 759 c 2,54,-1
 264 274 l 2,55,56
 251 125 251 125 218 36 c 128,-1,57
 185 -53 185 -53 135.5 -88.5 c 128,-1,58
 86 -124 86 -124 12 -124 c 2,0,-1
EndSplineSet
EndChar

StartChar: uni0237
Encoding: 567 567 348
Width: 377
GlyphClass: 2
Flags: W
LayerCount: 2
Fore
SplineSet
35 -321 m 2,0,1
 12 -321 12 -321 12 -274 c 2,2,-1
 12 -222 l 2,3,4
 12 -180 12 -180 35 -180 c 2,5,-1
 74 -180 l 2,6,7
 112 -180 112 -180 128 -144 c 128,-1,8
 144 -108 144 -108 144 1 c 2,9,-1
 144 946 l 2,10,11
 144 1006 144 1006 168 1006 c 2,12,-1
 255 1006 l 2,13,14
 280 1006 280 1006 280 946 c 2,15,-1
 280 0 l 2,16,17
 280 -86 280 -86 271.5 -145.5 c 128,-1,18
 263 -205 263 -205 249.5 -239 c 128,-1,19
 236 -273 236 -273 211.5 -292 c 128,-1,20
 187 -311 187 -311 164 -316 c 128,-1,21
 141 -321 141 -321 105 -321 c 2,22,-1
 35 -321 l 2,0,1
EndSplineSet
EndChar

StartChar: circumflex
Encoding: 710 710 349
Width: 307
GlyphClass: 2
Flags: W
LayerCount: 2
Fore
SplineSet
62 1230 m 0,0,1
 53 1230 53 1230 41 1233.5 c 128,-1,2
 29 1237 29 1237 29 1242 c 1,3,4
 19 1243 19 1243 19 1261 c 0,5,6
 19 1273 19 1273 22 1282 c 2,7,-1
 89 1462 l 1,8,9
 114 1535 114 1535 141 1535 c 2,10,-1
 164 1535 l 2,11,12
 191 1535 191 1535 217 1462 c 2,13,-1
 283 1282 l 1,14,15
 287 1268 287 1268 287 1258 c 0,16,17
 287 1243 287 1243 276 1242 c 1,18,19
 276 1237 276 1237 264 1233.5 c 128,-1,20
 252 1230 252 1230 244 1230 c 0,21,22
 226 1230 226 1230 212 1260 c 1,23,-1
 163 1375 l 2,24,25
 157 1389 157 1389 152 1389 c 0,26,27
 148 1389 148 1389 142 1375 c 2,28,-1
 93 1260 l 1,29,30
 79 1230 79 1230 62 1230 c 0,0,1
EndSplineSet
EndChar

StartChar: caron
Encoding: 711 711 350
Width: 307
GlyphClass: 2
Flags: W
LayerCount: 2
Fore
SplineSet
141 1230 m 2,0,1
 114 1230 114 1230 89 1303 c 1,2,-1
 22 1483 l 1,3,4
 18 1497 18 1497 18 1506 c 0,5,6
 18 1521 18 1521 29 1522 c 1,7,8
 29 1527 29 1527 40.5 1531 c 128,-1,9
 52 1535 52 1535 61 1535 c 0,10,11
 79 1535 79 1535 93 1504 c 2,12,-1
 142 1390 l 2,13,14
 148 1376 148 1376 153 1376 c 0,15,16
 157 1376 157 1376 163 1390 c 2,17,-1
 212 1504 l 2,18,19
 226 1535 226 1535 243 1535 c 0,20,21
 252 1535 252 1535 264 1531 c 128,-1,22
 276 1527 276 1527 276 1522 c 1,23,24
 286 1521 286 1521 286 1504 c 0,25,26
 286 1492 286 1492 283 1483 c 2,27,-1
 216 1303 l 1,28,29
 191 1230 191 1230 164 1230 c 2,30,-1
 141 1230 l 2,0,1
EndSplineSet
EndChar

StartChar: breve
Encoding: 728 728 351
Width: 1403
GlyphClass: 2
Flags: W
LayerCount: 2
Fore
SplineSet
609 1292 m 0,0,1
 533 1292 533 1292 479 1339.5 c 128,-1,2
 425 1387 425 1387 425 1478 c 1,3,-1
 503 1478 l 1,4,5
 503 1429 503 1429 534.5 1404.5 c 128,-1,6
 566 1380 566 1380 611 1380 c 128,-1,7
 656 1380 656 1380 687.5 1404.5 c 128,-1,8
 719 1429 719 1429 719 1478 c 1,9,-1
 796 1478 l 1,10,11
 795 1387 795 1387 740.5 1339.5 c 128,-1,12
 686 1292 686 1292 609 1292 c 0,0,1
EndSplineSet
EndChar

StartChar: dotaccent
Encoding: 729 729 352
Width: 378
GlyphClass: 2
Flags: W
LayerCount: 2
Fore
SplineSet
39 67 m 2,0,1
 12 67 12 67 12 120 c 2,2,-1
 12 231 l 2,3,4
 12 283 12 283 39 283 c 2,5,-1
 161 283 l 2,6,7
 188 283 188 283 188 231 c 2,8,-1
 188 120 l 2,9,10
 188 67 188 67 161 67 c 2,11,-1
 39 67 l 2,0,1
EndSplineSet
EndChar

StartChar: ring
Encoding: 730 730 353
Width: 1061
GlyphClass: 2
Flags: W
LayerCount: 2
Fore
SplineSet
539 840 m 128,-1,1
 510 840 510 840 480 849 c 128,-1,2
 450 858 450 858 421 877 c 128,-1,3
 392 896 392 896 373.5 933.5 c 128,-1,4
 355 971 355 971 355 1021 c 0,5,6
 355 1073 355 1073 372.5 1110.5 c 128,-1,7
 390 1148 390 1148 418.5 1167 c 128,-1,8
 447 1186 447 1186 477 1194.5 c 128,-1,9
 507 1203 507 1203 539 1203 c 128,-1,10
 571 1203 571 1203 600 1194.5 c 128,-1,11
 629 1186 629 1186 658 1167 c 128,-1,12
 687 1148 687 1148 704 1110.5 c 128,-1,13
 721 1073 721 1073 721 1021 c 0,14,15
 721 971 721 971 702.5 934 c 128,-1,16
 684 897 684 897 655 877.5 c 128,-1,17
 626 858 626 858 597 849 c 128,-1,0
 568 840 568 840 539 840 c 128,-1,1
539 902 m 0,18,19
 582 902 582 902 614 931 c 128,-1,20
 646 960 646 960 646 1021 c 0,21,22
 646 1086 646 1086 614 1113 c 128,-1,23
 582 1140 582 1140 539 1140 c 0,24,25
 494 1140 494 1140 462 1113.5 c 128,-1,26
 430 1087 430 1087 430 1021 c 0,27,28
 430 960 430 960 462.5 931 c 128,-1,29
 495 902 495 902 539 902 c 0,18,19
EndSplineSet
EndChar

StartChar: ogonek
Encoding: 731 731 354
Width: 716
GlyphClass: 2
Flags: W
LayerCount: 2
Fore
SplineSet
479 -342 m 0,0,1
 439 -342 439 -342 435 -341 c 0,2,3
 331 -338 331 -338 275.5 -290 c 128,-1,4
 220 -242 220 -242 220 -178 c 0,5,6
 220 -91 220 -91 277 -37 c 128,-1,7
 334 17 334 17 432 29 c 1,8,-1
 430 -4 l 1,9,10
 344 -31 344 -31 344 -133 c 0,11,12
 344 -189 344 -189 373.5 -224.5 c 128,-1,13
 403 -260 403 -260 470 -260 c 1,14,15
 495 -259 495 -259 495 -270 c 2,16,-1
 495 -325 l 2,17,18
 495 -342 495 -342 479 -342 c 0,0,1
EndSplineSet
EndChar

StartChar: tilde
Encoding: 732 732 355
Width: 656
GlyphClass: 2
Flags: W
LayerCount: 2
Fore
SplineSet
413 888 m 0,0,1
 395 888 395 888 364.5 869 c 128,-1,2
 334 850 334 850 296 830.5 c 128,-1,3
 258 811 258 811 222 811 c 0,4,5
 198 811 198 811 179 819 c 128,-1,6
 160 827 160 827 145.5 843.5 c 128,-1,7
 131 860 131 860 123.5 870.5 c 128,-1,8
 116 881 116 881 105 901 c 1,9,10
 92 920 92 920 92 935 c 128,-1,11
 92 950 92 950 103 960.5 c 128,-1,12
 114 971 114 971 128 971 c 0,13,14
 147 971 147 971 164 944 c 1,15,16
 184 897 184 897 214 897 c 0,17,18
 237 897 237 897 303 935.5 c 128,-1,19
 369 974 369 974 409 974 c 0,20,21
 445 974 445 974 470 950 c 128,-1,22
 495 926 495 926 521 882 c 1,23,24
 535 861 535 861 535 846 c 0,25,26
 535 832 535 832 525 822.5 c 128,-1,27
 515 813 515 813 502 813 c 0,28,29
 488 813 488 813 475.5 824.5 c 128,-1,30
 463 836 463 836 455.5 850.5 c 128,-1,31
 448 865 448 865 437 876.5 c 128,-1,32
 426 888 426 888 413 888 c 0,0,1
EndSplineSet
EndChar

StartChar: hungarumlaut
Encoding: 733 733 356
Width: 596
GlyphClass: 2
Flags: W
LayerCount: 2
Fore
SplineSet
368 1168 m 2,0,1
 360 1168 360 1168 357 1174.5 c 128,-1,2
 354 1181 354 1181 354 1200 c 0,3,4
 354 1221 354 1221 355 1235 c 2,5,-1
 376 1554 l 2,6,7
 378 1586 378 1586 384 1597.5 c 128,-1,8
 390 1609 390 1609 402 1609 c 2,9,-1
 475 1609 l 2,10,11
 485 1609 485 1609 485 1581 c 0,12,13
 485 1568 485 1568 481 1544 c 1,14,-1
 408 1207 l 1,15,16
 402 1173 402 1173 394 1169 c 0,17,18
 392 1168 392 1168 389 1168 c 2,19,-1
 368 1168 l 2,0,1
221 1168 m 2,20,21
 206 1168 206 1168 206 1200 c 0,22,23
 206 1207 206 1207 208 1235 c 2,24,-1
 229 1554 l 1,25,26
 230 1586 230 1586 236 1597.5 c 128,-1,27
 242 1609 242 1609 254 1609 c 2,28,-1
 327 1609 l 2,29,30
 337 1609 337 1609 337 1581 c 0,31,32
 337 1568 337 1568 333 1544 c 1,33,-1
 261 1207 l 1,34,35
 255 1173 255 1173 247 1169 c 0,36,37
 244 1168 244 1168 241 1168 c 2,38,-1
 221 1168 l 2,20,21
EndSplineSet
EndChar

StartChar: endash
Encoding: 8211 8211 379
Width: 1024
GlyphClass: 2
Flags: W
LayerCount: 2
Fore
SplineSet
120 489 m 2,0,1
 88 489 88 489 88 525 c 2,2,-1
 88 549 l 2,3,4
 88 586 88 586 120 586 c 2,5,-1
 898 586 l 2,6,7
 931 586 931 586 931 550 c 2,8,-1
 931 526 l 2,9,10
 931 489 931 489 898 489 c 2,11,-1
 120 489 l 2,0,1
EndSplineSet
EndChar

StartChar: emdash
Encoding: 8212 8212 380
Width: 2048
GlyphClass: 2
Flags: W
LayerCount: 2
Fore
SplineSet
120 489 m 2,0,1
 88 489 88 489 88 525 c 2,2,-1
 88 549 l 2,3,4
 88 586 88 586 120 586 c 2,5,-1
 1921 586 l 2,6,7
 1954 586 1954 586 1954 550 c 2,8,-1
 1954 526 l 2,9,10
 1954 489 1954 489 1921 489 c 2,11,-1
 120 489 l 2,0,1
EndSplineSet
EndChar

StartChar: quoteleft
Encoding: 8216 8216 381
Width: 327
GlyphClass: 2
Flags: W
LayerCount: 2
Fore
SplineSet
115 874 m 2,0,1
 88 874 88 874 88 942 c 2,2,-1
 88 1121 l 2,3,4
 88 1281 88 1281 129 1381.5 c 128,-1,5
 170 1482 170 1482 215 1504 c 0,6,7
 217 1505 217 1505 220 1505 c 0,8,9
 239 1505 239 1505 239 1459 c 2,10,-1
 239 1444 l 2,11,12
 239 1432 239 1432 239 1424 c 128,-1,13
 239 1416 239 1416 238 1409.5 c 128,-1,14
 237 1403 237 1403 236.5 1399.5 c 128,-1,15
 236 1396 236 1396 233.5 1391.5 c 128,-1,16
 231 1387 231 1387 229.5 1385.5 c 128,-1,17
 228 1384 228 1384 224 1378.5 c 128,-1,18
 220 1373 220 1373 217 1369 c 0,19,20
 197 1342 197 1342 185 1295 c 128,-1,21
 173 1248 173 1248 173 1212 c 0,22,23
 173 1185 173 1185 179 1185 c 2,24,-1
 218 1185 l 2,25,26
 239 1185 239 1185 239 1130 c 2,27,-1
 239 935 l 2,28,29
 239 874 239 874 218 874 c 2,30,-1
 115 874 l 2,0,1
EndSplineSet
EndChar

StartChar: quoteright
Encoding: 8217 8217 382
Width: 322
GlyphClass: 2
Flags: W
LayerCount: 2
Fore
SplineSet
114 871 m 0,0,1
 112 870 112 870 109 870 c 0,2,3
 90 870 90 870 90 916 c 2,4,-1
 90 931 l 2,5,6
 90 943 90 943 90 951 c 128,-1,7
 90 959 90 959 91 965.5 c 128,-1,8
 92 972 92 972 93 975.5 c 128,-1,9
 94 979 94 979 96.5 983.5 c 128,-1,10
 99 988 99 988 100 989.5 c 128,-1,11
 101 991 101 991 105.5 996.5 c 128,-1,12
 110 1002 110 1002 113 1006 c 0,13,14
 132 1033 132 1033 144 1080.5 c 128,-1,15
 156 1128 156 1128 156 1164 c 0,16,17
 156 1191 156 1191 150 1191 c 2,18,-1
 111 1191 l 2,19,20
 90 1191 90 1191 90 1245 c 2,21,-1
 90 1440 l 2,22,23
 90 1501 90 1501 111 1501 c 2,24,-1
 215 1501 l 2,25,26
 226 1501 226 1501 233.5 1482.5 c 128,-1,27
 241 1464 241 1464 241 1433 c 2,28,-1
 241 1254 l 2,29,30
 241 1094 241 1094 200 993.5 c 128,-1,31
 159 893 159 893 114 871 c 0,0,1
EndSplineSet
EndChar

StartChar: quotesinglbase
Encoding: 8218 8218 383
Width: 265
GlyphClass: 2
Flags: W
LayerCount: 2
Fore
SplineSet
122 -210 m 2,0,1
 104 -210 104 -210 101 -144 c 1,2,-1
 67 249 l 1,3,4
 67 257 l 0,5,6
 67 283 67 283 74.5 301.5 c 128,-1,7
 82 320 82 320 92 320 c 2,8,-1
 174 320 l 2,9,10
 184 320 184 320 191 300.5 c 128,-1,11
 198 281 198 281 198 253 c 2,12,-1
 198 248 l 1,13,-1
 166 -144 l 2,14,15
 161 -210 161 -210 145 -210 c 2,16,-1
 122 -210 l 2,0,1
EndSplineSet
EndChar

StartChar: quotedblleft
Encoding: 8220 8220 384
Width: 575
GlyphClass: 2
Flags: W
LayerCount: 2
Fore
SplineSet
361 874 m 2,0,1
 334 874 334 874 334 942 c 2,2,-1
 334 1121 l 2,3,4
 334 1281 334 1281 375 1381.5 c 128,-1,5
 416 1482 416 1482 461 1504 c 0,6,7
 463 1505 463 1505 466 1505 c 0,8,9
 485 1505 485 1505 485 1459 c 2,10,-1
 485 1444 l 2,11,12
 485 1432 485 1432 485 1424 c 128,-1,13
 485 1416 485 1416 484 1409.5 c 128,-1,14
 483 1403 483 1403 482.5 1399.5 c 128,-1,15
 482 1396 482 1396 479.5 1391.5 c 128,-1,16
 477 1387 477 1387 475.5 1385.5 c 128,-1,17
 474 1384 474 1384 470 1378.5 c 128,-1,18
 466 1373 466 1373 463 1369 c 0,19,20
 443 1342 443 1342 431 1295 c 128,-1,21
 419 1248 419 1248 419 1212 c 0,22,23
 419 1185 419 1185 425 1185 c 2,24,-1
 464 1185 l 2,25,26
 485 1185 485 1185 485 1130 c 2,27,-1
 485 935 l 2,28,29
 485 874 485 874 464 874 c 2,30,-1
 361 874 l 2,0,1
115 874 m 2,31,32
 88 874 88 874 88 942 c 2,33,-1
 88 1121 l 2,34,35
 88 1281 88 1281 129 1381.5 c 128,-1,36
 170 1482 170 1482 215 1504 c 0,37,38
 217 1505 217 1505 220 1505 c 0,39,40
 239 1505 239 1505 239 1459 c 2,41,-1
 239 1444 l 2,42,43
 239 1432 239 1432 239 1424 c 128,-1,44
 239 1416 239 1416 238 1409.5 c 128,-1,45
 237 1403 237 1403 236.5 1399.5 c 128,-1,46
 236 1396 236 1396 233.5 1391.5 c 128,-1,47
 231 1387 231 1387 229.5 1385.5 c 128,-1,48
 228 1384 228 1384 224 1378.5 c 128,-1,49
 220 1373 220 1373 217 1369 c 0,50,51
 197 1342 197 1342 185 1295 c 128,-1,52
 173 1248 173 1248 173 1212 c 0,53,54
 173 1185 173 1185 179 1185 c 2,55,-1
 218 1185 l 2,56,57
 239 1185 239 1185 239 1130 c 2,58,-1
 239 935 l 2,59,60
 239 874 239 874 218 874 c 2,61,-1
 115 874 l 2,31,32
EndSplineSet
EndChar

StartChar: quotedblright
Encoding: 8221 8221 385
Width: 574
GlyphClass: 2
Flags: W
LayerCount: 2
Fore
SplineSet
357 871 m 0,0,1
 355 870 355 870 352 870 c 0,2,3
 333 870 333 870 333 916 c 2,4,-1
 333 931 l 2,5,6
 333 947 333 947 333.5 956.5 c 128,-1,7
 334 966 334 966 336.5 974 c 128,-1,8
 339 982 339 982 340 984 c 128,-1,9
 341 986 341 986 347.5 994.5 c 128,-1,10
 354 1003 354 1003 356 1006 c 0,11,12
 375 1033 375 1033 387 1080.5 c 128,-1,13
 399 1128 399 1128 399 1164 c 0,14,15
 399 1191 399 1191 393 1191 c 2,16,-1
 354 1191 l 2,17,18
 333 1191 333 1191 333 1245 c 2,19,-1
 333 1440 l 2,20,21
 333 1501 333 1501 354 1501 c 2,22,-1
 458 1501 l 2,23,24
 469 1501 469 1501 476.5 1482.5 c 128,-1,25
 484 1464 484 1464 484 1433 c 2,26,-1
 484 1254 l 2,27,28
 484 1094 484 1094 443 993.5 c 128,-1,29
 402 893 402 893 357 871 c 0,0,1
114 871 m 0,30,31
 112 870 112 870 109 870 c 0,32,33
 90 870 90 870 90 916 c 2,34,-1
 90 931 l 2,35,36
 90 943 90 943 90 951 c 128,-1,37
 90 959 90 959 91 965.5 c 128,-1,38
 92 972 92 972 93 975.5 c 128,-1,39
 94 979 94 979 96.5 983.5 c 128,-1,40
 99 988 99 988 100 989.5 c 128,-1,41
 101 991 101 991 105.5 996.5 c 128,-1,42
 110 1002 110 1002 113 1006 c 0,43,44
 132 1033 132 1033 144 1080.5 c 128,-1,45
 156 1128 156 1128 156 1164 c 0,46,47
 156 1191 156 1191 150 1191 c 2,48,-1
 111 1191 l 2,49,50
 90 1191 90 1191 90 1245 c 2,51,-1
 90 1440 l 2,52,53
 90 1501 90 1501 111 1501 c 2,54,-1
 215 1501 l 2,55,56
 226 1501 226 1501 233.5 1482.5 c 128,-1,57
 241 1464 241 1464 241 1433 c 2,58,-1
 241 1254 l 2,59,60
 241 1094 241 1094 200 993.5 c 128,-1,61
 159 893 159 893 114 871 c 0,30,31
EndSplineSet
EndChar

StartChar: quotedblbase
Encoding: 8222 8222 386
Width: 512
GlyphClass: 2
Flags: W
LayerCount: 2
Fore
SplineSet
369 -210 m 2,0,1
 351 -210 351 -210 348 -144 c 1,2,-1
 314 249 l 1,3,4
 314 257 l 0,5,6
 314 283 314 283 321.5 301.5 c 128,-1,7
 329 320 329 320 339 320 c 2,8,-1
 421 320 l 2,9,10
 431 320 431 320 438 300.5 c 128,-1,11
 445 281 445 281 445 253 c 2,12,-1
 445 248 l 1,13,-1
 413 -144 l 2,14,15
 408 -210 408 -210 392 -210 c 2,16,-1
 369 -210 l 2,0,1
122 -210 m 2,17,18
 104 -210 104 -210 101 -144 c 1,19,-1
 67 249 l 1,20,-1
 67 257 l 2,21,22
 67 283 67 283 74.5 301.5 c 128,-1,23
 82 320 82 320 92 320 c 2,24,-1
 174 320 l 2,25,26
 184 320 184 320 191 300.5 c 128,-1,27
 198 281 198 281 198 253 c 2,28,-1
 198 248 l 1,29,-1
 166 -144 l 2,30,31
 161 -210 161 -210 145 -210 c 2,32,-1
 122 -210 l 2,17,18
EndSplineSet
EndChar

StartChar: dagger
Encoding: 8224 8224 387
Width: 590
GlyphClass: 2
Flags: W
LayerCount: 2
Fore
SplineSet
260 0 m 2,0,1
 236 0 236 0 236 58 c 2,2,-1
 236 925 l 1,3,-1
 -24 925 l 2,4,5
 -77 925 -77 925 -77 949 c 2,6,-1
 -77 1036 l 2,7,8
 -77 1062 -77 1062 -24 1062 c 2,9,-1
 236 1062 l 1,10,-1
 236 1392 l 2,11,12
 236 1455 236 1455 260 1455 c 2,13,-1
 347 1455 l 2,14,15
 372 1455 372 1455 372 1392 c 2,16,-1
 372 1062 l 1,17,-1
 610 1062 l 2,18,19
 667 1062 667 1062 667 1036 c 2,20,-1
 667 949 l 2,21,22
 667 925 667 925 610 925 c 2,23,-1
 372 925 l 1,24,-1
 372 58 l 2,25,26
 372 0 372 0 347 0 c 2,27,-1
 260 0 l 2,0,1
EndSplineSet
EndChar

StartChar: daggerdbl
Encoding: 8225 8225 388
Width: 590
GlyphClass: 2
Flags: W
LayerCount: 2
Fore
SplineSet
260 0 m 2,0,1
 236 0 236 0 236 58 c 2,2,-1
 236 388 l 1,3,-1
 -24 388 l 2,4,5
 -77 388 -77 388 -77 412 c 2,6,-1
 -77 499 l 2,7,8
 -77 524 -77 524 -24 524 c 2,9,-1
 236 524 l 1,10,-1
 236 951 l 1,11,-1
 -24 951 l 2,12,13
 -77 951 -77 951 -77 974 c 2,14,-1
 -77 1061 l 2,15,16
 -77 1087 -77 1087 -24 1087 c 2,17,-1
 236 1087 l 1,18,-1
 236 1392 l 2,19,20
 236 1455 236 1455 260 1455 c 2,21,-1
 347 1455 l 2,22,23
 372 1455 372 1455 372 1392 c 2,24,-1
 372 1087 l 1,25,-1
 610 1087 l 2,26,27
 667 1087 667 1087 667 1061 c 2,28,-1
 667 974 l 2,29,30
 667 951 667 951 610 951 c 2,31,-1
 372 951 l 1,32,-1
 372 524 l 1,33,-1
 610 524 l 2,34,35
 667 524 667 524 667 499 c 2,36,-1
 667 412 l 2,37,38
 667 388 667 388 610 388 c 2,39,-1
 372 388 l 1,40,-1
 372 58 l 2,41,42
 372 0 372 0 347 0 c 2,43,-1
 260 0 l 2,0,1
EndSplineSet
EndChar

StartChar: bullet
Encoding: 8226 8226 389
Width: 1117
GlyphClass: 2
Flags: W
LayerCount: 2
Fore
SplineSet
558 655 m 128,-1,1
 468 655 468 655 398.5 686 c 128,-1,2
 329 717 329 717 289.5 768.5 c 128,-1,3
 250 820 250 820 230.5 879 c 128,-1,4
 211 938 211 938 211 1001 c 0,5,6
 211 1068 211 1068 230.5 1128 c 128,-1,7
 250 1188 250 1188 289.5 1239.5 c 128,-1,8
 329 1291 329 1291 398 1321.5 c 128,-1,9
 467 1352 467 1352 558 1352 c 128,-1,10
 649 1352 649 1352 718 1321.5 c 128,-1,11
 787 1291 787 1291 826 1239.5 c 128,-1,12
 865 1188 865 1188 884.5 1128 c 128,-1,13
 904 1068 904 1068 904 1001 c 0,14,15
 904 938 904 938 884.5 879 c 128,-1,16
 865 820 865 820 826 768.5 c 128,-1,17
 787 717 787 717 717.5 686 c 128,-1,0
 648 655 648 655 558 655 c 128,-1,1
EndSplineSet
EndChar

StartChar: perthousand
Encoding: 8240 8240 391
Width: 1477
GlyphClass: 2
Flags: W
LayerCount: 2
Fore
SplineSet
1268 -1 m 0,0,1
 1184 -1 1184 -1 1140 101.5 c 128,-1,2
 1096 204 1096 204 1096 402 c 128,-1,3
 1096 600 1096 600 1139.5 703 c 128,-1,4
 1183 806 1183 806 1268 806 c 0,5,6
 1351 806 1351 806 1394.5 702.5 c 128,-1,7
 1438 599 1438 599 1438 402 c 0,8,9
 1438 204 1438 204 1394 101.5 c 128,-1,10
 1350 -1 1350 -1 1268 -1 c 0,0,1
1268 101 m 0,11,12
 1352 101 1352 101 1352 400 c 0,13,14
 1352 704 1352 704 1268 704 c 0,15,16
 1182 704 1182 704 1182 400 c 0,17,18
 1182 259 1182 259 1203.5 180 c 128,-1,19
 1225 101 1225 101 1268 101 c 0,11,12
211 642 m 0,20,21
 127 642 127 642 83 744 c 128,-1,22
 39 846 39 846 39 1044 c 128,-1,23
 39 1242 39 1242 82.5 1345 c 128,-1,24
 126 1448 126 1448 211 1448 c 0,25,26
 295 1448 295 1448 338.5 1345 c 128,-1,27
 382 1242 382 1242 382 1044 c 128,-1,28
 382 846 382 846 338 744 c 128,-1,29
 294 642 294 642 211 642 c 0,20,21
211 743 m 0,30,31
 296 743 296 743 296 1042 c 0,32,33
 296 1346 296 1346 211 1346 c 0,34,35
 125 1346 125 1346 125 1042 c 0,36,37
 125 901 125 901 146.5 822 c 128,-1,38
 168 743 168 743 211 743 c 0,30,31
377 -82 m 2,39,40
 370 -82 370 -82 364.5 -67 c 128,-1,41
 359 -52 359 -52 359 -32 c 0,42,43
 359 -26 359 -26 361 -12 c 2,44,-1
 584 1466 l 1,45,46
 596 1536 596 1536 621 1536 c 2,47,-1
 653 1536 l 2,48,49
 660 1536 660 1536 664.5 1522 c 128,-1,50
 669 1508 669 1508 669 1489 c 0,51,52
 669 1482 669 1482 667 1466 c 2,53,-1
 445 -12 l 1,54,55
 433 -82 433 -82 408 -82 c 2,56,-1
 377 -82 l 2,39,40
821 -1 m 0,57,58
 737 -1 737 -1 693 101.5 c 128,-1,59
 649 204 649 204 649 402 c 128,-1,60
 649 600 649 600 692.5 703 c 128,-1,61
 736 806 736 806 821 806 c 0,62,63
 904 806 904 806 947.5 702.5 c 128,-1,64
 991 599 991 599 991 402 c 0,65,66
 991 204 991 204 947 101.5 c 128,-1,67
 903 -1 903 -1 821 -1 c 0,57,58
821 101 m 0,68,69
 905 101 905 101 905 400 c 0,70,71
 905 704 905 704 821 704 c 0,72,73
 735 704 735 704 735 400 c 0,74,75
 735 259 735 259 756.5 180 c 128,-1,76
 778 101 778 101 821 101 c 0,68,69
EndSplineSet
EndChar

StartChar: guilsinglleft
Encoding: 8249 8249 392
Width: 494
GlyphClass: 2
Flags: W
LayerCount: 2
Fore
SplineSet
387 226 m 2,0,1
 253 360 l 1,2,3
 91 542 91 542 91 558 c 1,4,5
 77 572 77 572 77 664 c 0,6,7
 77 735 77 735 88 745 c 1,8,9
 88 753 88 753 143.5 812.5 c 128,-1,10
 199 872 199 872 227 900 c 0,11,12
 228 902 228 902 304 982 c 128,-1,13
 380 1062 380 1062 381 1062 c 0,14,-1
 382 1062 l 1,15,-1
 384 1063 l 1,16,17
 393 1063 393 1063 396 1046 c 1,18,19
 402 1046 402 1046 402 961 c 0,20,21
 402 920 402 920 391 903 c 1,22,23
 391 897 391 897 383 885 c 128,-1,24
 375 873 375 873 362 859 c 128,-1,25
 349 845 349 845 337.5 833.5 c 128,-1,26
 326 822 326 822 313.5 810.5 c 128,-1,27
 301 799 301 799 300 798 c 0,28,29
 296 794 296 794 231.5 723 c 128,-1,30
 167 652 167 652 167 650 c 0,31,32
 165 643 165 643 167 636 c 0,33,34
 167 634 167 634 206 596.5 c 128,-1,35
 245 559 245 559 247 558 c 1,36,37
 248 556 248 556 284.5 515 c 128,-1,38
 321 474 321 474 354.5 432 c 128,-1,39
 388 390 388 390 388 381 c 1,40,41
 402 368 402 368 402 276 c 0,42,43
 402 266 402 266 399.5 253 c 128,-1,44
 397 240 397 240 395 240 c 1,45,46
 394 225 394 225 389 225 c 0,47,48
 388 225 388 225 388 225.5 c 128,-1,49
 388 226 388 226 387 226 c 2,0,1
EndSplineSet
EndChar

StartChar: guilsinglright
Encoding: 8250 8250 393
Width: 494
GlyphClass: 2
Flags: W
LayerCount: 2
Fore
SplineSet
89 223 m 0,0,1
 77 223 77 223 77 261 c 2,2,-1
 77 341 l 2,3,4
 77 395 77 395 101 423 c 1,5,-1
 310 620 l 2,6,7
 314 624 314 624 314 634 c 128,-1,8
 314 644 314 644 310 648 c 2,9,-1
 101 860 l 1,10,11
 77 887 77 887 77 945 c 2,12,-1
 77 1025 l 2,13,14
 77 1067 77 1067 90 1067 c 0,15,16
 95 1067 95 1067 101 1059 c 1,17,-1
 377 772 l 2,18,19
 401 747 401 747 401 687 c 2,20,-1
 402 584 l 2,21,22
 402 525 402 525 377 501 c 2,23,-1
 100 231 l 2,24,25
 92 223 92 223 89 223 c 0,0,1
EndSplineSet
EndChar

StartChar: fraction
Encoding: 8260 8260 394
Width: 548
GlyphClass: 2
Flags: W
LayerCount: 2
Fore
SplineSet
83 -205 m 2,0,1
 75 -205 75 -205 75 -180 c 0,2,3
 75 -178 75 -178 75.5 -176 c 128,-1,4
 76 -174 76 -174 76 -172 c 2,5,-1
 377 1614 l 2,6,7
 382 1647 382 1647 396 1647 c 2,8,-1
 470 1647 l 2,9,10
 478 1647 478 1647 478 1625 c 0,11,12
 478 1618 478 1618 477 1614 c 2,13,-1
 177 -173 l 2,14,15
 172 -206 172 -206 159 -206 c 2,16,-1
 83 -205 l 2,0,1
EndSplineSet
EndChar

